<svg width="23" height="14" viewBox="0 0 23 14" fill="none" xmlns="http://www.w3.org/2000/svg">
<path fill-rule="evenodd" clip-rule="evenodd" d="M2 0C0.895508 0 0 0.895447 0 2V4C1.65674 4 3 5.34314 3 7C3 8.65686 1.65674 10 0 10V12C0 13.1046 0.895508 14 2 14H21C22.1045 14 23 13.1046 23 12V10C21.3433 10 20 8.65686 20 7C20 5.34314 21.3433 4 23 4V2C23 0.895447 22.1045 0 21 0H2ZM10.6101 5.33002C10.6101 6.82001 9.86011 7.69 8.80005 7.69C7.73999 7.69 7 6.82001 7 5.33002C7 3.84998 7.73999 3 8.80005 3C9.86011 3 10.6101 3.84998 10.6101 5.33002ZM8.04004 5.33002C8.04004 6.41998 8.37012 6.85999 8.80005 6.85999C9.22998 6.85999 9.57007 6.41998 9.57007 5.33002C9.57007 4.23999 9.22998 3.83002 8.80005 3.83002C8.37012 3.83002 8.04004 4.23999 8.04004 5.33002ZM9.90991 10.68H9.05005L13.0701 3H13.9399L9.90991 10.68ZM15.99 8.32001C15.99 9.79999 15.23 10.68 14.1799 10.68C13.1299 10.68 12.3799 9.79999 12.3799 8.32001C12.3799 6.83002 13.1299 5.97998 14.1799 5.97998C15.23 5.97998 15.99 6.83002 15.99 8.32001ZM13.4099 8.32001C13.4099 9.40997 13.75 9.84003 14.1799 9.84003C14.6101 9.84003 14.95 9.40997 14.95 8.32001C14.95 7.22998 14.6101 6.81 14.1799 6.81C13.75 6.81 13.4099 7.22998 13.4099 8.32001Z" fill="white"/>
</svg>
