<svg xmlns="http://www.w3.org/2000/svg" viewBox="0 0 2133 2133" width="24" height="24">
	<defs>
		<clipPath clipPathUnits="userSpaceOnUse" id="cp1">
			<path d="M0 0L2133 0L2133 2133L0 2133Z" />
		</clipPath>
	</defs>
	<style>
		tspan { white-space:pre }
		.shp0 { fill: #ffffff } 
	</style>
	<g id="Page 1" clip-path="url(#cp1)">
		<path id="Path 1" class="shp0" d="M2133.33 1066.33C2133.33 477.23 1655.77 -0.33 1066.67 -0.33C477.56 -0.33 0 477.23 0 1066.33C0 1598.74 390.06 2040.02 900 2120.04L900 1374.67L629.17 1374.67L629.17 1066.33L900 1066.33L900 831.33C900 564 1059.25 416.33 1302.9 416.33C1419.6 416.33 1541.67 437.17 1541.67 437.17L1541.67 699.67L1407.16 699.67C1274.66 699.67 1233.33 781.89 1233.33 866.24L1233.33 1066.33L1529.17 1066.33L1481.87 1374.67L1233.33 1374.67L1233.33 2120.04C1743.27 2040.02 2133.33 1598.74 2133.33 1066.33Z" />
	</g>
</svg>