<svg xmlns="http://www.w3.org/2000/svg" viewBox="0 0 1050 1050" width="24" height="24">
	<defs>
		<clipPath clipPathUnits="userSpaceOnUse" id="cp1">
			<path d="M0 0L1050 0L1050 1050L0 1050Z" />
		</clipPath>
	</defs>
	<style>
		tspan { white-space:pre }
		.shp0 { fill: #ffffff } 
	</style>
	<g id="Page 1" clip-path="url(#cp1)">
		<path id="Path 1" fill-rule="evenodd" class="shp0" d="M741.22 3.49C797.09 6.04 835.24 14.91 868.62 27.88C903.13 41.3 932.4 59.24 961.58 88.42C990.76 117.6 1008.7 146.87 1022.12 181.38C1035.09 214.76 1043.96 252.91 1046.51 308.78C1049.06 364.76 1049.67 382.63 1049.67 525.17C1049.67 667.7 1049.06 685.57 1046.51 741.55C1043.96 797.42 1035.09 835.57 1022.12 868.95C1008.7 903.46 990.76 932.73 961.58 961.91C932.4 991.09 903.13 1009.04 868.62 1022.45C835.24 1035.42 797.09 1044.29 741.22 1046.84C685.24 1049.4 667.37 1050 524.84 1050C382.3 1050 364.42 1049.4 308.45 1046.84C252.58 1044.29 214.43 1035.42 181.05 1022.45C146.54 1009.04 117.27 991.09 88.09 961.91C58.91 932.73 40.97 903.46 27.55 868.95C14.58 835.57 5.71 797.42 3.16 741.55C0.6 685.57 0 667.7 0 525.17C0 382.63 0.6 364.76 3.16 308.78C5.71 252.91 14.58 214.76 27.55 181.38C40.97 146.87 58.91 117.6 88.09 88.42C117.27 59.24 146.54 41.3 181.05 27.88C214.43 14.91 252.58 6.04 308.45 3.49C364.42 0.93 382.3 0.33 524.84 0.33C667.37 0.33 685.24 0.93 741.22 3.49ZM312.76 97.96C261.59 100.29 233.8 108.84 215.3 116.03C190.8 125.55 173.32 136.92 154.96 155.29C136.59 173.65 125.22 191.14 115.7 215.63C108.51 234.13 99.96 261.92 97.62 313.09C95.1 368.43 94.56 385.03 94.56 525.17C94.56 665.3 95.1 681.9 97.62 737.24C99.96 788.41 108.51 816.2 115.7 834.7C125.22 859.2 136.59 876.68 154.96 895.04C173.32 913.41 190.8 924.78 215.3 934.3C233.8 941.49 261.59 950.04 312.76 952.37C368.09 954.9 384.69 955.44 524.84 955.44C664.98 955.44 681.58 954.9 736.91 952.37C788.08 950.04 815.87 941.49 834.37 934.3C858.86 924.78 876.35 913.41 894.71 895.04C913.08 876.68 924.45 859.2 933.97 834.7C941.16 816.2 949.71 788.41 952.04 737.24C954.57 681.9 955.1 665.3 955.1 525.17C955.1 385.03 954.57 368.43 952.04 313.09C949.71 261.92 941.16 234.13 933.97 215.63C924.45 191.14 913.08 173.65 894.71 155.29C876.35 136.92 858.86 125.55 834.37 116.03C815.87 108.84 788.08 100.29 736.91 97.96C681.57 95.43 664.97 94.9 524.84 94.9C384.7 94.9 368.1 95.43 312.76 97.96Z" />
		<path id="Path 2" fill-rule="evenodd" class="shp0" d="M794.34 525.17C794.34 674.01 673.68 794.68 524.84 794.68C375.99 794.68 255.32 674.01 255.32 525.17C255.32 376.32 375.99 255.66 524.84 255.66C673.68 255.66 794.34 376.32 794.34 525.17ZM699.78 525.17C699.78 428.55 621.45 350.22 524.84 350.22C428.21 350.22 349.89 428.55 349.89 525.17C349.89 621.79 428.21 700.11 524.84 700.11C621.45 700.11 699.78 621.79 699.78 525.17ZM867.97 245.01C867.97 279.79 839.78 307.99 804.99 307.99C770.21 307.99 742.01 279.79 742.01 245.01C742.01 210.22 770.21 182.03 804.99 182.03C839.78 182.03 867.97 210.22 867.97 245.01Z" />
	</g>
</svg>