<svg width="24" height="24" viewBox="0 0 24 24" fill="none" xmlns="http://www.w3.org/2000/svg">
<g clip-path="url(#clip0)">
<path fill-rule="evenodd" clip-rule="evenodd" d="M16.9422 0.081628C18.2192 0.139914 19.0912 0.342656 19.8542 0.639114C20.643 0.945856 21.312 1.35591 21.979 2.02288C22.6459 2.68986 23.056 3.35888 23.3627 4.14768C23.6592 4.91066 23.8619 5.78266 23.9202 7.05968C23.9785 8.33923 23.9925 8.74768 23.9925 12.0057C23.9925 15.2636 23.9785 15.672 23.9202 16.9516C23.8619 18.2286 23.6592 19.1006 23.3627 19.8636C23.056 20.6524 22.6459 21.3214 21.979 21.9884C21.312 22.6553 20.643 23.0656 19.8542 23.3721C19.0912 23.6686 18.2192 23.8713 16.9422 23.9296C15.6626 23.9881 15.2542 24.0019 11.9963 24.0019C8.73829 24.0019 8.3296 23.9881 7.05029 23.9296C5.77326 23.8713 4.90126 23.6686 4.13829 23.3721C3.34949 23.0656 2.68046 22.6553 2.01349 21.9884C1.34651 21.3214 0.936457 20.6524 0.629714 19.8636C0.333257 19.1006 0.130514 18.2286 0.0722286 16.9516C0.0137143 15.672 0 15.2636 0 12.0057C0 8.74768 0.0137143 8.33923 0.0722286 7.05968C0.130514 5.78266 0.333257 4.91066 0.629714 4.14768C0.936457 3.35888 1.34651 2.68986 2.01349 2.02288C2.68046 1.35591 3.34949 0.945856 4.13829 0.639114C4.90126 0.342656 5.77326 0.139914 7.05029 0.081628C8.3296 0.0231137 8.73829 0.00939941 11.9963 0.00939941C15.2542 0.00939941 15.6626 0.0231137 16.9422 0.081628ZM7.1488 2.24094C5.9792 2.2942 5.344 2.48963 4.92114 2.65397C4.36114 2.87157 3.9616 3.13146 3.54194 3.55134C3.12206 3.971 2.86217 4.37077 2.64457 4.93054C2.48023 5.3534 2.2848 5.9886 2.23131 7.1582C2.17371 8.42311 2.16137 8.80254 2.16137 12.0057C2.16137 15.2087 2.17371 15.5881 2.23131 16.8531C2.2848 18.0227 2.48023 18.6579 2.64457 19.0807C2.86217 19.6407 3.12206 20.0403 3.54194 20.4599C3.9616 20.8798 4.36114 21.1397 4.92114 21.3573C5.344 21.5216 5.9792 21.7171 7.1488 21.7703C8.41349 21.8281 8.79291 21.8405 11.9963 21.8405C15.1995 21.8405 15.579 21.8281 16.8437 21.7703C18.0133 21.7171 18.6485 21.5216 19.0713 21.3573C19.6311 21.1397 20.0309 20.8798 20.4505 20.4599C20.8704 20.0403 21.1303 19.6407 21.3479 19.0807C21.5122 18.6579 21.7077 18.0227 21.7609 16.8531C21.8187 15.5881 21.8309 15.2087 21.8309 12.0057C21.8309 8.80254 21.8187 8.42311 21.7609 7.1582C21.7077 5.9886 21.5122 5.3534 21.3479 4.93054C21.1303 4.37077 20.8704 3.971 20.4505 3.55134C20.0309 3.13146 19.6311 2.87157 19.0713 2.65397C18.6485 2.48963 18.0133 2.2942 16.8437 2.24094C15.5787 2.18311 15.1993 2.171 11.9963 2.171C8.79314 2.171 8.41371 2.18311 7.1488 2.24094Z" fill="white"/>
<path fill-rule="evenodd" clip-rule="evenodd" d="M18.1564 12.0038C18.1564 15.4059 15.3985 18.1641 11.9964 18.1641C8.59411 18.1641 5.83594 15.4059 5.83594 12.0038C5.83594 8.60156 8.59411 5.84362 11.9964 5.84362C15.3985 5.84362 18.1564 8.60156 18.1564 12.0038ZM15.995 12.0038C15.995 9.79539 14.2046 8.00499 11.9964 8.00499C9.78771 8.00499 7.99754 9.79539 7.99754 12.0038C7.99754 14.2123 9.78771 16.0025 11.9964 16.0025C14.2046 16.0025 15.995 14.2123 15.995 12.0038ZM19.8394 5.60019C19.8394 6.39516 19.195 7.03973 18.3998 7.03973C17.6049 7.03973 16.9603 6.39516 16.9603 5.60019C16.9603 4.80499 17.6049 4.16064 18.3998 4.16064C19.195 4.16064 19.8394 4.80499 19.8394 5.60019Z" fill="white"/>
</g>
<defs>
<clipPath id="clip0">
<rect width="24" height="24" fill="white"/>
</clipPath>
</defs>
</svg>
