<svg width="170" height="179" viewBox="0 0 170 179" fill="none" xmlns="http://www.w3.org/2000/svg">
<path d="M15.9206 37.8893C13.4416 35.0679 10.3284 33.3497 6.35814 33.3497C1.7881 33.3497 0.321816 35.9349 1.27807 38.8665C2.23432 41.798 5.7605 45.0761 7.01557 51.9165C8.27064 58.7569 8.27064 66.5745 8.27064 67.5517C8.27064 68.5289 9.22689 69.5061 10.1831 69.5061C13.5898 69.5061 15.0839 69.5061 18.4906 69.5061M15.9206 37.8893C14.5026 29.7087 12.475 25.43 12.753 16.3909C12.8849 12.1051 14.3875 7.84039 19.1688 4.90879C23.95 1.9772 31.7071 1 39.25 1C46.7929 1 54.55 1.9772 59.3313 4.90879C64.1125 7.84039 65.6151 12.1051 65.747 16.3909C66.025 25.43 63.9973 29.7087 62.5794 37.8893M15.9206 37.8893C18.4826 40.8049 20.2761 44.6312 21.4872 48.6384M23.8396 69.5061C23.8396 66.9903 23.8396 62.8879 23.3888 58.4104M23.8396 69.5061C22.6941 69.5061 19.6361 69.5061 18.4906 69.5061M23.8396 69.5061H29.9656M23.3888 58.4104C23.0753 55.2967 22.4751 51.9074 21.4872 48.6384M23.3888 58.4104H55.1112M21.4872 48.6384C21.4872 46.684 22.9937 45.9511 23.95 45.9511H54.55C55.5063 45.9511 57.0128 46.684 57.0128 48.6384M18.4906 69.5061C18.4906 69.5061 18.4906 73.0684 18.4906 74.0456C18.4906 75.0228 19.4468 76 20.4031 76C21.3593 76 27.0968 76 28.0531 76C29.0093 76 29.9656 75.0228 29.9656 74.0456C29.9656 73.0684 29.9656 69.5061 29.9656 69.5061M29.9656 69.5061H48.5344M62.5794 37.8893C65.0584 35.0679 68.1716 33.3497 72.1419 33.3497C76.7119 33.3497 78.1782 35.9349 77.2219 38.8665C76.2657 41.798 72.7395 45.0761 71.4844 51.9165C70.2294 58.7569 70.2294 66.5745 70.2294 67.5517C70.2294 68.5289 69.2731 69.5061 68.3169 69.5061C64.9102 69.5061 63.4161 69.5061 60.0094 69.5061M62.5794 37.8893C60.0174 40.8049 58.2238 44.6312 57.0128 48.6384M54.6604 69.5061C54.6604 66.9903 54.6604 62.8879 55.1112 58.4104M54.6604 69.5061C55.8059 69.5061 58.8639 69.5061 60.0094 69.5061M54.6604 69.5061H48.5344M55.1112 58.4104C55.4247 55.2967 56.0249 51.9074 57.0128 48.6384M60.0094 69.5061C60.0094 69.5061 60.0094 73.0684 60.0094 74.0456C60.0094 75.0228 59.0532 76 58.0969 76C57.1407 76 51.4032 76 50.4469 76C49.4907 76 48.5344 75.0228 48.5344 74.0456C48.5344 73.0684 48.5344 69.5061 48.5344 69.5061M31.6 15.658C31.6 17.2771 30.3156 18.5896 28.7312 18.5896C27.1469 18.5896 25.8625 17.2771 25.8625 15.658C25.8625 14.0389 27.1469 12.7264 28.7312 12.7264C30.3156 12.7264 31.6 14.0389 31.6 15.658ZM52.6375 15.658C52.6375 17.2771 51.3531 18.5896 49.7687 18.5896C48.1844 18.5896 46.9 17.2771 46.9 15.658C46.9 14.0389 48.1844 12.7264 49.7687 12.7264C51.3531 12.7264 52.6375 14.0389 52.6375 15.658ZM31.6 31.2932C31.6 32.9122 30.3156 34.2248 28.7312 34.2248C27.1469 34.2248 25.8625 32.9122 25.8625 31.2932C25.8625 29.6741 27.1469 28.3616 28.7312 28.3616C30.3156 28.3616 31.6 29.6741 31.6 31.2932ZM52.6375 31.2932C52.6375 32.9122 51.3531 34.2248 49.7687 34.2248C48.1844 34.2248 46.9 32.9122 46.9 31.2932C46.9 29.6741 48.1844 28.3616 49.7687 28.3616C51.3531 28.3616 52.6375 29.6741 52.6375 31.2932Z" stroke="white" stroke-opacity="0.8" stroke-width="2"/>
<rect x="112" y="101" width="54" height="28.5" rx="10" stroke="white" stroke-opacity="0.8" stroke-width="2"/>
<rect x="109" y="140.75" width="60" height="11.25" rx="5" stroke="white" stroke-opacity="0.8" stroke-width="2"/>
<path d="M122.5 129V141.75" stroke="white" stroke-opacity="0.8" stroke-width="2"/>
<path d="M130 129V141.75" stroke="white" stroke-opacity="0.8" stroke-width="2"/>
<path d="M148 129V141.75" stroke="white" stroke-opacity="0.8" stroke-width="2"/>
<path d="M155.5 129V141.75" stroke="white" stroke-opacity="0.8" stroke-width="2"/>
<path d="M124 152L117.746 173.443C117.32 174.902 115.871 175.812 114.373 175.562L114.108 175.518C112.416 175.236 111.305 173.597 111.669 171.921L116 152L124 152Z" stroke="white" stroke-opacity="0.8" stroke-width="2"/>
<path d="M154 152.53L160.255 173.973C160.68 175.431 162.129 176.342 163.628 176.092L163.894 176.047C165.585 175.766 166.696 174.126 166.332 172.451L162.001 152.53L154 152.53Z" stroke="white" stroke-opacity="0.8" stroke-width="2"/>
<path d="M122 159H156" stroke="white" stroke-opacity="0.8" stroke-width="2"/>
<path d="M120 165H158" stroke="white" stroke-opacity="0.8" stroke-width="2"/>
</svg>
