<svg width="100" height="100" viewBox="0 0 100 100" fill="none" xmlns="http://www.w3.org/2000/svg">
<path d="M93.4397 34.1893C95.3975 33.4767 96.42 31.3043 95.5619 29.4058C91.2049 19.7659 83.8849 11.7234 74.6212 6.48222C64.2595 0.61984 52.146 -1.35297 40.4596 0.918638C28.7731 3.19025 18.2807 9.55719 10.8696 18.8743C3.45846 28.1913 -0.385022 39.8471 0.0304582 51.745C0.445939 63.6429 5.09312 75.0021 13.1361 83.7795C21.1791 92.5569 32.0901 98.1764 43.9065 99.6273C55.7229 101.078 67.6693 98.2652 77.5968 91.6943C86.4724 85.8197 93.2135 77.2862 96.8875 67.3658C97.611 65.412 96.4395 63.3163 94.4368 62.7421V62.7421C92.434 62.1678 90.3608 63.3338 89.6111 65.2777C86.45 73.4739 80.8095 80.52 73.4325 85.4027C65.003 90.9821 54.8594 93.3706 44.826 92.1387C34.7927 90.9067 25.5281 86.1352 18.6988 78.6823C11.8695 71.2293 7.92352 61.5842 7.57074 51.4817C7.21795 41.3791 10.4815 31.4822 16.7743 23.5711C23.0671 15.6599 31.9762 10.2537 41.8992 8.32489C51.8222 6.39607 62.1078 8.07118 70.9059 13.0489C78.6055 17.4052 84.7238 24.0406 88.4489 31.9964C89.3323 33.8833 91.4819 34.9018 93.4397 34.1893V34.1893Z" fill="#616161"/>
<path d="M76.3616 40.4061C80.4689 38.9111 82.654 34.3005 80.2985 30.6186C77.159 25.7113 72.8516 21.6052 67.7126 18.6977C60.2594 14.4809 51.5462 13.0618 43.1402 14.6958C34.7341 16.3298 27.187 20.9095 21.8562 27.6113C16.5253 34.313 13.7607 42.697 14.0596 51.2551C14.3584 59.8132 17.7011 67.9839 23.4865 74.2975C29.2718 80.6111 37.12 84.6532 45.6195 85.6968C54.1191 86.7404 62.7121 84.717 69.8529 79.9906C74.7766 76.7317 78.7871 72.3351 81.5767 67.2207C83.6696 63.3835 81.1682 58.9366 76.9666 57.7318V57.7318C72.765 56.527 68.4794 59.1207 65.7573 62.5405C64.4527 64.1795 62.8905 65.6173 61.1166 66.7915C57.1185 69.4378 52.3074 70.5706 47.5486 69.9863C42.7897 69.402 38.3956 67.1389 35.1564 63.6039C31.9173 60.069 30.0457 55.4943 29.8784 50.7027C29.7111 45.9111 31.2589 41.217 34.2436 37.4647C37.2283 33.7124 41.4539 31.1483 46.1604 30.2334C50.8668 29.3186 55.7453 30.1131 59.9183 32.4741C61.7697 33.5216 63.4284 34.847 64.8441 36.3909C67.7981 39.6125 72.2543 41.901 76.3616 40.4061V40.4061Z" fill="#C2977B"/>
<path d="M57.321 89.2231C60.4552 89.2231 63.0945 86.66 63.0945 83.4982C63.0945 79.4091 60.7026 77.6098 59.383 73.6024C58.0633 69.5951 57.321 64.9334 60.8676 63.7067C64.4141 62.4799 65.6513 66.8144 65.6513 71.1489C65.6513 75.4835 68.4836 77.7734 71.6722 77.7734C74.8608 77.7734 77.3632 75.7288 77.4457 72.0486C77.5282 68.3683 74.1466 65.9966 72.0846 61.9892C70.0227 57.9818 67.1359 49.7217 67.9607 43.5062C68.7855 37.2906 71.6722 34.1011 71.6722 25.8409C71.6722 17.5808 65.2101 11.5288 57.2386 11.5288C49.2671 11.5288 42.8049 17.9366 42.8049 25.8409C42.8049 33.7453 47.5886 47.8407 30.5981 47.8407C27.4095 47.8407 24.8246 50.4038 24.8246 53.5655C24.8247 56.5915 23.9174 58.9632 22.5153 61.9892C21.1131 65.0152 19.0512 66.8144 19.0512 70.0858C19.0512 73.3571 21.636 75.7288 24.8246 75.7288C26.415 75.7288 28.3712 75.0745 29.361 73.6024C30.3507 72.1303 30.1325 69.3497 30.5981 66.4873C31.0637 63.6249 33.8148 61.7706 37.6088 61.9074C41.4028 62.0442 44.8668 63.2977 47.9185 68.123C50.9702 72.9482 50.3929 79.4091 51.1352 83.4982C51.8775 87.5874 54.1869 89.2231 57.321 89.2231Z" fill="#616161"/>
</svg>
