<svg width="100" height="44" viewBox="0 0 100 44" fill="none" xmlns="http://www.w3.org/2000/svg">
<path d="M64.5793 16.5034C64.5793 15.9096 65.1386 15.4694 65.7189 15.5923C67.2183 15.9099 69.9631 16.4046 72.5154 16.4046C75.0677 16.4046 77.8125 15.9099 79.3119 15.5923C79.8922 15.4694 80.4514 15.9096 80.4514 16.5034C80.4514 16.974 80.0948 17.3661 79.6262 17.4031C78.1761 17.5175 75.081 17.7352 72.5154 17.7352C69.9498 17.7352 66.8547 17.5175 65.4046 17.4031C64.936 17.3661 64.5793 16.974 64.5793 16.5034Z" fill="#C2977B"/>
<path d="M64.1442 29.2591C63.9529 29.1167 63.9093 28.8504 64.043 28.6505C64.6323 27.7696 66.1724 25.3745 67.1886 22.948C68.0999 20.772 68.835 18.487 69.1822 17.3537C69.3108 16.9339 69.7202 16.6557 70.1601 16.695C70.7376 16.7465 71.1079 17.3108 70.9069 17.8516C70.4331 19.1264 69.5356 21.3809 68.3472 23.6375C66.9379 26.3137 65.3725 28.3967 64.7564 29.1785C64.6073 29.3675 64.3355 29.4014 64.1442 29.2591Z" fill="#C2977B"/>
<path d="M74.634 17.1338C74.9211 17.0022 75.2645 17.1481 75.3713 17.4429C75.772 18.5483 76.7671 21.09 78.1318 23.1681C79.2446 24.8625 80.8616 26.5465 81.933 27.5844C82.4744 28.1089 82.3887 29.0048 81.7417 29.3849C81.251 29.6732 80.6164 29.5496 80.2835 29.0875C79.5093 28.013 78.1109 25.9781 76.8886 23.6981C75.4843 21.0784 74.6588 18.6684 74.3624 17.7302C74.2868 17.4911 74.4041 17.2392 74.634 17.1338Z" fill="#C2977B"/>
<path d="M71.3155 13.4282C71.2325 12.6549 71.8354 11.9722 72.6124 11.9722C73.3681 11.9722 73.9631 12.6193 73.9081 13.3738C73.7771 15.1709 73.5773 18.4401 73.5773 21.6538C73.5773 24.8676 73.7771 28.1368 73.9081 29.9339C73.9631 30.6883 73.3681 31.3355 72.6124 31.3355C71.8354 31.3355 71.2325 30.6528 71.3155 29.8795C71.512 28.0494 71.8088 24.7693 71.8088 21.6538C71.8088 18.5383 71.512 15.2583 71.3155 13.4282Z" fill="#C2977B"/>
<path d="M47.0254 14.9537C47.0254 14.419 47.5315 14.0239 48.0533 14.1381C49.3593 14.4239 51.7065 14.8591 53.8908 14.8591C56.075 14.8591 58.4223 14.4239 59.7282 14.1381C60.25 14.0239 60.7562 14.419 60.7562 14.9537C60.7562 15.3739 60.4385 15.7243 60.0202 15.7585C58.7566 15.8619 56.0973 16.0553 53.8908 16.0553C51.6843 16.0553 49.025 15.8619 47.7614 15.7585C47.3431 15.7243 47.0254 15.3739 47.0254 14.9537Z" fill="#616161"/>
<path d="M46.1507 19.9587C46.1507 19.3949 46.6787 18.975 47.2308 19.0865C48.7243 19.3881 51.5317 19.8732 54.1395 19.8732C56.7472 19.8732 59.5547 19.3881 61.0482 19.0865C61.6002 18.975 62.1283 19.3949 62.1283 19.9587C62.1283 20.4109 61.7839 20.7872 61.3335 20.821C59.8894 20.9292 56.7435 21.1398 54.1395 21.1398C51.5355 21.1398 48.3896 20.9292 46.9455 20.821C46.4951 20.7872 46.1507 20.4109 46.1507 19.9587Z" fill="#616161"/>
<path d="M49.6462 26.2558C49.6462 25.7763 50.1377 25.4406 50.5949 25.5834C51.3574 25.8214 52.47 26.0987 53.5162 26.0987C54.5625 26.0987 55.6751 25.8214 56.4376 25.5834C56.8948 25.4406 57.3863 25.7763 57.3863 26.2558C57.3863 26.5892 57.1424 26.8715 56.8118 26.9124C56.0519 27.0065 54.6736 27.1542 53.5162 27.1542C52.3589 27.1542 50.9806 27.0065 50.2207 26.9124C49.8901 26.8715 49.6462 26.5892 49.6462 26.2558Z" fill="#616161"/>
<path d="M49.3965 22.4557C49.3965 21.9756 49.8955 21.6429 50.3513 21.7922C51.0617 22.025 52.0684 22.2853 53.0169 22.2853C53.9653 22.2853 54.972 22.025 55.6824 21.7922C56.1382 21.6429 56.6372 21.9756 56.6372 22.4557C56.6372 22.7823 56.4004 23.0595 56.0769 23.1021C55.3615 23.1962 54.088 23.3408 53.0169 23.3408C51.9457 23.3408 50.6722 23.1962 49.9568 23.1021C49.6334 23.0595 49.3965 22.7823 49.3965 22.4557Z" fill="#616161"/>
<path d="M47.866 18.6762C47.6777 18.4267 47.7677 18.0606 48.0449 17.9211C48.8641 17.5089 50.4236 16.6487 51.498 15.592C52.319 14.7845 52.9598 13.7475 53.375 12.9656C53.654 12.4404 54.3767 12.3067 54.7839 12.736C55.028 12.9933 55.0804 13.3804 54.8911 13.682C54.439 14.4021 53.5034 15.7199 52.2449 16.5877C50.8595 17.543 49.1635 18.4446 48.4472 18.8135C48.246 18.9171 48.0033 18.8582 47.866 18.6762Z" fill="#616161"/>
<path d="M58.2977 19.8893C58.2977 19.8893 58.6874 22.8759 58.5524 25.1177C58.4174 27.3595 58.0481 28.9405 56.4927 29.3541C54.9372 29.7677 54.9048 28.5896 54.2643 28.1077C53.6238 27.6258 52.6415 28.0054 52.4542 28.6797C52.267 29.354 52.6415 29.8873 53.1409 30.2686C53.6402 30.65 55.2966 31.1657 57.1969 30.3496C59.0971 29.5334 59.4541 27.7387 59.7058 25.5229C59.9575 23.3071 60.1082 19.8893 60.1082 19.8893L58.2977 19.8893Z" fill="#616161"/>
<path d="M55.349 15.4648C55.5508 15.2981 55.8527 15.3411 56.0159 15.5491C56.3521 15.9777 56.9385 16.6534 57.5613 17.04C58.0663 17.3535 58.9287 17.4258 59.6343 17.4238C60.1507 17.4223 60.5466 17.9565 60.354 18.4411C60.2498 18.7033 59.9971 18.872 59.7188 18.8458C59.001 18.7782 57.6102 18.563 56.7369 17.8854C55.8733 17.2152 55.4187 16.3763 55.2272 15.9446C55.1518 15.7746 55.2073 15.5818 55.349 15.4648Z" fill="#616161"/>
<path d="M49.3269 22.7049C49.2475 22.2497 49.5923 21.8155 50.0539 21.8155C50.4939 21.8155 50.8317 22.2111 50.7796 22.6484C50.7065 23.2609 50.6257 24.1331 50.6257 24.9933C50.6257 25.8534 50.7065 26.7256 50.7796 27.3381C50.8317 27.7754 50.4939 28.1711 50.0539 28.1711C49.5923 28.1711 49.2475 27.7368 49.3269 27.2816C49.4344 26.6656 49.5502 25.8121 49.5502 24.9933C49.5502 24.1744 49.4344 23.3209 49.3269 22.7049Z" fill="#616161"/>
<path d="M55.329 22.6413C55.2485 22.2238 55.5614 21.8155 55.9861 21.8155C56.3884 21.8155 56.6946 22.1831 56.6417 22.5823C56.5778 23.0646 56.5124 23.7154 56.5124 24.3577C56.5124 25 56.5778 25.6508 56.6417 26.1331C56.6946 26.5323 56.3884 26.8999 55.9861 26.8999C55.5614 26.8999 55.2485 26.4916 55.329 26.0741C55.4218 25.5931 55.5137 24.9635 55.5137 24.3577C55.5137 23.7519 55.4218 23.1223 55.329 22.6413Z" fill="#616161"/>
<path d="M84.8972 14.9537C84.8972 14.419 85.4033 14.0239 85.9251 14.1381C87.231 14.4239 89.5783 14.8591 91.7625 14.8591C93.9468 14.8591 96.294 14.4239 97.6 14.1381C98.1218 14.0239 98.6279 14.419 98.6279 14.9537C98.6279 15.3739 98.3102 15.7243 97.8919 15.7585C96.6283 15.8619 93.969 16.0553 91.7625 16.0553C89.556 16.0553 86.8967 15.8619 85.6331 15.7585C85.2148 15.7243 84.8972 15.3739 84.8972 14.9537Z" fill="#616161"/>
<path d="M84.0223 19.9587C84.0223 19.3949 84.5504 18.975 85.1024 19.0865C86.5959 19.3881 89.4034 19.8732 92.0111 19.8732C94.6189 19.8732 97.4263 19.3881 98.9198 19.0865C99.4719 18.975 99.9999 19.3949 99.9999 19.9587C99.9999 20.4109 99.6555 20.7872 99.2051 20.821C97.761 20.9292 94.6151 21.1398 92.0111 21.1398C89.4071 21.1398 86.2612 20.9292 84.8171 20.821C84.3667 20.7872 84.0223 20.4109 84.0223 19.9587Z" fill="#616161"/>
<path d="M87.5179 26.2558C87.5179 25.7763 88.0094 25.4406 88.4667 25.5834C89.2291 25.8214 90.3417 26.0987 91.388 26.0987C92.4343 26.0987 93.5469 25.8214 94.3093 25.5834C94.7666 25.4406 95.2581 25.7763 95.2581 26.2558C95.2581 26.5892 95.0142 26.8715 94.6836 26.9124C93.9237 27.0065 92.5454 27.1542 91.388 27.1542C90.2306 27.1542 88.8523 27.0065 88.0924 26.9124C87.7618 26.8715 87.5179 26.5892 87.5179 26.2558Z" fill="#616161"/>
<path d="M87.2682 22.4557C87.2682 21.9756 87.7673 21.6429 88.2231 21.7922C88.9335 22.025 89.9402 22.2853 90.8886 22.2853C91.8371 22.2853 92.8438 22.025 93.5542 21.7922C94.01 21.6429 94.509 21.9756 94.509 22.4557C94.509 22.7823 94.2721 23.0595 93.9487 23.1021C93.2333 23.1962 91.9598 23.3408 90.8886 23.3408C89.8175 23.3408 88.544 23.1962 87.8286 23.1021C87.5051 23.0595 87.2682 22.7823 87.2682 22.4557Z" fill="#616161"/>
<path d="M85.7377 18.6762C85.5494 18.4267 85.6394 18.0606 85.9166 17.9211C86.7357 17.5089 88.2952 16.6487 89.3697 15.592C90.1907 14.7845 90.8315 13.7475 91.2467 12.9656C91.5257 12.4404 92.2483 12.3067 92.6556 12.736C92.8997 12.9933 92.9521 13.3804 92.7628 13.682C92.3107 14.4021 91.3751 15.7199 90.1165 16.5877C88.7312 17.543 87.0352 18.4446 86.3189 18.8135C86.1177 18.9171 85.875 18.8582 85.7377 18.6762Z" fill="#616161"/>
<path d="M96.1707 19.8892C96.1707 19.8892 96.5603 22.8757 96.4253 25.1175C96.2902 27.3592 95.9208 28.9402 94.3654 29.3538C92.8099 29.7674 92.7775 28.5894 92.137 28.1075C91.4965 27.6256 90.5141 28.0053 90.3268 28.6795C90.1396 29.3538 90.5141 29.8871 91.0134 30.2684C91.5128 30.6498 93.1692 31.1654 95.0695 30.3492C96.9699 29.533 97.327 27.7384 97.5787 25.5226C97.8304 23.3069 97.9812 19.8892 97.9812 19.8892L96.1707 19.8892Z" fill="#616161"/>
<path d="M93.2207 15.4648C93.4225 15.2981 93.7244 15.3411 93.8876 15.5491C94.2238 15.9777 94.8102 16.6534 95.4331 17.04C95.938 17.3535 96.8004 17.4258 97.5061 17.4238C98.0224 17.4223 98.4184 17.9565 98.2257 18.4411C98.1215 18.7033 97.8688 18.872 97.5906 18.8458C96.8727 18.7782 95.482 18.563 94.6087 17.8854C93.745 17.2152 93.2905 16.3763 93.099 15.9446C93.0236 15.7746 93.0791 15.5818 93.2207 15.4648Z" fill="#616161"/>
<path d="M87.1986 22.7049C87.1192 22.2497 87.4639 21.8155 87.9255 21.8155C88.3656 21.8155 88.7034 22.2111 88.6512 22.6484C88.5782 23.2609 88.4974 24.1331 88.4974 24.9933C88.4974 25.8534 88.5782 26.7256 88.6512 27.3381C88.7034 27.7754 88.3656 28.1711 87.9255 28.1711C87.4639 28.1711 87.1192 27.7368 87.1986 27.2816C87.3061 26.6656 87.4218 25.8121 87.4218 24.9933C87.4218 24.1744 87.3061 23.3209 87.1986 22.7049Z" fill="#616161"/>
<path d="M93.2008 22.6413C93.1203 22.2238 93.4332 21.8155 93.8579 21.8155C94.2602 21.8155 94.5663 22.1831 94.5134 22.5823C94.4496 23.0646 94.3842 23.7154 94.3842 24.3577C94.3842 25 94.4496 25.6508 94.5134 26.1331C94.5663 26.5323 94.2602 26.8999 93.8579 26.8999C93.4332 26.8999 93.1203 26.4916 93.2008 26.0741C93.2935 25.5931 93.3855 24.9635 93.3855 24.3577C93.3855 23.7519 93.2935 23.1223 93.2008 22.6413Z" fill="#616161"/>
<path d="M41.0655 15.0428C41.9255 14.7295 42.3746 13.7753 41.9981 12.9411C40.0834 8.69838 36.866 5.15873 32.7941 2.85218C28.2404 0.272729 22.9168 -0.595307 17.7809 0.404201C12.645 1.40371 8.03391 4.20516 4.77691 8.30467C1.51991 12.4042 -0.169207 17.5327 0.0133856 22.7678C0.195979 28.0029 2.23829 33.0009 5.77299 36.863C9.30768 40.725 14.1028 43.1976 19.2958 43.836C24.4888 44.4744 29.7389 43.2367 34.1018 40.3455C38.0031 37.7602 40.9661 34.0045 42.5805 29.6384C42.8979 28.7799 42.3833 27.8594 41.5035 27.6068C40.623 27.354 39.7112 27.8667 39.3819 28.7216C37.9928 32.3282 35.5139 35.4287 32.2717 37.5772C28.5672 40.0321 24.1093 41.0831 19.6999 40.541C15.2905 39.999 11.2189 37.8995 8.21763 34.6202C5.21632 31.3409 3.48218 27.097 3.32714 22.6519C3.1721 18.2068 4.60633 13.8522 7.37186 10.3713C10.1374 6.89036 14.0527 4.51164 18.4136 3.66295C22.7745 2.81427 27.2947 3.55132 31.1613 5.74154C34.5452 7.65831 37.234 10.578 38.8711 14.0786C39.2592 14.9086 40.2047 15.3565 41.0655 15.0428Z" fill="#616161"/>
<path d="M33.5615 17.7777C35.3655 17.1203 36.3254 15.0952 35.2921 13.4768C33.9121 11.3156 32.018 9.50721 29.7579 8.22698C26.4824 6.37159 22.6532 5.74721 18.959 6.46616C15.2648 7.1851 11.948 9.20018 9.60521 12.149C7.26245 15.0977 6.04748 18.7867 6.17882 22.5522C6.31016 26.3178 7.77919 29.9129 10.3217 32.6909C12.8642 35.4689 16.3133 37.2474 20.0486 37.7066C23.7839 38.1658 27.5603 37.2755 30.6986 35.1959C32.8639 33.7609 34.6274 31.8247 35.8534 29.5724C36.7715 27.8858 35.6726 25.9325 33.827 25.4026C31.9796 24.8722 30.095 26.0127 28.8991 27.5173C28.3257 28.2386 27.639 28.8715 26.8592 29.3882C25.1021 30.5526 22.9877 31.0511 20.8964 30.794C18.805 30.5369 16.8739 29.5411 15.4503 27.9857C14.0268 26.4304 13.2043 24.4175 13.1308 22.3092C13.0572 20.2009 13.7375 18.1355 15.0492 16.4845C16.3609 14.8335 18.2179 13.7052 20.2863 13.3027C22.3547 12.9002 24.4986 13.2498 26.3325 14.2886C27.1462 14.7495 27.8751 15.3326 28.4972 16.0119C29.7955 17.4294 31.7554 18.4359 33.5615 17.7777Z" fill="#C2977B"/>
<path d="M25.1911 39.2582C26.5685 39.2582 27.7284 38.1304 27.7284 36.7392C27.7284 34.94 26.6772 34.1483 26.0973 32.3851C25.5173 30.6218 25.1911 28.5707 26.7497 28.0309C28.3083 27.4912 28.8521 29.3983 28.8521 31.3055C28.8521 33.2127 30.0968 34.2203 31.4981 34.2203C32.8994 34.2203 33.9991 33.3207 34.0354 31.7014C34.0716 30.0821 32.5855 29.0385 31.6793 27.2753C30.7731 25.512 29.5045 21.8775 29.867 19.1427C30.2294 16.4079 31.4981 15.0045 31.4981 11.37C31.4981 7.73556 28.6581 5.07269 25.1549 5.07269C21.6516 5.07269 18.8116 7.8921 18.8116 11.37C18.8116 14.8479 20.914 21.0499 13.4471 21.0499C12.0458 21.0499 10.9098 22.1777 10.9098 23.5688C10.9098 24.9003 10.5111 25.9438 9.89487 27.2753C9.27867 28.6067 8.3725 29.3983 8.3725 30.8377C8.3725 32.2771 9.50848 33.3207 10.9098 33.3207C11.6087 33.3207 12.4684 33.0328 12.9034 32.3851C13.3383 31.7374 13.2425 30.5139 13.4471 29.2544C13.6517 27.9949 14.8607 27.1791 16.5281 27.2393C18.1954 27.2995 19.7178 27.851 21.0589 29.9741C22.4001 32.0972 22.1464 34.94 22.4726 36.7392C22.7988 38.5385 23.8137 39.2582 25.1911 39.2582Z" fill="#616161"/>
</svg>
