<svg width="350" height="56" viewBox="0 0 350 56" fill="none" xmlns="http://www.w3.org/2000/svg">
<path fill-rule="evenodd" clip-rule="evenodd" d="M28 56L162 56H188H322H350L322 28L350 1.64827e-05L322 1.52588e-05H188L28 0L28 1.71661e-05L0 1.47183e-05L28 28L0 56L28 56Z" fill="url(#paint0_linear)"/>
<path d="M71.584 21.88H86.2V25.096H89.2V19.144H80.92C80.608 18.256 80.104 17.248 79.624 16.408L76.696 17.272C76.984 17.848 77.272 18.496 77.512 19.144H68.752V25.096H71.584V21.88ZM85.096 26.248V23.608H72.688V26.248H85.096ZM84.256 36.136C83.416 36.136 83.272 36.04 83.272 35.272V30.688H89.68V28H68.296V30.688H74.224C74.008 34.144 73.288 35.776 67.864 36.664C68.416 37.24 69.16 38.368 69.376 39.088C75.712 37.84 76.84 35.272 77.152 30.688H80.368V35.296C80.368 37.888 81.04 38.752 83.824 38.752H86.824C89.08 38.752 89.824 37.816 90.136 34.336C89.344 34.144 88.144 33.688 87.568 33.256C87.448 35.728 87.328 36.136 86.56 36.136H84.256ZM109.84 24.328C109.264 26.272 108.472 28.048 107.536 29.656C107.128 27.736 106.792 25.48 106.576 23.08H113.992V20.248H111.496L112.648 19.024C111.808 18.232 110.056 17.128 108.736 16.456L107.008 18.16C107.992 18.76 109.192 19.528 110.08 20.248H106.408C106.36 19.072 106.336 17.896 106.36 16.696H103.36C103.36 17.896 103.408 19.072 103.456 20.248H93.664V27.256C93.664 30.376 93.496 34.552 91.672 37.432C92.32 37.768 93.592 38.824 94.096 39.376C96.064 36.448 96.568 31.768 96.664 28.264H99.784C99.712 31.288 99.616 32.44 99.376 32.776C99.184 33.016 98.992 33.064 98.656 33.064C98.272 33.064 97.456 33.04 96.592 32.968C97.024 33.688 97.336 34.792 97.384 35.632C98.488 35.656 99.52 35.656 100.144 35.56C100.864 35.44 101.344 35.224 101.8 34.6C102.352 33.904 102.496 31.768 102.568 26.728C102.568 26.392 102.592 25.648 102.592 25.648H96.664V23.08H103.624C103.936 26.68 104.464 30.04 105.28 32.752C103.888 34.312 102.232 35.632 100.384 36.64C100.984 37.192 102.016 38.368 102.448 38.992C103.936 38.08 105.28 37 106.504 35.728C107.56 37.696 108.88 38.896 110.56 38.896C112.792 38.896 113.752 37.84 114.208 33.4C113.44 33.088 112.432 32.464 111.784 31.792C111.664 34.792 111.376 35.992 110.8 35.992C110.032 35.992 109.264 34.984 108.568 33.256C110.296 30.928 111.712 28.144 112.696 25.024L109.84 24.328ZM123.256 29.44L122.872 26.896L121.192 27.352V23.848H123.184V21.208H121.192V16.696H118.456V21.208H115.96V23.848H118.456V28.096C117.376 28.384 116.392 28.624 115.576 28.816L116.2 31.528L118.456 30.88V35.656C118.456 35.968 118.336 36.064 118.048 36.064C117.76 36.064 116.92 36.064 116.08 36.04C116.44 36.856 116.776 38.08 116.872 38.824C118.408 38.824 119.464 38.728 120.208 38.248C120.976 37.792 121.192 37.024 121.192 35.656V30.064L123.256 29.44ZM129.616 27.88V24.208H132.184V27.88H129.616ZM137.92 27.88H135.016V24.208H137.368V21.496H135.04C135.712 20.32 136.432 18.928 137.128 17.632L134.104 16.624C133.672 18.112 132.88 20.104 132.136 21.496H128.224L130.048 20.728C129.688 19.648 128.776 17.968 127.984 16.744L125.512 17.728C126.208 18.88 126.952 20.416 127.312 21.496H124.36V24.208H126.856V27.88H123.616V30.616H126.736C126.472 32.968 125.656 35.536 123.064 37.168C123.712 37.648 124.6 38.632 125.008 39.184C128.08 36.928 129.16 33.688 129.496 30.616H132.184V38.992H135.016V30.616H137.92V27.88ZM150.016 30.856H151.744V31.624H150.016V30.856ZM148.504 32.824H153.376V29.632H148.504V32.824ZM147.52 28.936H154.288V33.52H147.52V28.936ZM145.336 35.104H156.592V27.376H145.336V35.104ZM148.432 22.024H153.352V22.984H148.432V22.024ZM152.104 25.12V24.4H155.752V20.584H146.176V24.4H149.704V25.12H144.232V26.68H157.816V25.12H152.104ZM143.416 35.896V19.816H158.536V35.896H143.416ZM140.776 17.464V39.064H143.416V38.224H158.536V39.064H161.32V17.464H140.776ZM167.536 23.968C168.184 23.104 168.784 22.192 169.384 21.208C170.272 22.12 171.16 23.08 171.904 23.968H167.536ZM166.648 26.392H172.144V24.256C172.504 24.688 172.84 25.12 173.08 25.456L174.448 23.152C173.656 22.072 172.024 20.44 170.56 19.072C170.728 18.664 170.92 18.232 171.088 17.848L168.952 16.504C167.8 19.576 165.568 22.48 163.552 24.16C164.104 24.856 164.776 25.912 165.112 26.704C165.64 26.2 166.144 25.648 166.648 25.072V26.392ZM172.648 27.856L172.24 27.976H164.752V30.328H171.064C170.44 31.528 169.6 32.776 168.808 33.76C168.256 33.256 167.68 32.776 167.176 32.368L165.424 33.904C167.104 35.32 169.312 37.504 170.368 38.896L172.24 37.168C171.808 36.64 171.28 36.088 170.68 35.488C172.048 33.712 173.464 31.24 174.328 28.96L172.648 27.856ZM177.376 34.312C176.416 35.344 174.448 36.616 172.744 37.288C173.32 37.792 174.112 38.632 174.544 39.136C176.296 38.44 178.384 37.072 179.656 35.848L177.376 34.312ZM182.632 25.216H177.4V23.728H182.632V25.216ZM182.632 28.744H177.4V27.184H182.632V28.744ZM182.632 32.224H177.4V30.664H182.632V32.224ZM185.272 21.616H181.096C181.264 21.112 181.408 20.56 181.576 20.008H185.92V17.608H174.064V20.008H178.552C178.48 20.536 178.408 21.088 178.312 21.616H174.88V34.312H185.272V21.616ZM180.544 35.896C181.816 36.856 183.496 38.248 184.264 39.136L186.472 37.552C185.608 36.64 183.856 35.368 182.608 34.48L180.544 35.896ZM198.616 20.656H199.456V22.528H206.536C206.128 25.216 205.408 27.616 204.472 29.68C203.464 27.568 202.744 25.144 202.264 22.576L199.528 23.128C200.272 26.752 201.304 29.968 202.768 32.632C201.592 34.264 200.2 35.56 198.616 36.448V20.656ZM192.448 30.448H195.856V32.608C194.704 32.752 193.552 32.92 192.448 33.064V30.448ZM192.448 25.504H195.856V27.904H192.448V25.504ZM195.856 20.656V22.936H192.448V20.656H195.856ZM207.808 19.648L207.328 19.72H200.152V18.016H188.104V20.656H189.736V33.4C188.92 33.496 188.176 33.568 187.528 33.64L188.08 36.496C190.288 36.16 193.096 35.728 195.856 35.248V39.088H198.616V36.832C199.192 37.408 199.84 38.296 200.2 38.92C201.832 37.936 203.248 36.736 204.472 35.248C205.624 36.712 206.968 37.936 208.6 38.92C209.032 38.176 209.92 37.096 210.568 36.568C208.84 35.632 207.4 34.288 206.224 32.68C208.024 29.464 209.176 25.336 209.68 20.104L207.808 19.648ZM216.064 16.696C215.056 20.224 213.328 23.704 211.456 25.96C211.888 26.728 212.608 28.36 212.824 29.032C213.328 28.432 213.832 27.736 214.336 26.992V39.064H217.048V21.856C217.696 20.416 218.224 18.928 218.68 17.488L216.064 16.696ZM229.072 29.272C229.24 29.44 229.432 29.608 229.6 29.8C229.168 29.68 228.736 29.536 228.472 29.392C228.4 30.088 228.28 30.208 227.8 30.208H225.688C225.04 30.208 224.896 30.136 224.896 29.656V28.576H222.664V29.056L221.536 28.48C221.272 28.888 220.936 29.296 220.552 29.704V28.072H225.64L224.92 28.456C225.568 28.936 226.336 29.704 226.744 30.184L228.328 29.248C228.04 28.912 227.536 28.48 227.032 28.072H231.64V29.488C231.28 29.08 230.896 28.744 230.536 28.408L229.072 29.272ZM223.456 34.168L228.4 34.144C227.752 34.6 226.936 35.032 225.976 35.368C225.04 35.056 224.176 34.648 223.456 34.168ZM222.856 25.696H229.504V26.464H222.856V25.696ZM229.504 21.904V22.624H222.856V21.904H229.504ZM229.504 24.544H222.856V23.776H229.504V24.544ZM234.184 26.464H232.168V20.512H227.032L227.392 19.672H233.704V17.632H218.848V19.672H224.44C224.392 19.96 224.344 20.248 224.272 20.512H220.312V26.464H218.128V29.872H220.384C220.024 30.232 219.64 30.568 219.256 30.808L220.816 32.032C221.536 31.528 222.16 30.832 222.688 30.112C222.736 30.784 222.952 31.192 223.408 31.432C222.976 31.912 222.424 32.392 221.776 32.872C221.584 32.656 221.392 32.44 221.224 32.224L219.16 32.944C219.4 33.304 219.688 33.616 220 33.952C219.376 34.264 218.752 34.576 218.032 34.84C218.536 35.176 219.256 35.92 219.568 36.448C220.312 36.112 220.984 35.752 221.608 35.392C222.04 35.704 222.496 35.992 222.976 36.28C221.416 36.64 219.592 36.928 217.624 37.12C218.128 37.696 218.728 38.56 218.992 39.184C221.632 38.824 223.96 38.32 225.976 37.648C227.992 38.344 230.272 38.8 232.792 39.064C233.104 38.44 233.656 37.504 234.16 36.976C232.336 36.832 230.632 36.616 229.048 36.28C230.536 35.464 231.664 34.456 232.432 33.304L230.728 32.344L230.248 32.44H225.376C225.592 32.2 225.784 31.96 226 31.72H228.088C229.36 31.72 229.936 31.408 230.176 30.4C230.704 30.976 231.208 31.624 231.496 32.08L233.032 31.12C232.792 30.784 232.432 30.328 232 29.872H234.184V26.464ZM252.76 22.768V23.872H248.272V22.768H252.76ZM248.272 29.56V28.216H251.248L250.168 28.936C250.528 29.128 250.888 29.32 251.272 29.536L248.272 29.56ZM248.272 25.432H252.76V26.536H248.272V25.432ZM240.736 26.536V25.432H245.32V26.536H240.736ZM240.736 22.768H245.32V23.872H240.736V22.768ZM245.32 21.112H238.048V28.216H245.32V29.56C242.032 29.584 239.008 29.584 236.704 29.56L236.824 31.96C239.32 31.936 242.536 31.888 246.016 31.84L244.768 32.824C246.064 33.664 247.624 34.912 248.344 35.776L250.288 34.144C249.664 33.424 248.512 32.536 247.408 31.816C249.664 31.768 252.016 31.72 254.296 31.672C254.728 32.056 255.112 32.392 255.424 32.728L257.416 31.192C256.48 30.304 254.824 29.104 253.216 28.216H255.592V21.112H248.272V20.056H257.224V17.824H248.272V16.672H245.32V17.824H236.608V20.056H245.32V21.112ZM238.36 38.392C239.296 37.144 240.04 35.272 240.568 33.736L238.096 32.728C237.64 34.192 236.824 35.896 235.888 37L238.36 38.392ZM245.608 36.4C244.216 36.4 243.976 36.304 243.976 35.656V32.944H241.144V35.68C241.144 38.008 242.008 38.704 245.344 38.704H250.024C252.52 38.704 253.312 38.008 253.648 35.224C252.88 35.08 251.776 34.696 251.176 34.336C251.056 36.112 250.84 36.4 249.784 36.4H245.608ZM252.808 33.64C253.864 35.128 254.848 37.12 255.136 38.368L257.776 37.528C257.44 36.16 256.384 34.288 255.28 32.848L252.808 33.64ZM273.184 27.04C273.808 27.856 274.552 28.6 275.344 29.272H266.344C267.208 28.576 267.952 27.832 268.624 27.04H273.184ZM281.656 27.04V24.472H270.448C270.736 23.968 271 23.488 271.264 22.96H280.144V20.44H277.096C277.648 19.672 278.248 18.808 278.824 17.92L276.16 17.104C275.728 18.088 274.96 19.432 274.312 20.44H272.248C272.608 19.264 272.896 18.064 273.112 16.84L270.088 16.552C269.944 17.872 269.656 19.192 269.2 20.44H266.824L267.904 19.888C267.568 19.048 266.728 17.824 265.984 16.936L263.704 18.04C264.256 18.76 264.832 19.672 265.24 20.44H261.832V22.96H268.024C267.712 23.488 267.4 23.968 267.016 24.472H260.368V27.04H264.544C263.2 28.12 261.616 29.056 259.696 29.824C260.32 30.352 261.136 31.48 261.448 32.224C262.432 31.792 263.296 31.336 264.136 30.808V31.84H267.232C266.704 34.048 265.432 35.584 261.28 36.52C261.88 37.096 262.624 38.248 262.888 38.968C268.024 37.576 269.632 35.152 270.232 31.84H274.96C274.744 34.48 274.504 35.608 274.168 35.968C273.904 36.184 273.712 36.256 273.304 36.232C272.848 36.256 271.84 36.232 270.784 36.136C271.24 36.856 271.552 37.984 271.6 38.824C272.872 38.872 274.024 38.848 274.72 38.752C275.512 38.656 276.088 38.44 276.616 37.84C277.288 37.096 277.624 35.176 277.888 30.952C278.8 31.432 279.736 31.816 280.744 32.128C281.152 31.408 281.944 30.328 282.568 29.776C280.312 29.248 278.248 28.264 276.688 27.04H281.656Z" fill="white"/>
<defs>
<linearGradient id="paint0_linear" x1="0" y1="28" x2="350" y2="28" gradientUnits="userSpaceOnUse">
<stop stop-color="#C2977B"/>
<stop offset="1" stop-color="#E4BEA5"/>
</linearGradient>
</defs>
</svg>
