<svg width="1110" height="800" viewBox="0 0 1110 800" fill="none" xmlns="http://www.w3.org/2000/svg">
<mask id="mask0" mask-type="alpha" maskUnits="userSpaceOnUse" x="0" y="0" width="1110" height="800">
<rect width="1110" height="800" fill="#C4C4C4"/>
</mask>
<g mask="url(#mask0)">
<rect width="1110" height="800" fill="url(#paint0_linear)"/>
<path d="M0 476L835.227 588L1080 678L0 606V476Z" fill="url(#paint1_linear)"/>
<path d="M0 554L836 690L1081 780L0 708V554Z" fill="url(#paint2_linear)"/>
<path d="M1 635L1110 508V656L1 766V635Z" fill="url(#paint3_linear)"/>
<path d="M1 681L1110 605V799H1V681Z" fill="url(#paint4_linear)"/>
<path d="M0 623L1110 721V800H0V623Z" fill="url(#paint5_linear)"/>
<path fill-rule="evenodd" clip-rule="evenodd" d="M145.708 21.4681L169.186 -5.20282L134.309 -12L145.708 21.4681ZM590.583 30.8207L581.062 -8.92326L553.407 21.1672L590.583 30.8207ZM872.97 27.4632L860.34 43.4827L880.545 46.2947L872.97 27.4632ZM678.305 30L676.275 43.3863L688.854 38.3793L678.305 30ZM276.311 44.7588L284.106 61.2923L294.44 46.2153L276.311 44.7588ZM1080.95 229.132L1084.99 245.971L1097.48 233.98L1080.95 229.132ZM625.618 415.146L620.517 393.626L641.617 399.876L625.618 415.146ZM1071.35 466.507L1058.7 478.519L1075.45 483.377L1071.35 466.507ZM949.585 130.155L943.996 113.627L961.03 116.985L949.585 130.155ZM160.26 136.626L153.213 152.588L170.548 150.611L160.26 136.626ZM158.952 446.327L175.702 441.441L171.627 458.318L158.952 446.327ZM820.996 278.627L826.585 295.155L838.03 281.985L820.996 278.627ZM442.343 244.013L444.373 230.626L454.922 239.006L442.343 244.013ZM193.015 60.4023L184.439 70.8793L197.813 72.9911L193.015 60.4023ZM908.24 242.253L917.932 232.799L921.294 245.845L908.24 242.253ZM990.221 312.716L964.405 309.498L974.664 333.406L990.221 312.716ZM158.274 225.386L160.305 212L170.854 220.379L158.274 225.386ZM41.6773 103.677L32.2894 113.433L45.451 116.609L41.6773 103.677ZM105.408 338.08L110.378 325.486L118.788 336.011L105.408 338.08ZM180.708 288.286L171.366 298.086L184.542 301.201L180.708 288.286ZM791.343 251.013L793.373 237.626L803.922 246.006L791.343 251.013ZM864.232 155.54L874.469 146.678L877.05 159.9L864.232 155.54ZM1026.38 88.9447L1012.86 89.7492L1020.38 101.009L1026.38 88.9447ZM425.069 106.626L437.069 99.6265V113.626L425.069 106.626ZM541.104 344.682L528.037 341.14L531.578 354.208L541.104 344.682ZM224.548 381.542L235.448 389.573L223.119 395.006L224.548 381.542ZM1031.9 418.931L1018.83 415.39L1022.37 428.458L1031.9 418.931ZM765.73 481.805L774.82 491.84L761.658 494.718L765.73 481.805ZM544.781 423.765L544.724 443.624L561.894 433.645L544.781 423.765ZM994.07 278.45L1014.45 271.33L1010.51 292.447L994.07 278.45ZM176.06 249.292L192.696 226.66L203.996 252.222L176.06 249.292ZM17.6397 248.571L-8 249.843L6.04493 271.332L17.6397 248.571ZM445.536 176.662L456.091 157.674L467.255 176.184L445.536 176.662ZM412.114 126.601L379.08 131.458L399.953 157.518L412.114 126.601ZM161.064 374.173L164.182 337.735L194.09 358.465L161.064 374.173ZM283.84 136.318L276.84 166.05L306.038 157.078L283.84 136.318ZM591.698 193.015L618.35 181.571L616.073 208.735L591.698 193.015ZM959.331 489.608L945.255 451.24L921.285 484.341L959.331 489.608ZM860.221 306.974L884.26 340.024L846.225 345.371L860.221 306.974ZM1117.63 346.546L1093.85 379.778L1076.78 345.368L1117.63 346.546ZM988.383 174.13L1000.28 135.032L961.203 146.992L988.383 174.13ZM301.973 327.173L331.971 325.029L320.501 350.862L301.973 327.173ZM88.4933 165.882L68.2073 147.78L64.5172 174.717L88.4933 165.882ZM631.239 56.869L657.188 72.0739L633.114 86.8856L631.239 56.869ZM419.709 483.552L417.825 512.84L444.055 499.676L419.709 483.552ZM663.454 434.578L676.13 392.061L706.553 424.05L663.454 434.578ZM320.573 37.4635L320.491 65.9861L345.152 51.6539L320.573 37.4635ZM476.336 49.7901L467.801 29.3872L489.637 32.1205L476.336 49.7901ZM81.2701 398.82L58.0285 415.264L83.9583 427.021L81.2701 398.82ZM395.775 366.713L388.177 346.221L409.626 349.808L395.775 366.713ZM256.126 310L263.724 330.492L277.575 313.586L256.126 310ZM897.424 214.591L900.606 192.969L917.694 206.419L897.424 214.591ZM991.834 374.26L976.235 389.567L997.324 395.301L991.834 374.26ZM721.949 391.078L723.887 367.884L742.948 381.038L721.949 391.078ZM355.188 166.227L342.07 175.155L356.401 181.969L355.188 166.227ZM347.873 74.4344L363.319 70.7998L358.81 85.9313L347.873 74.4344ZM254.887 210.726L237.71 214.297L249.466 227.319L254.887 210.726ZM716.606 95.9287L729.724 87L730.937 102.743L716.606 95.9287ZM979.94 32.9287L964.164 34.6395L973.607 47.3922L979.94 32.9287ZM525.086 99.1458L555.008 95.981L542.928 123.375L525.086 99.1458ZM662.838 140.996L647.868 129.796L645.76 148.373L662.838 140.996ZM701.475 278.508L713.485 300.997L688.128 300.231L701.475 278.508ZM245.933 471.049L248.628 496.402L225.411 486.177L245.933 471.049ZM789.396 141.794L763.167 133.436L770.878 159.862L789.396 141.794ZM770.568 37.9938L798.189 58.334L769.117 72.2657L770.568 37.9938ZM346.082 416.537L338.773 443.507L365.743 436.198L346.082 416.537ZM841.157 444.27L860.973 424.568L868.169 451.425L841.157 444.27ZM551.749 289.294L554.011 318.554L578.125 301.826L551.749 289.294Z" fill="url(#paint6_linear)"/>
</g>
<defs>
<linearGradient id="paint0_linear" x1="555" y1="0" x2="555" y2="678" gradientUnits="userSpaceOnUse">
<stop stop-color="#616161"/>
<stop offset="1" stop-color="#9D9D9D"/>
</linearGradient>
<linearGradient id="paint1_linear" x1="190.823" y1="479" x2="190.823" y2="637" gradientUnits="userSpaceOnUse">
<stop stop-color="#C7C7C7"/>
<stop offset="1" stop-color="#999999"/>
</linearGradient>
<linearGradient id="paint2_linear" x1="191" y1="581" x2="191" y2="739" gradientUnits="userSpaceOnUse">
<stop stop-color="#C0C0C0"/>
<stop offset="1" stop-color="#9D9D9D"/>
</linearGradient>
<linearGradient id="paint3_linear" x1="708.35" y1="742" x2="708.35" y2="520" gradientUnits="userSpaceOnUse">
<stop stop-color="#8C8C8C"/>
<stop offset="1" stop-color="#F9F9F9"/>
</linearGradient>
<linearGradient id="paint4_linear" x1="825.744" y1="620" x2="822.747" y2="799" gradientUnits="userSpaceOnUse">
<stop stop-color="#B9B9B9"/>
<stop offset="1" stop-color="#858585"/>
</linearGradient>
<linearGradient id="paint5_linear" x1="565" y1="623" x2="567" y2="800" gradientUnits="userSpaceOnUse">
<stop stop-color="#9B9B9B"/>
<stop offset="1" stop-color="#5E5E5E"/>
</linearGradient>
<linearGradient id="paint6_linear" x1="545.202" y1="7" x2="545.202" y2="568.463" gradientUnits="userSpaceOnUse">
<stop stop-color="#7E7E7E"/>
<stop offset="1" stop-color="#9F9F9F" stop-opacity="0"/>
</linearGradient>
</defs>
</svg>
