<svg width="285" height="43" viewBox="0 0 285 43" fill="none" xmlns="http://www.w3.org/2000/svg">
<path d="M16.398 23.0321H7.758V25.0661H16.398V23.0321ZM7.092 32.9321L4.914 33.4541V30.2141H6.696V28.2521H4.914V25.0661H6.858V23.0861H0.72V25.0661H2.844V28.2521H0.9V30.2141H2.844V33.9401C1.926 34.1381 1.08 34.3181 0.378 34.4621L0.81 36.5141C2.646 36.0281 5.058 35.4161 7.326 34.8041L7.092 32.9321ZM14.778 36.4781C14.526 36.4781 14.49 36.4061 14.49 35.7941V30.1241H17.316V28.0721H7.038V30.1241H9.072C8.928 33.6341 8.532 35.7221 4.95 36.9281C5.382 37.3061 5.958 38.0801 6.138 38.5661C10.278 37.0901 10.926 34.3361 11.142 30.1241H12.366V35.8121C12.366 37.8101 12.744 38.4761 14.4 38.4761H15.624C16.992 38.4761 17.514 37.6661 17.694 34.8941C17.136 34.7321 16.236 34.3901 15.804 34.0121C15.768 36.1361 15.696 36.4781 15.408 36.4781H14.778ZM25.902 22.0061V35.8841C25.902 36.2261 25.758 36.3521 25.362 36.3521C24.966 36.3701 23.634 36.3701 22.464 36.3161C22.788 36.9101 23.184 37.9181 23.31 38.5481C25.056 38.5481 26.28 38.4761 27.126 38.1341C27.918 37.7921 28.224 37.1981 28.224 35.8841V22.0061H25.902ZM30.186 26.7041C31.608 29.3321 32.976 32.7161 33.336 34.8941L35.676 33.9761C35.226 31.7261 33.75 28.4681 32.292 25.9121L30.186 26.7041ZM21.186 26.1101C20.808 28.4501 19.908 31.6001 18.468 33.4181C19.026 33.6701 20.016 34.1741 20.556 34.5341C22.05 32.5541 23.022 29.2061 23.634 26.5241L21.186 26.1101ZM42.408 28.0001C42.408 29.8721 42.246 32.5541 40.716 34.3181C41.094 34.5881 41.688 35.1821 41.958 35.5601C43.65 33.7421 44.064 31.0601 44.136 28.9001H45.162C45.09 32.3561 45 33.5981 44.784 33.9221C44.658 34.1021 44.532 34.1561 44.334 34.1561C44.1 34.1561 43.74 34.1561 43.272 34.1021C43.542 34.5701 43.704 35.2901 43.74 35.8121C44.37 35.8121 44.946 35.8121 45.324 35.7401C45.774 35.6681 46.08 35.5061 46.35 35.0741C46.764 34.5161 46.872 32.7341 46.98 27.8921V27.1541H44.154V25.8401H46.602C46.944 26.0921 47.484 26.5061 47.826 26.8121V27.9461H50.292C50.004 28.2701 49.68 28.5761 49.374 28.8281V29.9441H47.358V31.6361H49.374V33.7421C49.374 33.9041 49.32 33.9581 49.104 33.9581C48.906 33.9581 48.24 33.9581 47.574 33.9401C47.844 34.4441 48.114 35.1821 48.168 35.7041C49.194 35.7041 49.95 35.6861 50.49 35.3981C51.084 35.1101 51.192 34.6061 51.192 33.7601V31.6361H53.28V29.9441H51.192V29.2421C51.912 28.6121 52.614 27.8561 53.19 27.1541L52.056 26.2721L51.714 26.3801H48.33C48.528 26.0381 48.726 25.6961 48.924 25.3001H53.172V23.5361H49.698C49.86 23.0681 50.022 22.6181 50.166 22.1501L48.366 21.6641C48.042 22.8701 47.556 24.0941 46.962 25.0841V24.0761H45.306C45.144 23.4461 44.874 22.6001 44.604 21.9341L42.678 22.2761C42.876 22.8161 43.074 23.5001 43.218 24.0761H40.932V25.8401H42.408V28.0001ZM40.14 24.8501C39.888 24.0401 39.51 22.8161 39.204 21.8441L37.566 22.3301C37.836 23.3021 38.232 24.6161 38.43 25.4261L40.14 24.8501ZM40.248 29.8541L39.978 29.9081H39.33C39.69 28.6481 40.068 27.2081 40.392 25.9481H36.72V27.8561H38.142C37.8 29.2601 37.386 30.7001 37.026 31.7621H39.006C38.79 32.8781 38.484 34.0481 38.124 34.9301C37.584 35.2721 36.954 35.9021 36.342 36.7121L37.71 38.6921C38.034 37.6841 38.538 36.4601 38.88 36.4601C39.276 36.4601 39.906 37.0541 40.68 37.4861C42.012 38.2241 43.56 38.4041 45.972 38.4041C48.096 38.4041 51.372 38.2781 52.83 38.2061C52.866 37.6481 53.208 36.6401 53.442 36.1181C51.426 36.3701 48.204 36.5681 46.062 36.5681C43.938 36.5681 42.21 36.4421 40.968 35.7221C40.464 35.4341 40.104 35.1641 39.798 34.9841C40.356 33.5801 40.806 31.8161 41.076 30.1421L40.248 29.8541ZM71.226 24.8861C70.866 24.1481 70.11 22.9241 69.534 22.0241L67.968 22.7981C68.526 23.7161 69.228 25.0121 69.57 25.7681L71.226 24.8861ZM57.15 26.0381H59.094V26.9381L57.276 27.1001L57.42 28.1981L59.094 28.0361C59.094 29.1521 59.364 29.7461 60.696 29.7461H62.622C63.09 29.7461 63.648 29.7281 63.918 29.6201C63.846 29.2241 63.828 28.9001 63.792 28.4501C63.522 28.5401 62.874 28.5581 62.532 28.5581H61.236C60.84 28.5581 60.804 28.3961 60.804 28.0181V27.8921L62.532 27.7301L62.388 26.6681L60.804 26.7941V26.0381H63C62.91 26.5601 62.802 27.0641 62.712 27.4241L64.224 27.6941C64.476 26.9741 64.764 25.8221 64.962 24.8501L63.684 24.6341L63.432 24.6881H60.714V24.0221H64.422V22.6541H60.714V21.7541H58.734V24.6881H55.404V29.5661C55.404 31.8521 55.314 35.0201 54.324 37.2521C54.684 37.4501 55.476 38.0621 55.764 38.3861C56.934 35.9381 57.15 32.1041 57.15 29.5661V26.0381ZM64.548 30.1241H57.51V31.4381H64.548V30.1241ZM59.49 32.9681H62.46V33.7961H59.49V32.9681ZM64.152 34.8041V31.9421H57.888V34.8041H64.152ZM69.552 28.5941C69.228 29.7641 68.76 30.9521 68.184 32.0321C68.04 30.9881 67.914 29.7281 67.806 28.3781L71.406 27.8921L71.172 26.0381L67.698 26.5061C67.626 25.0301 67.572 23.4641 67.572 21.8441H65.61C65.646 23.5901 65.7 25.2281 65.772 26.7581L64.53 26.9201L64.782 28.7921L65.898 28.6481C66.06 30.8981 66.294 32.8421 66.654 34.3901C65.988 35.2181 65.25 35.9021 64.476 36.4421V36.1721L63.018 36.2801C63.252 35.9021 63.486 35.5241 63.72 35.1101L61.956 34.8581C61.812 35.3081 61.56 35.8841 61.326 36.3881L60.354 36.4601C60.246 35.9921 60.048 35.4341 59.85 34.9661L58.41 35.2181C58.554 35.6321 58.716 36.1361 58.824 36.5681L56.88 36.6941L57.078 38.2421C59.094 38.1161 61.848 37.8821 64.476 37.6481V36.9101C64.89 37.2341 65.358 37.6841 65.646 38.0621C66.24 37.6481 66.78 37.1261 67.32 36.5501C67.878 37.7741 68.58 38.4761 69.516 38.5121C70.218 38.5301 71.1 37.8461 71.55 34.8581C71.208 34.6601 70.38 34.0841 70.074 33.6521C69.984 35.1641 69.804 36.0101 69.534 36.0101C69.246 35.9921 68.958 35.5241 68.724 34.7321C69.786 33.1301 70.614 31.2761 71.136 29.4401L69.552 28.5941ZM77.22 24.9401C77.238 23.9141 77.256 22.8521 77.256 21.8081H75.096C75.096 22.8521 75.096 23.9141 75.078 24.9401H72.918V27.0281H75.024C74.88 30.9881 74.34 34.5881 72.432 37.0361C73.026 37.3421 73.746 38.0441 74.124 38.5661C76.266 35.7041 76.932 31.5641 77.148 27.0281H78.912C78.696 32.9861 78.426 35.2181 78.03 35.7401C77.832 36.0101 77.67 36.0821 77.4 36.0821C77.076 36.0821 76.5 36.0641 75.87 36.0101C76.212 36.6221 76.446 37.5761 76.482 38.2241C77.274 38.2421 78.03 38.2421 78.534 38.1341C79.11 38.0261 79.506 37.8101 79.92 37.1801C80.55 36.3341 80.82 33.5261 81.09 25.9121C81.108 25.6421 81.126 24.9221 81.126 24.9221L77.22 24.9401ZM84.078 34.8761V25.8581H86.49V34.8761H84.078ZM81.936 23.8061V38.1881H84.078V36.9461H86.49V38.0621H88.722V23.8061H81.936ZM95.184 34.5341H93.762V29.9621H95.184V34.5341ZM97.038 36.3881V28.1261H93.87C94.176 26.9201 94.41 25.6421 94.59 24.3461H97.56V22.4201H90.756V24.3461H92.592C92.214 27.2801 91.548 30.0161 90.288 31.7981C90.666 32.2841 91.26 33.3461 91.44 33.8501C91.602 33.6341 91.764 33.4001 91.908 33.1481V37.7921H93.762V36.3881H97.038ZM98.172 37.7561C98.982 36.7121 99.288 35.0381 99.45 33.4361L97.902 33.0581C97.74 34.5161 97.398 36.0281 96.696 36.9461L98.172 37.7561ZM99.648 33.8141C99.846 34.8401 99.918 36.2081 99.882 37.1081L101.358 36.8741C101.376 35.9921 101.25 34.6421 101.034 33.6161L99.648 33.8141ZM101.538 33.7061C101.808 34.5521 102.096 35.7041 102.168 36.4241L103.536 36.0281C103.464 35.3081 103.158 34.2101 102.816 33.3461L101.538 33.7061ZM100.08 29.6021H101.844V30.7001H100.08V29.6021ZM101.844 24.2381V25.2281H100.08V24.2381H101.844ZM101.844 27.9461H100.08V26.9021H101.844V27.9461ZM103.734 30.7001V29.6021H106.308V27.9461H103.734V26.9021H106.308V25.2281H103.734V24.2381H106.848V22.4021H98.136V32.5361H105.192C105.156 33.1841 105.12 33.7241 105.084 34.2101C104.886 33.7781 104.634 33.3101 104.364 32.9321L103.32 33.3641C103.698 34.0121 104.094 34.8941 104.256 35.4701L105.012 35.1461C104.904 36.0101 104.796 36.4421 104.652 36.6041C104.49 36.7841 104.346 36.8201 104.094 36.8201C103.806 36.8201 103.23 36.8201 102.582 36.7481C102.888 37.2521 103.086 38.0261 103.122 38.5841C103.896 38.6021 104.652 38.6021 105.084 38.5301C105.588 38.4581 105.966 38.3141 106.326 37.8641C106.794 37.2881 106.992 35.6321 107.154 31.4741C107.172 31.2221 107.19 30.7001 107.19 30.7001H103.734ZM112.716 24.8141C112.446 24.0581 111.996 22.8701 111.672 21.9341L109.71 22.4921C110.034 23.4461 110.466 24.7061 110.7 25.5161L112.716 24.8141ZM117.864 30.6641C117.432 31.9421 116.37 33.2921 113.688 34.2641C114.192 34.6781 114.876 35.4341 115.182 35.8841C117.504 34.8401 118.854 33.5081 119.556 32.1401C120.978 33.4361 122.526 34.8761 123.336 35.8301L124.83 34.3361C123.912 33.3821 122.202 31.9241 120.762 30.6641H125.172V28.7201H120.348V26.7581H124.596V24.8141H122.508C122.994 24.0581 123.516 23.2121 123.984 22.3841L121.824 21.7541C121.482 22.6721 120.924 23.8781 120.348 24.8141H117.666L118.656 24.3821C118.332 23.7161 117.648 22.5821 117.144 21.7901L115.344 22.4921C115.74 23.2121 116.244 24.1121 116.568 24.8141H114.3V26.7581H118.134V28.7201H113.85V29.9981L113.184 29.7101L112.878 29.8001H111.852C112.284 28.5761 112.752 27.1721 113.13 25.9481H108.702V27.8561H110.61C110.16 29.2061 109.692 30.6281 109.278 31.6361H111.69C111.402 32.6981 111.024 33.8141 110.592 34.6781C109.926 34.9841 109.116 35.6681 108.36 36.5861L109.8 38.6381C110.196 37.6121 110.808 36.3881 111.222 36.3881C111.582 36.3881 112.212 36.9821 112.968 37.3961C114.264 38.1521 115.758 38.3501 118.152 38.3501C120.258 38.3501 123.408 38.2241 124.902 38.1341C124.938 37.5581 125.28 36.5141 125.532 35.9381C123.534 36.2261 120.312 36.4061 118.242 36.4061C116.136 36.4061 114.462 36.2981 113.238 35.5601C112.896 35.3621 112.626 35.1641 112.392 35.0021C113.04 33.7601 113.58 32.2301 113.958 30.6641H117.864Z" fill="white"/>
<path d="M4.32 7.64L5.088 7.364C4.956 7.052 4.704 6.584 4.488 6.188H7.512C7.38 6.632 7.128 7.184 6.888 7.64H4.32ZM2.616 8.792H4.26C4.116 9.368 3.732 9.692 2.616 9.884V8.792ZM7.152 11.624V12.584H4.824V11.624H7.152ZM11.352 4.988H6.936C6.828 4.592 6.66 4.124 6.516 3.74L5.136 4.088C5.232 4.364 5.34 4.676 5.412 4.988H0.684V6.188H3.96L3.168 6.44C3.36 6.812 3.588 7.28 3.72 7.64H1.248V15.008H2.616V9.968C2.844 10.196 3.096 10.592 3.18 10.856C3.348 10.82 3.492 10.784 3.636 10.748V14.06H4.824V13.568H8.292V10.64H3.948C4.992 10.256 5.364 9.68 5.508 8.792H6.36V9.092C6.36 9.944 6.528 10.4 7.5 10.4H8.46C8.724 10.4 9.048 10.376 9.216 10.316C9.168 9.992 9.144 9.692 9.132 9.368C8.976 9.416 8.616 9.44 8.436 9.44H7.848C7.644 9.44 7.62 9.332 7.62 9.104V8.792H9.48V13.7C9.48 13.88 9.408 13.94 9.216 13.94C9.036 13.952 8.352 13.952 7.776 13.928C7.944 14.216 8.1 14.66 8.16 14.972C9.12 14.972 9.768 14.96 10.2 14.792C10.644 14.624 10.8 14.348 10.8 13.712V7.64H8.22C8.46 7.268 8.724 6.848 8.964 6.416L7.836 6.188H11.352V4.988ZM18.48 9.236C18.456 11.012 18.42 11.648 18.312 11.828C18.228 11.936 18.144 11.972 18.012 11.972C17.88 11.972 17.652 11.972 17.352 11.936C17.496 11.084 17.532 10.22 17.532 9.476V9.236H18.48ZM22.164 7.976C21.984 8.792 21.756 9.56 21.456 10.256C21.324 9.236 21.24 8.048 21.18 6.788H23.472V5.492H22.812L23.316 5.18C23.1 4.784 22.596 4.196 22.152 3.776L21.18 4.352C21.504 4.688 21.852 5.12 22.092 5.492H21.156C21.144 4.94 21.144 4.388 21.156 3.824H19.812C19.812 4.376 19.824 4.928 19.836 5.492H16.224V9.476C16.224 10.208 16.2 11.06 16.032 11.864L15.864 10.988L14.94 11.312V8H15.876V6.68H14.94V3.992H13.62V6.68H12.576V8H13.62V11.78C13.152 11.936 12.732 12.08 12.372 12.176L12.828 13.604C13.74 13.232 14.868 12.764 15.924 12.332C15.756 13.004 15.444 13.664 14.964 14.204C15.264 14.384 15.804 14.84 15.996 15.08C16.764 14.252 17.148 13.124 17.34 11.972C17.508 12.272 17.604 12.74 17.64 13.1C18.048 13.112 18.432 13.1 18.672 13.052C18.96 13.004 19.14 12.896 19.332 12.632C19.572 12.308 19.62 11.24 19.656 8.564C19.668 8.408 19.668 8.084 19.668 8.084H17.532V6.788H19.872C19.956 8.756 20.124 10.628 20.436 12.08C19.824 12.908 19.092 13.58 18.204 14.108C18.504 14.312 19.008 14.816 19.2 15.056C19.824 14.636 20.388 14.144 20.88 13.568C21.228 14.396 21.684 14.9 22.272 14.9C23.196 14.9 23.568 14.384 23.748 12.536C23.424 12.404 23.016 12.092 22.752 11.792C22.716 13.016 22.62 13.58 22.44 13.58C22.212 13.58 21.996 13.124 21.804 12.332C22.536 11.18 23.064 9.788 23.448 8.216L22.164 7.976ZM28.248 5.312V5.924H26.364V5.312H28.248ZM26.364 7.508V6.848H28.248V7.508H26.364ZM29.592 8.54V4.292H24.972V15.044H26.364V8.54H29.592ZM29.4 11.18V10.28H30.516V11.18H29.4ZM33.084 12.344V11.18H31.764V10.28H32.892V9.152H27.096V10.28H28.188V11.18H26.928V12.344H28.14C28.02 12.956 27.684 13.736 26.916 14.216C27.192 14.408 27.624 14.78 27.828 15.032C28.848 14.336 29.244 13.172 29.364 12.344H30.516V14.816H31.764V12.344H33.084ZM31.74 7.532V6.848H33.684V7.532H31.74ZM33.684 5.312V5.924H31.74V5.312H33.684ZM35.088 4.292H30.384V8.564H33.684V13.364C33.684 13.532 33.624 13.604 33.432 13.604C33.252 13.616 32.664 13.616 32.124 13.592C32.316 13.964 32.508 14.612 32.556 15.008C33.468 15.008 34.092 14.972 34.524 14.732C34.956 14.504 35.088 14.108 35.088 13.376V4.292ZM43.236 5.984H44.64V5.612H47.34V4.496H44.64V3.848H43.236V4.496H42.216V5.612H43.236V5.984ZM39.336 5.984H40.716V5.612H41.868V4.496H40.716V3.848H39.336V4.496H36.696V5.612H39.336V5.984ZM42.636 11.876V11.288H41.256V11.876H39.696C39.972 11.648 40.224 11.42 40.452 11.168H43.644C43.848 11.42 44.076 11.648 44.34 11.876H42.636ZM39.204 8.252H44.724V8.792H39.204V8.252ZM39.204 6.968H44.724V7.484H39.204V6.968ZM47.376 11.168V10.052H41.28C41.364 9.908 41.448 9.764 41.52 9.608H46.164V6.152H37.836V9.608H39.996C39.912 9.764 39.828 9.908 39.72 10.052H36.612V11.168H38.556C37.98 11.6 37.236 11.96 36.312 12.26C36.588 12.476 36.96 12.98 37.116 13.316C37.632 13.124 38.088 12.896 38.508 12.668V14.828H39.876V12.956H41.256V15.032H42.636V12.956H44.232V13.628C44.232 13.76 44.184 13.784 44.064 13.784C43.956 13.784 43.596 13.784 43.26 13.772C43.404 14.072 43.56 14.48 43.62 14.828C44.268 14.828 44.772 14.828 45.132 14.66C45.516 14.48 45.612 14.204 45.612 13.652V12.74C46.008 12.956 46.416 13.124 46.848 13.256C47.028 12.932 47.4 12.44 47.676 12.2C46.776 11.996 45.888 11.624 45.204 11.168H47.376ZM56.136 12.608C55.776 12.836 55.356 13.028 54.888 13.208C54.312 13.04 53.784 12.836 53.304 12.608H56.136ZM54.072 10.676C53.688 10.676 53.604 10.64 53.604 10.388V9.884C54.06 10.1 54.66 10.448 55.032 10.676H54.072ZM52.152 5.612V6.104H50.604V5.612H52.152ZM54.876 6.104H53.388V5.612H54.876V6.104ZM57.636 6.932V7.448H56.136V6.932H57.636ZM53.388 6.932H54.876V7.448H53.388V6.932ZM52.152 7.448H50.604V6.932H52.152V7.448ZM57.336 11.792L57.12 11.84H54.12C54.24 11.72 54.36 11.6 54.48 11.48H55.5C56.232 11.48 56.532 11.276 56.64 10.568C56.952 10.916 57.276 11.276 57.468 11.54L58.332 10.952C58.044 10.58 57.456 10.004 57.024 9.584L56.208 10.1L56.544 10.46C56.268 10.4 55.92 10.292 55.728 10.172C55.68 10.604 55.62 10.676 55.344 10.676H55.092L55.644 9.932C55.464 9.812 55.188 9.668 54.888 9.524H58.128C58.02 9.824 57.9 10.1 57.792 10.316L58.92 10.556C59.172 10.112 59.46 9.416 59.676 8.816L58.752 8.612L58.548 8.66H50.604V8.276H58.956V6.104H56.136V5.612H59.376V4.544H55.356C55.272 4.256 55.164 3.944 55.068 3.704L53.652 3.956C53.7 4.136 53.76 4.34 53.808 4.544H49.308V8.108C49.308 9.92 49.224 12.452 48.252 14.216C48.552 14.36 49.116 14.768 49.344 15.008C50.004 13.844 50.328 12.272 50.484 10.784L51.408 11.396C51.732 11.036 52.092 10.496 52.356 10.1L51.42 9.572C51.18 9.956 50.808 10.46 50.484 10.76C50.52 10.34 50.556 9.932 50.568 9.524H53.868L53.568 9.872H52.488V10.412C52.488 10.988 52.62 11.288 53.076 11.408C52.86 11.6 52.584 11.804 52.272 12.008C52.008 11.816 51.792 11.612 51.6 11.408L50.556 11.852C50.76 12.104 51 12.32 51.252 12.536C50.94 12.68 50.616 12.812 50.256 12.932C50.496 13.112 50.844 13.484 50.988 13.748C51.42 13.568 51.816 13.388 52.164 13.196C52.476 13.376 52.8 13.544 53.124 13.7C52.152 13.916 51.084 14.06 50.052 14.144C50.244 14.396 50.484 14.816 50.592 15.104C51.996 14.96 53.448 14.708 54.744 14.312C55.956 14.66 57.312 14.888 58.788 15.008C58.932 14.672 59.22 14.18 59.472 13.904C58.428 13.844 57.432 13.736 56.508 13.568C57.156 13.232 57.72 12.8 58.128 12.296L57.336 11.792ZM63.7028 14H69.0428V12.572H67.3748V5.12H66.0668C65.5028 5.468 64.8908 5.696 64.0028 5.864V6.956H65.6108V12.572H63.7028V14ZM69.9532 16.184H71.1292L74.1052 4.34H72.9292L69.9532 16.184ZM75.4215 14H80.7615V12.572H79.0935V5.12H77.7855C77.2215 5.468 76.6095 5.696 75.7215 5.864V6.956H77.3295V12.572H75.4215V14ZM82.0919 11.192H85.3679V9.932H82.0919V11.192ZM86.9293 14H92.2693V12.572H90.6013V5.12H89.2933C88.7293 5.468 88.1173 5.696 87.2293 5.864V6.956H88.8373V12.572H86.9293V14ZM93.5277 14H99.4797V12.512H97.5477C97.1397 12.512 96.5517 12.56 96.1077 12.608C97.7277 11.024 99.0597 9.296 99.0597 7.688C99.0597 6.032 97.9437 4.952 96.2637 4.952C95.0517 4.952 94.2597 5.432 93.4437 6.296L94.4037 7.256C94.8477 6.764 95.3877 6.344 96.0357 6.344C96.8757 6.344 97.3677 6.884 97.3677 7.784C97.3677 9.152 95.9397 10.82 93.5277 12.98V14ZM100.246 16.184H101.422L104.398 4.34H103.222L100.246 16.184ZM108.018 14.168C109.71 14.168 111.138 13.22 111.138 11.588C111.138 10.424 110.37 9.68 109.362 9.404V9.344C110.31 8.972 110.85 8.276 110.85 7.316C110.85 5.792 109.686 4.952 107.97 4.952C106.926 4.952 106.074 5.372 105.306 6.044L106.206 7.124C106.734 6.644 107.25 6.344 107.886 6.332C108.642 6.344 109.074 6.752 109.074 7.448C109.074 8.24 108.546 8.804 106.914 8.804V10.076C108.846 10.076 109.362 10.616 109.362 11.492C109.362 12.284 108.75 12.728 107.85 12.728C107.046 12.728 106.398 12.332 105.87 11.816L105.042 12.932C105.666 13.64 106.614 14.168 108.018 14.168ZM112.781 14H118.121V12.572H116.453V5.12H115.145C114.581 5.468 113.969 5.696 113.081 5.864V6.956H114.689V12.572H112.781V14Z" fill="white"/>
<rect x="140" width="145" height="41.2975" fill="white"/>
<path d="M164.826 19.1368V22.56H159.466C159.671 21.4454 159.825 20.3309 159.927 19.1368H164.826ZM152.027 22.56V19.1368H156.696C156.593 20.3309 156.49 21.4454 156.26 22.56H152.027ZM159.158 14.0684C158.671 14.8645 158.106 15.6606 157.542 16.3505H152.207C152.9 15.6075 153.489 14.8645 154.079 14.0684H159.158ZM163.467 31.2372C162.492 31.2372 162.338 31.1311 162.338 30.2289V25.3728H168.058V16.3505H161.133C162.056 15.1829 162.954 13.8561 163.544 12.7682L161.415 11.3618L160.902 11.4944H155.798C156.054 11.0964 156.285 10.6718 156.49 10.2738L153.207 9.63692C151.874 12.2905 149.437 15.3952 146 17.7304C146.718 18.2346 147.693 19.3491 148.155 20.1186C148.437 19.9064 148.719 19.6941 148.975 19.4552V25.3728H155.387C154.156 28.0795 151.694 30.3085 146.436 31.6884C147.103 32.3783 147.821 33.5459 148.155 34.342C154.618 32.4844 157.414 29.2736 158.747 25.3728H159.158V30.2819C159.158 33.1213 159.927 34.0501 163.005 34.0501H166.468C169.007 34.0501 169.802 32.9621 170.136 29.0613C169.315 28.849 168.007 28.3448 167.365 27.8406C167.263 30.7596 167.083 31.2372 166.211 31.2372H163.467Z" fill="url(#paint0_angular)"/>
<path d="M192.271 12.8743V14.6257H188.577V13.5908H185.602V14.6257H181.652V12.8743H192.271ZM191.193 19.7206V20.782H188.577V19.7206H191.193ZM191.193 23.6479H188.577V22.5865H191.193V23.6479ZM182.883 23.6479V22.5865H185.602V23.6479H182.883ZM182.883 19.7206H185.602V20.782H182.883V19.7206ZM181.011 16.8282H185.602V17.7835H180.293V25.5585H185.602V26.5138H179.087V28.7959H185.602V30.5473H188.577V28.7959H195.169V26.5138H188.577V25.5585H193.912V17.7835H188.577V16.8282H192.527V15.8463H195.195V10.5657H178.856V15.8463H181.011V16.8282ZM177.574 14.148C177.24 12.9539 176.573 11.176 176.086 9.74306L173.393 10.5922C173.829 12.0252 174.522 13.9623 174.804 15.1829L177.574 14.148ZM177.189 21.6843L176.753 21.7639H176.343C176.933 19.9329 177.599 17.81 178.138 15.926H172.059V18.7388H174.419C173.829 20.8086 173.136 22.9315 172.521 24.4971H175.778C175.445 26.0627 174.958 27.7345 174.342 29.0613C173.47 29.592 172.495 30.4942 171.572 31.6353L173.624 34.6339C174.239 33.1213 175.163 31.3168 175.753 31.3168C176.291 31.3168 177.189 32.1925 178.266 32.8029C180.113 33.9174 182.267 34.2093 185.679 34.2093C188.68 34.2093 193.22 34.0235 195.323 33.8908C195.348 33.0417 195.861 31.5026 196.22 30.6534C193.373 31.078 188.782 31.3434 185.833 31.3434C182.832 31.3434 180.421 31.1842 178.677 30.0962C178.035 29.6982 177.548 29.3532 177.163 29.0878C177.984 27.0976 178.6 24.7359 178.984 22.56L177.189 21.6843Z" fill="url(#paint1_angular)"/>
<path d="M211.841 21.2066C212.507 22.1088 213.303 22.9315 214.149 23.6745H204.531C205.454 22.9049 206.249 22.0823 206.967 21.2066H211.841ZM220.895 21.2066V18.3673H208.917C209.224 17.81 209.507 17.2793 209.789 16.6955H219.279V13.9092H216.021C216.611 13.0601 217.253 12.1048 217.868 11.1229L215.021 10.2207C214.559 11.3087 213.739 12.7947 213.046 13.9092H210.84C211.225 12.609 211.533 11.2822 211.764 9.92882L208.532 9.61038C208.378 11.0699 208.07 12.5293 207.583 13.9092H205.044L206.198 13.2989C205.839 12.3701 204.941 11.0168 204.146 10.035L201.709 11.2556C202.299 12.0517 202.915 13.0601 203.351 13.9092H199.709V16.6955H206.326C205.993 17.2793 205.659 17.81 205.249 18.3673H198.144V21.2066H202.607C201.171 22.4007 199.478 23.4357 197.426 24.2848C198.093 24.8686 198.965 26.1158 199.298 26.9384C200.35 26.4608 201.273 25.9566 202.171 25.3728V26.5138H205.48C204.915 28.9551 203.556 30.6534 199.119 31.6884C199.76 32.3252 200.555 33.5989 200.837 34.395C206.326 32.8559 208.045 30.1758 208.686 26.5138H213.739C213.508 29.4328 213.251 30.68 212.892 31.078C212.61 31.3168 212.405 31.3965 211.969 31.3699C211.482 31.3965 210.404 31.3699 209.276 31.2638C209.763 32.0599 210.096 33.307 210.148 34.2358C211.507 34.2889 212.738 34.2623 213.482 34.1562C214.329 34.0501 214.944 33.8112 215.508 33.1478C216.227 32.3252 216.586 30.2023 216.868 25.532C217.842 26.0627 218.843 26.4873 219.92 26.8323C220.356 26.0362 221.202 24.8421 221.869 24.2317C219.458 23.6479 217.253 22.56 215.585 21.2066H220.895Z" fill="url(#paint2_angular)"/>
<path d="M242.271 26.5224C242.271 27.2024 242.831 27.7512 243.524 27.7512C244.218 27.7512 244.778 27.2024 244.778 26.5224C244.778 25.8424 244.218 25.2936 243.524 25.2936C242.831 25.2936 242.271 25.8424 242.271 26.5224Z" fill="url(#paint3_angular)"/>
<path d="M256.448 22.4263L254.81 20.3782H252.72V22.4263H256.448Z" fill="url(#paint4_angular)"/>
<path d="M252.302 26.5224C252.302 27.2024 252.862 27.7512 253.556 27.7512C254.25 27.7512 254.81 27.2024 254.81 26.5224C254.81 25.8424 254.25 25.2936 253.556 25.2936C252.862 25.2936 252.302 25.8424 252.302 26.5224Z" fill="url(#paint5_angular)"/>
<path fill-rule="evenodd" clip-rule="evenodd" d="M228.771 9.00006H263.931V12.8146H265.815V9.00006H279V16.6396C278.896 16.6327 278.792 16.6292 278.686 16.6292C276.085 16.6292 273.977 18.764 273.977 21.3974C273.977 24.0308 276.085 26.1655 278.686 26.1655C278.792 26.1655 278.896 26.162 279 26.1551V34.4304H228.771V26.1551C231.225 25.9915 233.166 23.9239 233.166 21.3974C233.166 18.8708 231.225 16.8032 228.771 16.6396V9.00006ZM265.815 14.7219H263.931V18.5364H265.815V14.7219ZM263.931 20.4437H265.815V24.2583H263.931V20.4437ZM265.815 26.1656H263.931V29.9801H265.815V26.1656ZM263.931 31.8874H265.815V34.4304H263.931V31.8874ZM252.72 19.1494H255.228L257.736 22.4263V26.5224H256.064C256.064 27.8823 254.944 28.9801 253.556 28.9801C252.168 28.9801 251.048 27.8823 251.048 26.5224H246.032C246.032 27.8823 244.912 28.9801 243.524 28.9801C242.137 28.9801 241.017 27.8823 241.017 26.5224H239.345V17.511C239.345 16.6098 240.097 15.8725 241.017 15.8725H252.72V19.1494Z" fill="url(#paint6_angular)"/>
<defs>
<radialGradient id="paint0_angular" cx="0" cy="0" r="1" gradientUnits="userSpaceOnUse" gradientTransform="translate(300.427 17.8454) rotate(176.109) scale(154.784 904.578)">
<stop stop-color="#88654E"/>
<stop offset="1" stop-color="#A67E64"/>
</radialGradient>
<radialGradient id="paint1_angular" cx="0" cy="0" r="1" gradientUnits="userSpaceOnUse" gradientTransform="translate(300.427 17.8454) rotate(176.109) scale(154.784 904.578)">
<stop stop-color="#88654E"/>
<stop offset="1" stop-color="#A67E64"/>
</radialGradient>
<radialGradient id="paint2_angular" cx="0" cy="0" r="1" gradientUnits="userSpaceOnUse" gradientTransform="translate(300.427 17.8454) rotate(176.109) scale(154.784 904.578)">
<stop stop-color="#88654E"/>
<stop offset="1" stop-color="#A67E64"/>
</radialGradient>
<radialGradient id="paint3_angular" cx="0" cy="0" r="1" gradientUnits="userSpaceOnUse" gradientTransform="translate(300.427 17.8454) rotate(176.109) scale(154.784 904.578)">
<stop stop-color="#88654E"/>
<stop offset="1" stop-color="#A67E64"/>
</radialGradient>
<radialGradient id="paint4_angular" cx="0" cy="0" r="1" gradientUnits="userSpaceOnUse" gradientTransform="translate(300.427 17.8454) rotate(176.109) scale(154.784 904.578)">
<stop stop-color="#88654E"/>
<stop offset="1" stop-color="#A67E64"/>
</radialGradient>
<radialGradient id="paint5_angular" cx="0" cy="0" r="1" gradientUnits="userSpaceOnUse" gradientTransform="translate(300.427 17.8454) rotate(176.109) scale(154.784 904.578)">
<stop stop-color="#88654E"/>
<stop offset="1" stop-color="#A67E64"/>
</radialGradient>
<radialGradient id="paint6_angular" cx="0" cy="0" r="1" gradientUnits="userSpaceOnUse" gradientTransform="translate(300.427 17.8454) rotate(176.109) scale(154.784 904.578)">
<stop stop-color="#88654E"/>
<stop offset="1" stop-color="#A67E64"/>
</radialGradient>
</defs>
</svg>
