<svg width="510" height="76" viewBox="0 0 510 76" fill="none" xmlns="http://www.w3.org/2000/svg">
<rect y="6.10352e-05" width="510" height="76" fill="url(#paint0_linear)"/>
<path d="M249.668 37.7017C273.588 28.9645 270.551 21.0563 303.203 13.0096C335.856 4.96289 378 15.5995 378 15.5995V76.0001H165C198.032 35.733 225.749 46.4389 249.668 37.7017Z" fill="#CF9F7F"/>
<path d="M318.038 25.4283C334.961 4.47846 358.079 0.253078 369.79 6.10352e-05H510V76.0001H227C231.911 66.5119 236.444 58.9214 257.598 49.0537C278.752 39.1861 296.884 51.6155 318.038 25.4283Z" fill="#E4BEA5"/>
<path d="M309 76C315.053 59.6228 332.835 46.7482 351.752 43.3402C370.668 39.9322 387.693 7.84223 432.715 13.4252C477.737 19.0083 472.44 -2.1002 497.788 0.171836C497.788 0.171836 495.568 0.171913 510 0.171913V76.0001L309 76Z" fill="#DCAD8E"/>
<path d="M34.04 39.6601H24.66V41.0801H34.04V39.6601ZM23.92 50.8801C22.96 51.1201 22 51.3801 21.06 51.6201V47.0001H23.34V45.6001H21.06V41.2001H23.66V39.8201H17.02V41.2001H19.62V45.6001H17.28V47.0001H19.62V51.9801C18.52 52.2601 17.54 52.5201 16.74 52.7201L17.08 54.1401C19 53.6201 21.6 52.8801 24.1 52.1801L23.92 50.8801ZM32.12 55.0001C31.7 55.0001 31.62 54.9201 31.62 54.3601V46.8401H35.1V45.4001H23.78V46.8401H26.46C26.26 51.2801 25.7 54.0001 21.66 55.4601C21.98 55.7001 22.38 56.2401 22.52 56.5801C26.9 54.9001 27.66 51.7801 27.9 46.8401H30.16V54.3801C30.16 55.9401 30.52 56.4001 31.92 56.4001H33.64C34.88 56.4001 35.26 55.6601 35.38 52.9001C34.98 52.8001 34.36 52.5601 34.06 52.2801C34 54.6201 33.92 55.0001 33.5 55.0001H32.12ZM45.3 38.5601V54.4601C45.3 54.8601 45.14 55.0001 44.72 55.0001C44.34 55.0201 42.9 55.0401 41.44 54.9801C41.68 55.4001 41.96 56.1001 42.06 56.5201C43.92 56.5401 45.16 56.5001 45.88 56.2601C46.58 56.0001 46.88 55.5601 46.88 54.4601V38.5601H45.3ZM50.08 43.6001C51.78 46.4601 53.38 50.1801 53.86 52.5401L55.42 51.8801C54.92 49.5001 53.24 45.8601 51.48 43.0601L50.08 43.6001ZM40.08 43.2001C39.6 45.8801 38.5 49.3201 36.72 51.4201C37.12 51.5801 37.76 51.9401 38.12 52.2001C39.92 49.9801 41.08 46.4001 41.72 43.5001L40.08 43.2001ZM69.18 44.6201H72.72C72.24 45.1601 71.66 45.7401 71.12 46.1201V47.5001H68.4V48.7201H71.12V52.2401C71.12 52.4401 71.06 52.5001 70.82 52.5001C70.58 52.5201 69.84 52.5201 69 52.5001C69.2 52.8601 69.4 53.3801 69.46 53.7601C70.58 53.7601 71.32 53.7401 71.78 53.5201C72.3 53.3001 72.42 52.9401 72.42 52.2601V48.7201H75.1V47.5001H72.42V46.4801C73.26 45.7801 74.16 44.8601 74.82 44.0001L73.98 43.3801L73.74 43.4601H69.26C69.56 42.9601 69.84 42.3801 70.12 41.7801H75.1V40.5201H70.6C70.84 39.8801 71.04 39.1801 71.22 38.5201L69.94 38.2001C69.5 40.1801 68.68 42.1601 67.64 43.4601C67.96 43.6401 68.46 44.0401 68.72 44.2601C68.88 44.0601 69.04 43.8401 69.18 43.6001V44.6201ZM63.5 44.4201C63.5 46.8201 63.28 50.1401 61.42 52.6401C61.72 52.8201 62.16 53.2001 62.38 53.4601C64.12 51.1801 64.6 48.2201 64.72 45.7401H66.66C66.5 50.2801 66.28 51.9401 65.96 52.3401C65.84 52.5601 65.68 52.6001 65.46 52.5801C65.22 52.5801 64.7 52.5801 64.12 52.5201C64.28 52.8601 64.4 53.3801 64.44 53.7801C65.06 53.8001 65.66 53.8001 66.04 53.7601C66.48 53.7001 66.8 53.5601 67.08 53.1801C67.56 52.5601 67.76 50.6801 67.98 45.1201V44.5001H64.74V44.4401V42.2401H68.36V40.9601H66.12L66.28 40.9201C66.08 40.2201 65.62 39.1201 65.22 38.2801L63.92 38.5401C64.22 39.3001 64.62 40.2601 64.84 40.9601H61.78V42.2401H63.5V44.4201ZM61.06 41.3801C60.6 40.5601 59.62 39.2801 58.78 38.3001L57.66 38.8801C58.44 39.8801 59.42 41.2601 59.88 42.1201L61.06 41.3801ZM61.12 47.7601L60.88 47.8001H58.9C59.98 46.4601 61.4 44.3601 62.18 43.2001L61.18 42.7601L60.9 42.8801H57V44.1001H60.08C59.26 45.3201 58.14 46.9001 57.72 47.3601C57.38 47.7201 57.08 47.8601 56.78 47.9401C56.94 48.2401 57.22 48.9401 57.32 49.3001C57.48 49.1401 58 49.0201 58.5 49.0201H60.3C59.7 52.0801 58.4 54.3001 56.66 55.5401C56.96 55.7401 57.44 56.2601 57.64 56.5601C58.6 55.8201 59.46 54.8001 60.14 53.5001C61.7 55.8001 64.2 56.2001 68.32 56.2001C70.5 56.2001 73 56.1601 74.88 56.0401C74.94 55.6401 75.14 54.9801 75.36 54.6601C73.34 54.8401 70.44 54.9201 68.34 54.9201C64.5 54.9201 61.98 54.6201 60.7 52.3001C61.18 51.0801 61.56 49.6601 61.8 48.0401L61.12 47.7601ZM94.98 41.9201C94.46 41.0801 93.46 39.7001 92.68 38.6601L91.58 39.2001C92.36 40.2601 93.32 41.7201 93.8 42.5601L94.98 41.9201ZM81.98 42.6601V43.9801L79.52 44.2201L79.64 45.1201L81.98 44.8801V45.2401C81.98 46.3201 82.2 46.8001 83.36 46.8001H85.64C86.08 46.8001 86.62 46.7801 86.86 46.7001C86.82 46.4001 86.78 46.1001 86.76 45.7801C86.48 45.8601 85.88 45.8801 85.58 45.8801H83.66C83.28 45.8801 83.22 45.7401 83.22 45.2601V44.7601L85.4 44.5401L85.28 43.6801L83.22 43.8801V42.6601H86.4C86.28 43.2801 86.12 43.9001 85.98 44.3401L87.06 44.6001C87.34 43.8801 87.64 42.7601 87.86 41.7601L86.98 41.5601L86.76 41.6001H83.08V40.5401H87.3V39.5001H83.08V38.2601H81.7V41.6001H77.84V47.1601C77.84 49.6401 77.74 53.0401 76.62 55.4801C76.92 55.6201 77.44 56.0001 77.66 56.2601C78.9 53.6801 79.1 49.8201 79.1 47.1601V42.6601H81.98ZM87.58 47.4801H79.74V48.5201H87.58V47.4801ZM81.42 50.2001H85.68V51.6001H81.42V50.2001ZM86.9 52.4601V49.3401H80.26V52.4601H86.9ZM93.78 45.7001C93.3 47.4201 92.5 49.1401 91.5 50.7001C91.26 49.1401 91.04 47.2601 90.88 45.1201L95.18 44.5801L95 43.2601L90.8 43.8001C90.68 42.0801 90.62 40.2601 90.6 38.3601H89.22C89.28 40.3201 89.34 42.2201 89.44 43.9601L87.66 44.2001L87.86 45.5201L89.54 45.3001C89.72 47.9801 90.02 50.3401 90.42 52.1801C89.5 53.3201 88.46 54.2801 87.36 54.9401V54.3601L85.32 54.5401C85.62 54.0001 85.94 53.3801 86.22 52.7801L84.98 52.5401C84.78 53.1401 84.4 54.0001 84.1 54.6601L82.78 54.7801C82.62 54.1601 82.3 53.3001 82.04 52.6201L80.98 52.8201C81.22 53.4401 81.46 54.2401 81.62 54.8801C80.7 54.9601 79.86 55.0201 79.16 55.0801L79.32 56.2401C81.46 56.0401 84.48 55.7401 87.36 55.4601V54.9801C87.74 55.2401 88.14 55.6401 88.4 55.9601C89.26 55.4001 90.1 54.6201 90.86 53.7401C91.44 55.4801 92.22 56.5001 93.28 56.5201C94 56.5401 94.72 55.7001 95.1 52.6001C94.84 52.4601 94.28 52.1201 94.04 51.8201C93.9 53.7401 93.64 54.8201 93.28 54.8201C92.74 54.7801 92.26 53.9201 91.9 52.4601C93.18 50.6201 94.24 48.4601 94.9 46.3201L93.78 45.7001ZM105.8 42.0201H101.38C101.4 40.8801 101.42 39.7201 101.42 38.5401H99.96C99.96 39.7201 99.96 40.8801 99.94 42.0201H97.14V43.4801H99.9C99.74 48.4801 99.14 52.9001 96.66 55.5201C97.02 55.7401 97.56 56.2201 97.78 56.5401C100.48 53.6201 101.16 48.8401 101.34 43.4801H104.36C104.22 51.1401 104.04 53.8601 103.58 54.4201C103.44 54.7001 103.24 54.7601 102.92 54.7401C102.56 54.7401 101.7 54.7401 100.78 54.6601C101.04 55.0801 101.18 55.7201 101.22 56.1601C102.1 56.2201 103.02 56.2201 103.56 56.1401C104.16 56.0801 104.52 55.9001 104.88 55.3801C105.5 54.5201 105.64 51.6201 105.8 42.7801V42.0201ZM108.84 53.3401V42.1801H112.72V53.3401H108.84ZM107.44 40.7401V56.2201H108.84V54.7601H112.72V56.0801H114.2V40.7401H107.44ZM122.28 52.6801H119.72V46.7001H122.28V52.6801ZM123.58 53.9801V45.4201H119.78C120.2 43.9001 120.52 42.2601 120.78 40.5801H124.34V39.2201H117.04V40.5801H119.36C118.86 44.0401 118.02 47.3001 116.56 49.4401C116.84 49.7401 117.3 50.4401 117.44 50.7401C117.8 50.2201 118.14 49.6401 118.44 49.0201V55.6201H119.72V53.9801H123.58ZM124.5 55.6201C125.46 54.5401 125.82 52.6801 126.02 50.9601L124.9 50.6801C124.72 52.3201 124.32 54.0401 123.46 55.0201L124.5 55.6201ZM126.82 51.3001C127.04 52.4601 127.16 53.9801 127.12 54.9801L128.22 54.8001C128.24 53.8201 128.08 52.3201 127.84 51.1401L126.82 51.3001ZM128.94 51.1401C129.34 52.1201 129.7 53.3801 129.82 54.2201L130.84 53.9201C130.7 53.1001 130.32 51.8201 129.9 50.8801L128.94 51.1401ZM126.54 46.5001H129.3V48.4001H126.54V46.5001ZM129.3 40.4201V42.2401H126.54V40.4201H129.3ZM129.3 45.3001H126.54V43.4401H129.3V45.3001ZM130.62 48.4001V46.5001H133.96V45.3001H130.62V43.4401H133.96V42.2401H130.62V40.4201H134.42V39.1201H125.18V49.7001H133.42C133.24 53.3201 133 54.7201 132.68 55.1001C132.5 55.2801 132.36 55.3201 132.04 55.3201C131.74 55.3201 130.94 55.3001 130.1 55.2201C130.3 55.5801 130.44 56.1201 130.46 56.5001C131.36 56.5601 132.2 56.5601 132.66 56.5201C133.2 56.4801 133.52 56.3401 133.84 55.9601C134.34 55.3801 134.58 53.6601 134.8 49.0201C134.82 48.8201 134.82 48.4001 134.82 48.4001H130.62ZM133.12 52.6801C132.86 52.0601 132.3 51.0801 131.74 50.3601L130.92 50.7001C131.44 51.4401 132.02 52.4401 132.26 53.1001L133.12 52.6801ZM147.34 41.3601C146.94 40.5601 146.16 39.2601 145.52 38.3201L144.28 38.7801C144.9 39.7801 145.66 41.1201 146.02 41.9201L147.34 41.3601ZM154.74 52.8201C153.44 51.6001 150.94 49.6201 148.98 48.1001C149.02 47.9601 149.06 47.7801 149.1 47.6201H154.74V46.2401H149.3C149.32 45.9401 149.32 45.6801 149.32 45.4001V43.3601H154.28V41.9801H151.18C151.78 41.0201 152.44 39.8001 153 38.7401L151.52 38.2601C151.08 39.3801 150.36 40.9001 149.7 41.9801H143.28V43.3601H147.86V45.3801C147.86 45.6601 147.86 45.9401 147.84 46.2401H142.66V47.6201H147.62C147.2 49.3801 145.96 51.3201 142.46 52.8001C142.8 53.0601 143.26 53.5601 143.46 53.8601C146.24 52.5601 147.72 50.9601 148.5 49.4001C150.38 50.8801 152.56 52.7001 153.7 53.8601L154.74 52.8201ZM141.24 41.3601C140.72 40.5201 139.72 39.2601 138.86 38.2801L137.72 38.9001C138.56 39.9001 139.58 41.3001 140.06 42.1401L141.24 41.3601ZM141.22 47.7601L140.96 47.8001H138.88C139.98 46.4601 141.46 44.4001 142.26 43.2201L141.28 42.7801L141.04 42.8801H137V44.1001H140.14C139.3 45.3201 138.14 46.9201 137.68 47.3801C137.36 47.7401 137.04 47.8601 136.74 47.9401C136.9 48.2601 137.2 48.9401 137.3 49.3001C137.44 49.1401 137.96 49.0201 138.46 49.0201H140.4C139.78 52.1001 138.48 54.3001 136.68 55.5401C136.98 55.7401 137.48 56.2601 137.66 56.5601C138.62 55.8401 139.5 54.8401 140.18 53.5401C141.74 55.8001 144.26 56.2001 148.32 56.2001C150.5 56.2001 153 56.1601 154.88 56.0401C154.94 55.6401 155.14 54.9801 155.36 54.6601C153.34 54.8401 150.44 54.9201 148.34 54.9201C144.54 54.9201 142.02 54.6001 140.74 52.3601C141.24 51.1401 141.62 49.6801 141.88 48.0401L141.22 47.7601Z" fill="white"/>
<path d="M23.416 27.336V28.728H20.56V27.336H23.416ZM24.16 29.388V26.664H19.78V29.94H20.56V29.388H24.16ZM26.584 23.748H23.86C24.172 23.328 24.496 22.8 24.784 22.32L23.884 22.116C23.692 22.596 23.32 23.268 23.008 23.748H17.464V30.9H18.316V24.492H20.38C20.212 25.416 19.744 25.896 18.34 26.148C18.508 26.292 18.7 26.58 18.772 26.772C20.428 26.4 20.992 25.74 21.172 24.492H22.528V25.26C22.528 25.968 22.672 26.28 23.404 26.28H24.664C24.928 26.28 25.216 26.28 25.36 26.22C25.336 26.028 25.312 25.788 25.3 25.584C25.132 25.62 24.82 25.632 24.64 25.632H23.56C23.368 25.632 23.332 25.536 23.332 25.272V24.492H25.756V29.916C25.756 30.108 25.684 30.156 25.492 30.168C25.3 30.18 24.604 30.192 23.86 30.168C23.98 30.36 24.088 30.636 24.136 30.852C25.156 30.852 25.756 30.84 26.116 30.732C26.464 30.6 26.584 30.396 26.584 29.928V23.748ZM19.324 22.308C19.576 22.752 19.9 23.352 20.068 23.7L20.836 23.388C20.68 23.04 20.344 22.476 20.08 22.056L19.324 22.308ZM22.66 21.252C22.528 20.856 22.312 20.328 22.144 19.908L21.316 20.124C21.46 20.46 21.616 20.892 21.736 21.252H16.78V22.02H27.244V21.252H22.66ZM31.936 27.204L30.772 27.636V23.7H31.912V22.872H30.772V20.1H29.944V22.872H28.684V23.7H29.944V27.936C29.416 28.128 28.936 28.296 28.54 28.428L28.828 29.304C29.764 28.932 30.964 28.476 32.104 27.996L31.936 27.204ZM38.356 23.952C38.092 25.056 37.744 26.052 37.264 26.94C37.084 25.764 36.94 24.276 36.88 22.62H39.388V21.792H38.512L39.112 21.384C38.824 20.976 38.212 20.424 37.684 20.04L37.084 20.424C37.588 20.82 38.176 21.408 38.464 21.792H36.856C36.844 21.204 36.844 20.58 36.844 19.956H35.992C35.992 20.58 36.004 21.192 36.028 21.792H32.416V25.5C32.416 27.048 32.296 29.016 31.096 30.396C31.288 30.504 31.624 30.792 31.756 30.96C33.04 29.472 33.244 27.192 33.244 25.512V24.984H34.756C34.72 27.132 34.672 27.9 34.54 28.08C34.492 28.188 34.396 28.2 34.252 28.2C34.096 28.2 33.724 28.2 33.316 28.164C33.436 28.368 33.496 28.68 33.52 28.92C33.952 28.944 34.372 28.944 34.6 28.92C34.888 28.884 35.068 28.8 35.212 28.584C35.44 28.284 35.488 27.324 35.524 24.588C35.536 24.48 35.536 24.228 35.536 24.228H33.244V22.62H36.052C36.136 24.696 36.316 26.568 36.628 27.996C35.98 28.92 35.2 29.688 34.264 30.264C34.444 30.384 34.768 30.708 34.888 30.876C35.656 30.36 36.316 29.724 36.892 28.992C37.264 30.12 37.768 30.792 38.44 30.792C39.22 30.792 39.472 30.24 39.604 28.44C39.388 28.356 39.112 28.176 38.944 27.984C38.896 29.364 38.776 29.952 38.548 29.952C38.14 29.952 37.792 29.28 37.504 28.128C38.236 26.988 38.788 25.644 39.184 24.084L38.356 23.952ZM44.608 21.156V22.128H41.98V21.156H44.608ZM41.98 23.796V22.764H44.608V23.796H41.98ZM45.448 24.48V20.472H41.104V30.924H41.98V24.48H45.448ZM45.112 27.264V25.968H46.792V27.264H45.112ZM49.216 28.02V27.264H47.584V25.968H48.952V25.236H43.036V25.968H44.332V27.264H42.808V28.02H44.308C44.236 28.716 43.9 29.712 42.892 30.324C43.084 30.444 43.348 30.696 43.48 30.852C44.632 30.072 45.016 28.824 45.088 28.02H46.792V30.696H47.584V28.02H49.216ZM47.356 23.808V22.764H50.08V23.808H47.356ZM50.08 21.156V22.128H47.356V21.156H50.08ZM50.956 20.472H46.504V24.492H50.08V29.748C50.08 29.94 50.02 30.012 49.828 30.012C49.648 30.024 49 30.024 48.34 30C48.472 30.24 48.604 30.66 48.628 30.888C49.528 30.9 50.128 30.876 50.488 30.732C50.836 30.576 50.956 30.288 50.956 29.76V20.472ZM59.512 22.08H60.388V21.516H63.256V20.796H60.388V19.968H59.512V20.796H58.228V21.516H59.512V22.08ZM55.564 22.08H56.428V21.516H57.844V20.796H56.428V19.968H55.564V20.796H52.78V21.516H55.564V22.08ZM58.396 27.828V27.096H57.52V27.828H55.24C55.636 27.54 55.996 27.228 56.32 26.904H59.692C59.98 27.228 60.34 27.552 60.748 27.828H58.396ZM54.952 24.168H61.132V24.96H54.952V24.168ZM54.952 22.824H61.132V23.604H54.952V22.824ZM63.328 26.904V26.184H56.944C57.112 25.968 57.244 25.764 57.376 25.536H62.008V22.248H54.1V25.536H56.404C56.26 25.752 56.092 25.968 55.912 26.184H52.672V26.904H55.168C54.472 27.468 53.584 27.984 52.492 28.38C52.648 28.524 52.9 28.824 52.996 29.04C53.572 28.8 54.088 28.548 54.556 28.272V30.636H55.408V28.536H57.52V30.9H58.396V28.536H60.7V29.76C60.7 29.892 60.652 29.916 60.52 29.928C60.4 29.94 59.968 29.94 59.464 29.916C59.56 30.12 59.668 30.384 59.704 30.6C60.424 30.6 60.904 30.6 61.192 30.492C61.492 30.36 61.564 30.168 61.564 29.772V28.356C62.032 28.632 62.536 28.848 63.028 29.004C63.136 28.788 63.376 28.488 63.556 28.332C62.524 28.068 61.42 27.528 60.652 26.904H63.328ZM68.308 21.48V22.212H66.28V21.48H68.308ZM71.104 22.212H69.1V21.48H71.104V22.212ZM73.96 22.8V23.64H71.92V22.8H73.96ZM69.1 22.8H71.104V23.64H69.1V22.8ZM66.28 22.8H68.308V23.64H66.28V22.8ZM69.784 25.392L69.544 25.68C70.012 25.92 70.66 26.328 71.02 26.568L71.44 26.04C71.164 25.86 70.72 25.62 70.312 25.392H74.452C74.32 25.728 74.14 26.04 73.984 26.28L74.692 26.448C74.968 26.052 75.268 25.452 75.532 24.912L74.944 24.756L74.812 24.78H66.28V24.408V24.228H74.788V22.212H71.92V21.48H75.28V20.772H71.044C70.948 20.484 70.828 20.148 70.696 19.872L69.844 20.028C69.916 20.256 70.012 20.52 70.084 20.772H65.452V24.408C65.452 26.196 65.368 28.668 64.408 30.432C64.588 30.504 64.948 30.756 65.092 30.924C65.956 29.364 66.208 27.18 66.268 25.392H69.784ZM72.316 25.92C72.796 26.364 73.42 26.988 73.732 27.36L74.296 26.952C73.972 26.58 73.336 25.992 72.856 25.572L72.316 25.92ZM67.048 27.348C67.42 26.952 67.804 26.352 68.092 25.932L67.492 25.572C67.216 25.992 66.808 26.58 66.436 26.928L67.048 27.348ZM68.812 28.392H72.448C71.956 28.764 71.32 29.088 70.6 29.34C69.892 29.112 69.232 28.824 68.668 28.5L68.812 28.392ZM73.24 27.792L73.084 27.828H69.556C69.748 27.66 69.928 27.504 70.072 27.336H71.572C72.244 27.336 72.46 27.132 72.532 26.352C72.328 26.328 72.064 26.244 71.908 26.148C71.872 26.688 71.8 26.76 71.464 26.76H69.7C69.208 26.76 69.124 26.724 69.124 26.484V25.74H68.392V26.484C68.392 27.048 68.548 27.252 69.124 27.312C68.836 27.576 68.488 27.84 68.08 28.104C67.804 27.9 67.564 27.684 67.372 27.456L66.688 27.756C66.904 28.02 67.144 28.248 67.42 28.464C67 28.68 66.544 28.872 66.052 29.052C66.232 29.172 66.448 29.412 66.556 29.58C67.072 29.364 67.552 29.148 67.996 28.896C68.452 29.196 68.956 29.46 69.496 29.7C68.38 29.988 67.156 30.192 65.98 30.3C66.112 30.468 66.28 30.756 66.34 30.948C67.744 30.78 69.22 30.516 70.516 30.072C71.8 30.492 73.252 30.756 74.752 30.9C74.848 30.684 75.04 30.36 75.196 30.18C73.948 30.084 72.736 29.904 71.644 29.64C72.496 29.244 73.24 28.752 73.756 28.14L73.24 27.792ZM79.7396 30H84.5636V29.088H82.7996V21.204H81.9596C81.4796 21.48 80.9156 21.684 80.1356 21.828V22.524H81.6956V29.088H79.7396V30ZM85.4718 32.148H86.2758L89.8638 20.484H89.0718L85.4718 32.148ZM91.0951 30H95.9191V29.088H94.1551V21.204H93.3151C92.8351 21.48 92.2711 21.684 91.4911 21.828V22.524H93.0511V29.088H91.0951V30ZM97.2473 27.06H100.319V26.22H97.2473V27.06ZM101.911 30H106.735V29.088H104.971V21.204H104.131C103.651 21.48 103.087 21.684 102.307 21.828V22.524H103.867V29.088H101.911V30ZM108.04 30H113.572V29.052H111.136C110.692 29.052 110.152 29.1 109.696 29.136C111.76 27.18 113.14 25.392 113.14 23.64C113.14 22.068 112.156 21.036 110.584 21.036C109.468 21.036 108.712 21.552 107.992 22.332L108.628 22.956C109.108 22.38 109.732 21.936 110.452 21.936C111.544 21.936 112.072 22.668 112.072 23.676C112.072 25.188 110.8 26.94 108.04 29.352V30ZM114.3 32.148H115.104L118.692 20.484H117.9L114.3 32.148ZM122.035 30.156C123.595 30.156 124.855 29.22 124.855 27.648C124.855 26.448 124.027 25.656 122.983 25.416V25.368C123.919 25.02 124.555 24.312 124.555 23.244C124.555 21.828 123.475 21.036 121.999 21.036C120.979 21.036 120.199 21.48 119.539 22.092L120.127 22.788C120.619 22.296 121.243 21.936 121.951 21.912C122.863 21.936 123.439 22.476 123.439 23.328C123.439 24.276 122.815 25.008 121.003 25.008V25.848C123.031 25.848 123.739 26.556 123.739 27.612C123.739 28.62 122.995 29.244 121.951 29.244C120.955 29.244 120.283 28.776 119.767 28.236L119.215 28.956C119.791 29.58 120.655 30.156 122.035 30.156ZM126.579 30H131.403V29.088H129.639V21.204H128.799C128.319 21.48 127.755 21.684 126.975 21.828V22.524H128.535V29.088H126.579V30Z" fill="white"/>
<rect x="171" y="16" width="177" height="44" fill="white"/>
<path d="M206.499 35.4989V39.0443H200.947C201.159 37.8899 201.318 36.7356 201.425 35.4989H206.499ZM193.243 39.0443V35.4989H198.078C197.971 36.7356 197.865 37.8899 197.626 39.0443H193.243ZM200.628 30.2495C200.123 31.074 199.539 31.8985 198.954 32.6131H193.429C194.146 31.8435 194.757 31.074 195.368 30.2495H200.628ZM205.091 48.0314C204.081 48.0314 203.922 47.9215 203.922 46.9871V41.9575H209.846V32.6131H202.673C203.63 31.4038 204.559 30.0296 205.17 28.9028L202.965 27.4461L202.434 27.5835H197.148C197.413 27.1713 197.653 26.7315 197.865 26.3193L194.465 25.6597C193.083 28.408 190.56 31.6236 187 34.0422C187.744 34.5644 188.753 35.7187 189.231 36.5157C189.524 36.2959 189.816 36.076 190.082 35.8287V41.9575H196.723C195.448 44.7609 192.897 47.0695 187.452 48.4987C188.142 49.2132 188.886 50.4225 189.231 51.247C195.926 49.3232 198.821 45.9976 200.203 41.9575H200.628V47.042C200.628 49.9828 201.425 50.9447 204.613 50.9447H208.199C210.829 50.9447 211.652 49.8179 211.998 45.7778C211.147 45.5579 209.793 45.0357 209.129 44.5135C209.022 47.5367 208.836 48.0314 207.933 48.0314H205.091Z" fill="url(#paint1_angular)"/>
<path d="M234.923 29.0127V30.8266H231.098V29.7547H228.016V30.8266H223.925V29.0127H234.923ZM233.807 36.1035V37.2028H231.098V36.1035H233.807ZM233.807 40.1711H231.098V39.0717H233.807V40.1711ZM225.2 40.1711V39.0717H228.016V40.1711H225.2ZM225.2 36.1035H228.016V37.2028H225.2V36.1035ZM223.261 33.1078H228.016V34.0972H222.517V42.1499H228.016V43.1393H221.269V45.5029H228.016V47.3169H231.098V45.5029H237.925V43.1393H231.098V42.1499H236.623V34.0972H231.098V33.1078H235.189V32.0909H237.951V26.6216H221.03V32.0909H223.261V33.1078ZM219.701 30.3319C219.356 29.0951 218.665 27.2537 218.161 25.7696L215.371 26.6491C215.823 28.1332 216.54 30.1395 216.832 31.4038L219.701 30.3319ZM219.303 38.1373L218.851 38.2197H218.426C219.037 36.3234 219.728 34.1247 220.286 32.1733H213.99V35.0866H216.434C215.823 37.2303 215.106 39.429 214.468 41.0506H217.842C217.496 42.6721 216.992 44.4036 216.354 45.7778C215.451 46.3274 214.442 47.2619 213.485 48.4437L215.61 51.5494C216.248 49.9828 217.204 48.1139 217.815 48.1139C218.373 48.1139 219.303 49.0208 220.419 49.653C222.331 50.8073 224.563 51.1096 228.096 51.1096C231.204 51.1096 235.906 50.9172 238.084 50.7798C238.111 49.9003 238.642 48.3063 239.014 47.4268C236.065 47.8665 231.31 48.1414 228.255 48.1414C225.147 48.1414 222.65 47.9765 220.844 46.8496C220.18 46.4374 219.675 46.0801 219.276 45.8053C220.126 43.744 220.764 41.2979 221.162 39.0443L219.303 38.1373Z" fill="url(#paint2_angular)"/>
<path d="M255.192 37.6426C255.883 38.577 256.706 39.429 257.583 40.1986H247.621C248.577 39.4015 249.401 38.5495 250.145 37.6426H255.192ZM264.569 37.6426V34.7018H252.164C252.482 34.1247 252.775 33.575 253.067 32.9703H262.896V30.0846H259.522C260.133 29.2051 260.797 28.2157 261.435 27.1988L258.486 26.2643C258.008 27.3911 257.158 28.9302 256.441 30.0846H254.156C254.554 28.7379 254.873 27.3637 255.112 25.962L251.765 25.6322C251.606 27.1438 251.287 28.6554 250.782 30.0846H248.152L249.348 29.4524C248.976 28.4905 248.046 27.0888 247.223 26.0719L244.699 27.3362C245.31 28.1607 245.947 29.2051 246.399 30.0846H242.627V32.9703H249.481C249.135 33.575 248.79 34.1247 248.365 34.7018H241.006V37.6426H245.629C244.141 38.8793 242.388 39.9512 240.263 40.8307C240.953 41.4353 241.856 42.7271 242.202 43.5791C243.291 43.0844 244.247 42.5622 245.177 41.9575V43.1393H248.604C248.02 45.6678 246.612 47.4268 242.016 48.4987C242.68 49.1583 243.504 50.4775 243.796 51.302C249.481 49.7079 251.26 46.9321 251.925 43.1393H257.158C256.919 46.1625 256.653 47.4543 256.281 47.8665C255.989 48.1139 255.776 48.1963 255.325 48.1689C254.82 48.1963 253.704 48.1688 252.536 48.0589C253.04 48.8834 253.386 50.1752 253.439 51.1371C254.847 51.1921 256.122 51.1646 256.892 51.0546C257.769 50.9447 258.406 50.6974 258.991 50.0103C259.735 49.1583 260.107 46.9596 260.399 42.1224C261.408 42.6721 262.444 43.1118 263.56 43.4691C264.012 42.6446 264.888 41.4079 265.579 40.7757C263.082 40.1711 260.797 39.0443 259.071 37.6426H264.569Z" fill="url(#paint3_angular)"/>
<path d="M293.959 43.1482C293.959 43.8524 294.539 44.4209 295.257 44.4209C295.976 44.4209 296.556 43.8524 296.556 43.1482C296.556 42.444 295.976 41.8755 295.257 41.8755C294.539 41.8755 293.959 42.444 293.959 43.1482Z" fill="url(#paint4_angular)"/>
<path d="M308.643 38.9058L306.946 36.7846H304.781V38.9058H308.643Z" fill="url(#paint5_angular)"/>
<path d="M304.348 43.1482C304.348 43.8524 304.929 44.4209 305.647 44.4209C306.366 44.4209 306.946 43.8524 306.946 43.1482C306.946 42.444 306.366 41.8755 305.647 41.8755C304.929 41.8755 304.348 42.444 304.348 43.1482Z" fill="url(#paint6_angular)"/>
<path fill-rule="evenodd" clip-rule="evenodd" d="M279.977 25.0001H316.393V28.9508H318.344V25.0001H332V32.9124C331.893 32.9053 331.784 32.9016 331.675 32.9016C328.981 32.9016 326.798 35.1127 326.798 37.8401C326.798 40.5676 328.981 42.7786 331.675 42.7786C331.784 42.7786 331.893 42.775 332 42.7678V51.3386H279.977V42.7678C282.519 42.5984 284.529 40.4569 284.529 37.8401C284.529 35.2233 282.519 33.0819 279.977 32.9124V25.0001ZM318.344 30.9262H316.393V34.877H318.344V30.9262ZM316.393 36.8524H318.344V40.8032H316.393V36.8524ZM318.344 42.7786H316.393V46.7294H318.344V42.7786ZM316.393 48.7048H318.344V51.3386H316.393V48.7048ZM304.781 35.5119H307.379L309.976 38.9058V43.1482H308.245C308.245 44.5567 307.084 45.6936 305.647 45.6936C304.21 45.6936 303.05 44.5567 303.05 43.1482H297.855C297.855 44.5567 296.695 45.6936 295.257 45.6936C293.82 45.6936 292.66 44.5567 292.66 43.1482H290.928V33.8149C290.928 32.8816 291.708 32.118 292.66 32.118H304.781V35.5119Z" fill="url(#paint7_angular)"/>
<defs>
<linearGradient id="paint0_linear" x1="2.37487e-07" y1="38.0001" x2="495.18" y2="38.0001" gradientUnits="userSpaceOnUse">
<stop stop-color="#CF9F7F"/>
<stop offset="0.505208" stop-color="#E3BEA5"/>
<stop offset="1" stop-color="#CF9F7F"/>
</linearGradient>
<radialGradient id="paint1_angular" cx="0" cy="0" r="1" gradientUnits="userSpaceOnUse" gradientTransform="translate(346.943 34.1613) rotate(176.109) scale(160.312 936.884)">
<stop stop-color="#88654E"/>
<stop offset="1" stop-color="#A67E64"/>
</radialGradient>
<radialGradient id="paint2_angular" cx="0" cy="0" r="1" gradientUnits="userSpaceOnUse" gradientTransform="translate(346.943 34.1613) rotate(176.109) scale(160.312 936.884)">
<stop stop-color="#88654E"/>
<stop offset="1" stop-color="#A67E64"/>
</radialGradient>
<radialGradient id="paint3_angular" cx="0" cy="0" r="1" gradientUnits="userSpaceOnUse" gradientTransform="translate(346.943 34.1613) rotate(176.109) scale(160.312 936.884)">
<stop stop-color="#88654E"/>
<stop offset="1" stop-color="#A67E64"/>
</radialGradient>
<radialGradient id="paint4_angular" cx="0" cy="0" r="1" gradientUnits="userSpaceOnUse" gradientTransform="translate(346.943 34.1613) rotate(176.109) scale(160.312 936.884)">
<stop stop-color="#88654E"/>
<stop offset="1" stop-color="#A67E64"/>
</radialGradient>
<radialGradient id="paint5_angular" cx="0" cy="0" r="1" gradientUnits="userSpaceOnUse" gradientTransform="translate(346.943 34.1613) rotate(176.109) scale(160.312 936.884)">
<stop stop-color="#88654E"/>
<stop offset="1" stop-color="#A67E64"/>
</radialGradient>
<radialGradient id="paint6_angular" cx="0" cy="0" r="1" gradientUnits="userSpaceOnUse" gradientTransform="translate(346.943 34.1613) rotate(176.109) scale(160.312 936.884)">
<stop stop-color="#88654E"/>
<stop offset="1" stop-color="#A67E64"/>
</radialGradient>
<radialGradient id="paint7_angular" cx="0" cy="0" r="1" gradientUnits="userSpaceOnUse" gradientTransform="translate(346.943 34.1613) rotate(176.109) scale(160.312 936.884)">
<stop stop-color="#88654E"/>
<stop offset="1" stop-color="#A67E64"/>
</radialGradient>
</defs>
</svg>
