<svg width="1110" height="100" viewBox="0 0 1110 100" fill="none" xmlns="http://www.w3.org/2000/svg">
<rect width="1110" height="100" fill="url(#paint0_linear)"/>
<path d="M731.5 49.5C763 38 759 27.5912 802 17C845 6.40883 900.5 20.4088 900.5 20.4088V99.9088H620C663.5 46.9088 700 61 731.5 49.5Z" fill="#CF9F7F"/>
<path d="M822.205 33.4582C844.551 5.89263 875.076 0.332917 890.538 0H1110V100H702C708.484 87.5156 714.469 77.5281 742.401 64.5443C770.333 51.5606 794.274 67.9151 822.205 33.4582Z" fill="#E4BEA5"/>
<path d="M810 100C818 78.451 841.5 61.5107 866.5 57.0265C891.5 52.5423 914 10.3187 973.5 17.6648C1033 25.0109 1026 -2.76342 1059.5 0.2261L1110 0.226121V100H810Z" fill="#DCAD8E"/>
<path d="M60.472 45.388H43.588V47.944H60.472V45.388ZM42.256 65.584C40.528 66.016 38.8 66.484 37.108 66.916V58.6H41.212V56.08H37.108V48.16H41.788V45.676H29.836V48.16H34.516V56.08H30.304V58.6H34.516V67.564C32.536 68.068 30.772 68.536 29.332 68.896L29.944 71.452C33.4 70.516 38.08 69.184 42.58 67.924L42.256 65.584ZM57.016 73C56.26 73 56.116 72.856 56.116 71.848V58.312H62.38V55.72H42.004V58.312H46.828C46.468 66.304 45.46 71.2 38.188 73.828C38.764 74.26 39.484 75.232 39.736 75.844C47.62 72.82 48.988 67.204 49.42 58.312H53.488V71.884C53.488 74.692 54.136 75.52 56.656 75.52H59.752C61.984 75.52 62.668 74.188 62.884 69.22C62.164 69.04 61.048 68.608 60.508 68.104C60.4 72.316 60.256 73 59.5 73H57.016ZM80.74 43.408V72.028C80.74 72.748 80.452 73 79.696 73C79.012 73.036 76.42 73.072 73.792 72.964C74.224 73.72 74.728 74.98 74.908 75.736C78.256 75.772 80.488 75.7 81.784 75.268C83.044 74.8 83.584 74.008 83.584 72.028V43.408H80.74ZM89.344 52.48C92.404 57.628 95.284 64.324 96.148 68.572L98.956 67.384C98.056 63.1 95.032 56.548 91.864 51.508L89.344 52.48ZM71.344 51.76C70.48 56.584 68.5 62.776 65.296 66.556C66.016 66.844 67.168 67.492 67.816 67.96C71.056 63.964 73.144 57.52 74.296 52.3L71.344 51.76ZM123.724 54.316H130.096C129.232 55.288 128.188 56.332 127.216 57.016V59.5H122.32V61.696H127.216V68.032C127.216 68.392 127.108 68.5 126.676 68.5C126.244 68.536 124.912 68.536 123.4 68.5C123.76 69.148 124.12 70.084 124.228 70.768C126.244 70.768 127.576 70.732 128.404 70.336C129.34 69.94 129.556 69.292 129.556 68.068V61.696H134.38V59.5H129.556V57.664C131.068 56.404 132.688 54.748 133.876 53.2L132.364 52.084L131.932 52.228H123.868C124.408 51.328 124.912 50.284 125.416 49.204H134.38V46.936H126.28C126.712 45.784 127.072 44.524 127.396 43.336L125.092 42.76C124.3 46.324 122.824 49.888 120.952 52.228C121.528 52.552 122.428 53.272 122.896 53.668C123.184 53.308 123.472 52.912 123.724 52.48V54.316ZM113.5 53.956C113.5 58.276 113.104 64.252 109.756 68.752C110.296 69.076 111.088 69.76 111.484 70.228C114.616 66.124 115.48 60.796 115.696 56.332H119.188C118.9 64.504 118.504 67.492 117.928 68.212C117.712 68.608 117.424 68.68 117.028 68.644C116.596 68.644 115.66 68.644 114.616 68.536C114.904 69.148 115.12 70.084 115.192 70.804C116.308 70.84 117.388 70.84 118.072 70.768C118.864 70.66 119.44 70.408 119.944 69.724C120.808 68.608 121.168 65.224 121.564 55.216V54.1H115.732V53.992V50.032H122.248V47.728H118.216L118.504 47.656C118.144 46.396 117.316 44.416 116.596 42.904L114.256 43.372C114.796 44.74 115.516 46.468 115.912 47.728H110.404V50.032H113.5V53.956ZM109.108 48.484C108.28 47.008 106.516 44.704 105.004 42.94L102.988 43.984C104.392 45.784 106.156 48.268 106.984 49.816L109.108 48.484ZM109.216 59.968L108.784 60.04H105.22C107.164 57.628 109.72 53.848 111.124 51.76L109.324 50.968L108.82 51.184H101.8V53.38H107.344C105.868 55.576 103.852 58.42 103.096 59.248C102.484 59.896 101.944 60.148 101.404 60.292C101.692 60.832 102.196 62.092 102.376 62.74C102.664 62.452 103.6 62.236 104.5 62.236H107.74C106.66 67.744 104.32 71.74 101.188 73.972C101.728 74.332 102.592 75.268 102.952 75.808C104.68 74.476 106.228 72.64 107.452 70.3C110.26 74.44 114.76 75.16 122.176 75.16C126.1 75.16 130.6 75.088 133.984 74.872C134.092 74.152 134.452 72.964 134.848 72.388C131.212 72.712 125.992 72.856 122.212 72.856C115.3 72.856 110.764 72.316 108.46 68.14C109.324 65.944 110.008 63.388 110.44 60.472L109.216 59.968ZM170.164 49.456C169.228 47.944 167.428 45.46 166.024 43.588L164.044 44.56C165.448 46.468 167.176 49.096 168.04 50.608L170.164 49.456ZM146.764 50.788V53.164L142.336 53.596L142.552 55.216L146.764 54.784V55.432C146.764 57.376 147.16 58.24 149.248 58.24H153.352C154.144 58.24 155.116 58.204 155.548 58.06C155.476 57.52 155.404 56.98 155.368 56.404C154.864 56.548 153.784 56.584 153.244 56.584H149.788C149.104 56.584 148.996 56.332 148.996 55.468V54.568L152.92 54.172L152.704 52.624L148.996 52.984V50.788H154.72C154.504 51.904 154.216 53.02 153.964 53.812L155.908 54.28C156.412 52.984 156.952 50.968 157.348 49.168L155.764 48.808L155.368 48.88H148.744V46.972H156.34V45.1H148.744V42.868H146.26V48.88H139.312V58.888C139.312 63.352 139.132 69.472 137.116 73.864C137.656 74.116 138.592 74.8 138.988 75.268C141.22 70.624 141.58 63.676 141.58 58.888V50.788H146.764ZM156.844 59.464H142.732V61.336H156.844V59.464ZM145.756 64.36H153.424V66.88H145.756V64.36ZM155.62 68.428V62.812H143.668V68.428H155.62ZM168.004 56.26C167.14 59.356 165.7 62.452 163.9 65.26C163.468 62.452 163.072 59.068 162.784 55.216L170.524 54.244L170.2 51.868L162.64 52.84C162.424 49.744 162.316 46.468 162.28 43.048H159.796C159.904 46.576 160.012 49.996 160.192 53.128L156.988 53.56L157.348 55.936L160.372 55.54C160.696 60.364 161.236 64.612 161.956 67.924C160.3 69.976 158.428 71.704 156.448 72.892V71.848L152.776 72.172C153.316 71.2 153.892 70.084 154.396 69.004L152.164 68.572C151.804 69.652 151.12 71.2 150.58 72.388L148.204 72.604C147.916 71.488 147.34 69.94 146.872 68.716L144.964 69.076C145.396 70.192 145.828 71.632 146.116 72.784C144.46 72.928 142.948 73.036 141.688 73.144L141.976 75.232C145.828 74.872 151.264 74.332 156.448 73.828V72.964C157.132 73.432 157.852 74.152 158.32 74.728C159.868 73.72 161.38 72.316 162.748 70.732C163.792 73.864 165.196 75.7 167.104 75.736C168.4 75.772 169.696 74.26 170.38 68.68C169.912 68.428 168.904 67.816 168.472 67.276C168.22 70.732 167.752 72.676 167.104 72.676C166.132 72.604 165.268 71.056 164.62 68.428C166.924 65.116 168.832 61.228 170.02 57.376L168.004 56.26ZM189.64 49.636H181.684C181.72 47.584 181.756 45.496 181.756 43.372H179.128C179.128 45.496 179.128 47.584 179.092 49.636H174.052V52.264H179.02C178.732 61.264 177.652 69.22 173.188 73.936C173.836 74.332 174.808 75.196 175.204 75.772C180.064 70.516 181.288 61.912 181.612 52.264H187.048C186.796 66.052 186.472 70.948 185.644 71.956C185.392 72.46 185.032 72.568 184.456 72.532C183.808 72.532 182.26 72.532 180.604 72.388C181.072 73.144 181.324 74.296 181.396 75.088C182.98 75.196 184.636 75.196 185.608 75.052C186.688 74.944 187.336 74.62 187.984 73.684C189.1 72.136 189.352 66.916 189.64 51.004V49.636ZM195.112 70.012V49.924H202.096V70.012H195.112ZM192.592 47.332V75.196H195.112V72.568H202.096V74.944H204.76V47.332H192.592ZM219.304 68.824H214.696V58.06H219.304V68.824ZM221.644 71.164V55.756H214.804C215.56 53.02 216.136 50.068 216.604 47.044H223.012V44.596H209.872V47.044H214.048C213.148 53.272 211.636 59.14 209.008 62.992C209.512 63.532 210.34 64.792 210.592 65.332C211.24 64.396 211.852 63.352 212.392 62.236V74.116H214.696V71.164H221.644ZM223.3 74.116C225.028 72.172 225.676 68.824 226.036 65.728L224.02 65.224C223.696 68.176 222.976 71.272 221.428 73.036L223.3 74.116ZM227.476 66.34C227.872 68.428 228.088 71.164 228.016 72.964L229.996 72.64C230.032 70.876 229.744 68.176 229.312 66.052L227.476 66.34ZM231.292 66.052C232.012 67.816 232.66 70.084 232.876 71.596L234.712 71.056C234.46 69.58 233.776 67.276 233.02 65.584L231.292 66.052ZM226.972 57.7H231.94V61.12H226.972V57.7ZM231.94 46.756V50.032H226.972V46.756H231.94ZM231.94 55.54H226.972V52.192H231.94V55.54ZM234.316 61.12V57.7H240.328V55.54H234.316V52.192H240.328V50.032H234.316V46.756H241.156V44.416H224.524V63.46H239.356C239.032 69.976 238.6 72.496 238.024 73.18C237.7 73.504 237.448 73.576 236.872 73.576C236.332 73.576 234.892 73.54 233.38 73.396C233.74 74.044 233.992 75.016 234.028 75.7C235.648 75.808 237.16 75.808 237.988 75.736C238.96 75.664 239.536 75.412 240.112 74.728C241.012 73.684 241.444 70.588 241.84 62.236C241.876 61.876 241.876 61.12 241.876 61.12H234.316ZM238.816 68.824C238.348 67.708 237.34 65.944 236.332 64.648L234.856 65.26C235.792 66.592 236.836 68.392 237.268 69.58L238.816 68.824ZM264.412 48.448C263.692 47.008 262.288 44.668 261.136 42.976L258.904 43.804C260.02 45.604 261.388 48.016 262.036 49.456L264.412 48.448ZM277.732 69.076C275.392 66.88 270.892 63.316 267.364 60.58C267.436 60.328 267.508 60.004 267.58 59.716H277.732V57.232H267.94C267.976 56.692 267.976 56.224 267.976 55.72V52.048H276.904V49.564H271.324C272.404 47.836 273.592 45.64 274.6 43.732L271.936 42.868C271.144 44.884 269.848 47.62 268.66 49.564H257.104V52.048H265.348V55.684C265.348 56.188 265.348 56.692 265.312 57.232H255.988V59.716H264.916C264.16 62.884 261.928 66.376 255.628 69.04C256.24 69.508 257.068 70.408 257.428 70.948C262.432 68.608 265.096 65.728 266.5 62.92C269.884 65.584 273.808 68.86 275.86 70.948L277.732 69.076ZM253.432 48.448C252.496 46.936 250.696 44.668 249.148 42.904L247.096 44.02C248.608 45.82 250.444 48.34 251.308 49.852L253.432 48.448ZM253.396 59.968L252.928 60.04H249.184C251.164 57.628 253.828 53.92 255.268 51.796L253.504 51.004L253.072 51.184H245.8V53.38H251.452C249.94 55.576 247.852 58.456 247.024 59.284C246.448 59.932 245.872 60.148 245.332 60.292C245.62 60.868 246.16 62.092 246.34 62.74C246.592 62.452 247.528 62.236 248.428 62.236H251.92C250.804 67.78 248.464 71.74 245.224 73.972C245.764 74.332 246.664 75.268 246.988 75.808C248.716 74.512 250.3 72.712 251.524 70.372C254.332 74.44 258.868 75.16 266.176 75.16C270.1 75.16 274.6 75.088 277.984 74.872C278.092 74.152 278.452 72.964 278.848 72.388C275.212 72.712 269.992 72.856 266.212 72.856C259.372 72.856 254.836 72.28 252.532 68.248C253.432 66.052 254.116 63.424 254.584 60.472L253.396 59.968Z" fill="white"/>
<path d="M37.888 32.448V34.304H34.08V32.448H37.888ZM38.88 35.184V31.552H33.04V35.92H34.08V35.184H38.88ZM42.112 27.664H38.48C38.896 27.104 39.328 26.4 39.712 25.76L38.512 25.488C38.256 26.128 37.76 27.024 37.344 27.664H29.952V37.2H31.088V28.656H33.84C33.616 29.888 32.992 30.528 31.12 30.864C31.344 31.056 31.6 31.44 31.696 31.696C33.904 31.2 34.656 30.32 34.896 28.656H36.704V29.68C36.704 30.624 36.896 31.04 37.872 31.04H39.552C39.904 31.04 40.288 31.04 40.48 30.96C40.448 30.704 40.416 30.384 40.4 30.112C40.176 30.16 39.76 30.176 39.52 30.176H38.08C37.824 30.176 37.776 30.048 37.776 29.696V28.656H41.008V35.888C41.008 36.144 40.912 36.208 40.656 36.224C40.4 36.24 39.472 36.256 38.48 36.224C38.64 36.48 38.784 36.848 38.848 37.136C40.208 37.136 41.008 37.12 41.488 36.976C41.952 36.8 42.112 36.528 42.112 35.904V27.664ZM32.432 25.744C32.768 26.336 33.2 27.136 33.424 27.6L34.448 27.184C34.24 26.72 33.792 25.968 33.44 25.408L32.432 25.744ZM36.88 24.336C36.704 23.808 36.416 23.104 36.192 22.544L35.088 22.832C35.28 23.28 35.488 23.856 35.648 24.336H29.04V25.36H42.992V24.336H36.88ZM49.248 32.272L47.696 32.848V27.6H49.216V26.496H47.696V22.8H46.592V26.496H44.928V27.6H46.592V33.248C45.888 33.504 45.248 33.728 44.72 33.904L45.104 35.072C46.352 34.576 47.952 33.968 49.472 33.328L49.248 32.272ZM57.808 27.936C57.456 29.408 56.992 30.736 56.352 31.92C56.112 30.352 55.92 28.368 55.84 26.16H59.184V25.056H58.016L58.816 24.512C58.432 23.968 57.616 23.232 56.912 22.72L56.112 23.232C56.784 23.76 57.568 24.544 57.952 25.056H55.808C55.792 24.272 55.792 23.44 55.792 22.608H54.656C54.656 23.44 54.672 24.256 54.704 25.056H49.888V30C49.888 32.064 49.728 34.688 48.128 36.528C48.384 36.672 48.832 37.056 49.008 37.28C50.72 35.296 50.992 32.256 50.992 30.016V29.312H53.008C52.96 32.176 52.896 33.2 52.72 33.44C52.656 33.584 52.528 33.6 52.336 33.6C52.128 33.6 51.632 33.6 51.088 33.552C51.248 33.824 51.328 34.24 51.36 34.56C51.936 34.592 52.496 34.592 52.8 34.56C53.184 34.512 53.424 34.4 53.616 34.112C53.92 33.712 53.984 32.432 54.032 28.784C54.048 28.64 54.048 28.304 54.048 28.304H50.992V26.16H54.736C54.848 28.928 55.088 31.424 55.504 33.328C54.64 34.56 53.6 35.584 52.352 36.352C52.592 36.512 53.024 36.944 53.184 37.168C54.208 36.48 55.088 35.632 55.856 34.656C56.352 36.16 57.024 37.056 57.92 37.056C58.96 37.056 59.296 36.32 59.472 33.92C59.184 33.808 58.816 33.568 58.592 33.312C58.528 35.152 58.368 35.936 58.064 35.936C57.52 35.936 57.056 35.04 56.672 33.504C57.648 31.984 58.384 30.192 58.912 28.112L57.808 27.936ZM66.144 24.208V25.504H62.64V24.208H66.144ZM62.64 27.728V26.352H66.144V27.728H62.64ZM67.264 28.64V23.296H61.472V37.232H62.64V28.64H67.264ZM66.816 32.352V30.624H69.056V32.352H66.816ZM72.288 33.36V32.352H70.112V30.624H71.936V29.648H64.048V30.624H65.776V32.352H63.744V33.36H65.744C65.648 34.288 65.2 35.616 63.856 36.432C64.112 36.592 64.464 36.928 64.64 37.136C66.176 36.096 66.688 34.432 66.784 33.36H69.056V36.928H70.112V33.36H72.288ZM69.808 27.744V26.352H73.44V27.744H69.808ZM73.44 24.208V25.504H69.808V24.208H73.44ZM74.608 23.296H68.672V28.656H73.44V35.664C73.44 35.92 73.36 36.016 73.104 36.016C72.864 36.032 72 36.032 71.12 36C71.296 36.32 71.472 36.88 71.504 37.184C72.704 37.2 73.504 37.168 73.984 36.976C74.448 36.768 74.608 36.384 74.608 35.68V23.296ZM86.016 25.44H87.184V24.688H91.008V23.728H87.184V22.624H86.016V23.728H84.304V24.688H86.016V25.44ZM80.752 25.44H81.904V24.688H83.792V23.728H81.904V22.624H80.752V23.728H77.04V24.688H80.752V25.44ZM84.528 33.104V32.128H83.36V33.104H80.32C80.848 32.72 81.328 32.304 81.76 31.872H86.256C86.64 32.304 87.12 32.736 87.664 33.104H84.528ZM79.936 28.224H88.176V29.28H79.936V28.224ZM79.936 26.432H88.176V27.472H79.936V26.432ZM91.104 31.872V30.912H82.592C82.816 30.624 82.992 30.352 83.168 30.048H89.344V25.664H78.8V30.048H81.872C81.68 30.336 81.456 30.624 81.216 30.912H76.896V31.872H80.224C79.296 32.624 78.112 33.312 76.656 33.84C76.864 34.032 77.2 34.432 77.328 34.72C78.096 34.4 78.784 34.064 79.408 33.696V36.848H80.544V34.048H83.36V37.2H84.528V34.048H87.6V35.68C87.6 35.856 87.536 35.888 87.36 35.904C87.2 35.92 86.624 35.92 85.952 35.888C86.08 36.16 86.224 36.512 86.272 36.8C87.232 36.8 87.872 36.8 88.256 36.656C88.656 36.48 88.752 36.224 88.752 35.696V33.808C89.376 34.176 90.048 34.464 90.704 34.672C90.848 34.384 91.168 33.984 91.408 33.776C90.032 33.424 88.56 32.704 87.536 31.872H91.104ZM97.744 24.64V25.616H95.04V24.64H97.744ZM101.472 25.616H98.8V24.64H101.472V25.616ZM105.28 26.4V27.52H102.56V26.4H105.28ZM98.8 26.4H101.472V27.52H98.8V26.4ZM95.04 26.4H97.744V27.52H95.04V26.4ZM99.712 29.856L99.392 30.24C100.016 30.56 100.88 31.104 101.36 31.424L101.92 30.72C101.552 30.48 100.96 30.16 100.416 29.856H105.936C105.76 30.304 105.52 30.72 105.312 31.04L106.256 31.264C106.624 30.736 107.024 29.936 107.376 29.216L106.592 29.008L106.416 29.04H95.04V28.544V28.304H106.384V25.616H102.56V24.64H107.04V23.696H101.392C101.264 23.312 101.104 22.864 100.928 22.496L99.792 22.704C99.888 23.008 100.016 23.36 100.112 23.696H93.936V28.544C93.936 30.928 93.824 34.224 92.544 36.576C92.784 36.672 93.264 37.008 93.456 37.232C94.608 35.152 94.944 32.24 95.024 29.856H99.712ZM103.104 30.56C103.744 31.136 104.576 31.968 104.992 32.48L105.728 31.92C105.312 31.44 104.464 30.656 103.824 30.096L103.104 30.56ZM96.08 32.464C96.56 31.936 97.072 31.136 97.456 30.576L96.656 30.096C96.288 30.656 95.744 31.44 95.248 31.904L96.08 32.464ZM98.416 33.856H103.264C102.608 34.352 101.76 34.784 100.8 35.12C99.856 34.816 98.976 34.432 98.224 34L98.416 33.856ZM104.32 33.056L104.112 33.104H99.408C99.664 32.88 99.904 32.672 100.096 32.448H102.096C102.992 32.448 103.28 32.176 103.376 31.136C103.104 31.104 102.752 30.992 102.544 30.864C102.496 31.584 102.4 31.68 101.952 31.68H99.6C98.944 31.68 98.832 31.632 98.832 31.312V30.32H97.856V31.312C97.856 32.048 98.064 32.336 98.832 32.416C98.448 32.768 97.984 33.12 97.44 33.472C97.072 33.2 96.752 32.912 96.496 32.608L95.584 33.008C95.872 33.36 96.192 33.664 96.56 33.952C96 34.24 95.392 34.496 94.736 34.736C94.976 34.896 95.264 35.216 95.408 35.44C96.096 35.152 96.736 34.864 97.328 34.528C97.936 34.928 98.608 35.28 99.328 35.6C97.84 35.984 96.208 36.256 94.64 36.4C94.816 36.624 95.04 37.008 95.12 37.264C96.992 37.04 98.96 36.688 100.704 36.096C102.4 36.656 104.336 37.008 106.336 37.2C106.464 36.912 106.72 36.48 106.944 36.24C105.264 36.112 103.648 35.872 102.192 35.52C103.328 34.992 104.32 34.336 105.008 33.52L104.32 33.056ZM112.986 36H119.418V34.784H117.066V24.256H115.946C115.306 24.64 114.554 24.912 113.514 25.104V26.032H115.594V34.784H112.986V36ZM120.629 38.864H121.701L126.485 23.296H125.429L120.629 38.864ZM128.127 36H134.559V34.784H132.207V24.256H131.087C130.447 24.64 129.695 24.912 128.655 25.104V26.032H130.735V34.784H128.127V36ZM136.33 32.08H140.426V30.96H136.33V32.08ZM142.549 36H148.981V34.784H146.629V24.256H145.509C144.869 24.64 144.117 24.912 143.077 25.104V26.032H145.157V34.784H142.549V36ZM150.72 36H158.096V34.736H154.848C154.256 34.736 153.536 34.8 152.928 34.848C155.68 32.24 157.52 29.856 157.52 27.52C157.52 25.424 156.208 24.048 154.112 24.048C152.624 24.048 151.616 24.736 150.656 25.776L151.504 26.608C152.144 25.84 152.976 25.248 153.936 25.248C155.392 25.248 156.096 26.224 156.096 27.568C156.096 29.584 154.4 31.92 150.72 35.136V36ZM159.067 38.864H160.139L164.923 23.296H163.867L159.067 38.864ZM169.38 36.208C171.46 36.208 173.14 34.96 173.14 32.864C173.14 31.264 172.036 30.208 170.66 29.888V29.824C171.892 29.36 172.74 28.416 172.74 26.992C172.74 25.136 171.3 24.048 169.332 24.048C167.972 24.048 166.932 24.64 166.052 25.456L166.836 26.384C167.492 25.712 168.324 25.248 169.268 25.248C170.484 25.248 171.252 25.984 171.252 27.104C171.252 28.368 170.42 29.344 168.004 29.344V30.464C170.708 30.464 171.652 31.408 171.652 32.8C171.652 34.16 170.66 34.992 169.268 34.992C167.94 34.992 167.044 34.368 166.356 33.648L165.62 34.608C166.388 35.44 167.54 36.208 169.38 36.208ZM175.439 36H181.871V34.784H179.519V24.256H178.399C177.759 24.64 177.007 24.912 175.967 25.104V26.032H178.047V34.784H175.439V36Z" fill="white"/>
<rect x="323" y="24" width="259" height="52" fill="white"/>
<path fill-rule="evenodd" clip-rule="evenodd" d="M525.817 32V36.1578H528.18V32H545.118L545.118 43.4231C541.637 43.4231 538.816 46.2448 538.816 49.7255C538.816 53.2063 541.637 56.028 545.118 56.028L545.118 67.4511H528.18V66.3131H525.817V67.4511H474.216L474.216 56.028C477.697 56.028 480.518 53.2063 480.518 49.7255C480.518 46.2448 477.697 43.4231 474.216 43.4231V32H525.817ZM525.817 38.4775V43.1167H528.18V38.4775H525.817ZM525.817 45.4364V50.0757H528.18V45.4364H525.817ZM525.817 52.3953V57.0346H528.18V52.3953H525.817ZM525.817 59.3542V63.9935H528.18V59.3542H525.817ZM494.163 52.8543C497.429 52.8543 499.74 50.2189 499.74 45.7053C499.74 41.222 497.429 38.6471 494.163 38.6471C490.898 38.6471 488.618 41.222 488.618 45.7053C488.618 50.2189 490.898 52.8543 494.163 52.8543ZM494.163 50.34C492.839 50.34 491.822 49.0072 491.822 45.7053C491.822 42.4034 492.839 41.1614 494.163 41.1614C495.488 41.1614 496.536 42.4034 496.536 45.7053C496.536 49.0072 495.488 50.34 494.163 50.34ZM494.934 61.9118H497.583L509.999 38.6471H507.318L494.934 61.9118ZM510.738 61.9118C513.973 61.9118 516.314 59.2461 516.314 54.7628C516.314 50.2492 513.973 47.6743 510.738 47.6743C507.503 47.6743 505.193 50.2492 505.193 54.7628C505.193 59.2461 507.503 61.9118 510.738 61.9118ZM510.738 59.3673C509.413 59.3673 508.366 58.0647 508.366 54.7628C508.366 51.4609 509.413 50.1886 510.738 50.1886C512.063 50.1886 513.11 51.4609 513.11 54.7628C513.11 58.0647 512.063 59.3673 510.738 59.3673ZM463.884 48.8215V44.7501H445.826C446.29 43.9508 446.715 43.19 447.141 42.3529H461.448V38.3571H456.537C457.426 37.1394 458.393 35.7695 459.321 34.3617L455.029 33.068C454.333 34.6281 453.096 36.7589 452.052 38.3571H448.726C449.306 36.4928 449.77 34.5899 450.118 32.6493L445.246 32.1927C445.014 34.2857 444.55 36.3783 443.815 38.3571H439.987L441.727 37.4818C441.186 36.15 439.832 34.2094 438.634 32.8016L434.96 34.5518C435.85 35.6935 436.778 37.1394 437.435 38.3571H431.944V42.3529H441.92C441.418 43.19 440.915 43.9508 440.297 44.7501H429.585V48.8215H436.314C434.148 50.5338 431.596 52.0179 428.503 53.2356C429.508 54.0727 430.823 55.8614 431.325 57.0409C432.911 56.3561 434.303 55.6331 435.656 54.7957V56.4321H440.645C439.794 59.9328 437.744 62.3682 431.055 63.8523C432.022 64.7657 433.22 66.5922 433.646 67.7336C441.92 65.5268 444.511 61.6834 445.478 56.4321H453.096C452.748 60.618 452.361 62.4063 451.82 62.977C451.394 63.3198 451.085 63.4339 450.427 63.3957C449.693 63.4339 448.069 63.3957 446.367 63.2434C447.102 64.3851 447.605 66.1735 447.682 67.5053C449.731 67.5816 451.587 67.5435 452.709 67.3912C453.985 67.2389 454.913 66.8965 455.764 65.9452C456.846 64.7657 457.388 61.7215 457.813 55.0243C459.282 55.7851 460.79 56.3939 462.415 56.8886C463.072 55.7473 464.348 54.0349 465.353 53.1596C461.719 52.3225 458.393 50.7624 455.88 48.8215H463.884ZM450.234 48.8215C451.24 50.1155 452.438 51.295 453.714 52.3604H439.214C440.606 51.2572 441.805 50.0773 442.887 48.8215H450.234ZM404.142 48.2508C402.673 48.6314 401.203 49.0119 399.695 49.3925V43.7225H404.413V39.5369H399.695V32.421H395.171V39.5369H390.454V43.7225H395.171V50.496C393.199 50.9907 391.343 51.3713 389.796 51.6755L390.918 56.0137C391.569 55.8438 392.25 55.674 392.953 55.4994L393.456 55.375C394.015 55.2369 394.587 55.0953 395.171 54.948V62.977C395.171 63.5099 394.939 63.6622 394.436 63.7H394.436C393.934 63.7 392.348 63.7 390.84 63.624C391.382 64.8035 392 66.63 392.116 67.7717C394.823 67.7717 396.679 67.6576 397.955 66.9728C399.27 66.2876 399.695 65.1841 399.695 62.977V53.7685C400.244 53.6178 400.796 53.4672 401.349 53.3166C402.472 53.0107 403.595 52.7044 404.683 52.3985L404.142 48.2508ZM368.551 65.1463C374.351 65.1463 378.179 61.8735 378.179 57.6116C378.179 53.7685 376.014 51.4854 373.384 50.0773V49.8872C375.279 48.5554 377.058 46.2342 377.058 43.4561C377.058 38.9659 373.81 35.9599 368.744 35.9599C363.756 35.9599 360.121 38.8518 360.121 43.3801C360.121 46.3861 361.707 48.5172 363.911 50.0773V50.2677C361.243 51.6755 359 53.9968 359 57.6116C359 62.0258 363.099 65.1463 368.551 65.1463ZM370.368 48.5172C367.352 47.3377 365.148 46.0437 365.148 43.3801C365.148 41.1349 366.695 39.8794 368.628 39.8794C371.026 39.8794 372.418 41.5154 372.418 43.7988C372.418 45.473 371.76 47.0713 370.368 48.5172ZM368.706 61.1887C366.038 61.1887 363.911 59.5523 363.911 57.0028C363.911 54.9102 364.994 53.0073 366.54 51.7897C370.252 53.2738 372.882 54.4915 372.882 57.4215C372.882 59.8569 371.103 61.1887 368.706 61.1887ZM410.561 45.0165H426.067V49.3162H420.46V67.7717H415.897V49.3162H410.522C410.406 55.671 409.517 62.2162 405.727 68C404.838 67.0106 403.253 65.7929 402.015 65.07C405.573 59.248 405.998 52.9314 405.998 47.2614V35.9217C411.644 35.1988 417.908 33.9811 421.968 32.6493L424.713 36.4546C420.653 37.6723 415.433 38.5854 410.561 39.2324V45.0165Z" fill="url(#paint1_angular)"/>
<defs>
<linearGradient id="paint0_linear" x1="5.16884e-07" y1="50" x2="1077.74" y2="50" gradientUnits="userSpaceOnUse">
<stop stop-color="#CF9F7F"/>
<stop offset="0.505208" stop-color="#E3BEA5"/>
<stop offset="1" stop-color="#CF9F7F"/>
</linearGradient>
<radialGradient id="paint1_angular" cx="0" cy="0" r="1" gradientUnits="userSpaceOnUse" gradientTransform="translate(588.499 42.869) rotate(177.325) scale(232.952 1191.51)">
<stop stop-color="#88654E"/>
<stop offset="1" stop-color="#A67E64"/>
</radialGradient>
</defs>
</svg>
