<svg width="510" height="76" viewBox="0 0 510 76" fill="none" xmlns="http://www.w3.org/2000/svg">
<rect width="510" height="76" fill="url(#paint0_linear)"/>
<path d="M34.04 38.6601H24.66V40.0801H34.04V38.6601ZM23.92 49.8801C22.96 50.1201 22 50.3801 21.06 50.6201V46.0001H23.34V44.6001H21.06V40.2001H23.66V38.8201H17.02V40.2001H19.62V44.6001H17.28V46.0001H19.62V50.9801C18.52 51.2601 17.54 51.5201 16.74 51.7201L17.08 53.1401C19 52.6201 21.6 51.8801 24.1 51.1801L23.92 49.8801ZM32.12 54.0001C31.7 54.0001 31.62 53.9201 31.62 53.3601V45.8401H35.1V44.4001H23.78V45.8401H26.46C26.26 50.2801 25.7 53.0001 21.66 54.4601C21.98 54.7001 22.38 55.2401 22.52 55.5801C26.9 53.9001 27.66 50.7801 27.9 45.8401H30.16V53.3801C30.16 54.9401 30.52 55.4001 31.92 55.4001H33.64C34.88 55.4001 35.26 54.6601 35.38 51.9001C34.98 51.8001 34.36 51.5601 34.06 51.2801C34 53.6201 33.92 54.0001 33.5 54.0001H32.12ZM45.3 37.5601V53.4601C45.3 53.8601 45.14 54.0001 44.72 54.0001C44.34 54.0201 42.9 54.0401 41.44 53.9801C41.68 54.4001 41.96 55.1001 42.06 55.5201C43.92 55.5401 45.16 55.5001 45.88 55.2601C46.58 55.0001 46.88 54.5601 46.88 53.4601V37.5601H45.3ZM50.08 42.6001C51.78 45.4601 53.38 49.1801 53.86 51.5401L55.42 50.8801C54.92 48.5001 53.24 44.8601 51.48 42.0601L50.08 42.6001ZM40.08 42.2001C39.6 44.8801 38.5 48.3201 36.72 50.4201C37.12 50.5801 37.76 50.9401 38.12 51.2001C39.92 48.9801 41.08 45.4001 41.72 42.5001L40.08 42.2001ZM69.18 43.6201H72.72C72.24 44.1601 71.66 44.7401 71.12 45.1201V46.5001H68.4V47.7201H71.12V51.2401C71.12 51.4401 71.06 51.5001 70.82 51.5001C70.58 51.5201 69.84 51.5201 69 51.5001C69.2 51.8601 69.4 52.3801 69.46 52.7601C70.58 52.7601 71.32 52.7401 71.78 52.5201C72.3 52.3001 72.42 51.9401 72.42 51.2601V47.7201H75.1V46.5001H72.42V45.4801C73.26 44.7801 74.16 43.8601 74.82 43.0001L73.98 42.3801L73.74 42.4601H69.26C69.56 41.9601 69.84 41.3801 70.12 40.7801H75.1V39.5201H70.6C70.84 38.8801 71.04 38.1801 71.22 37.5201L69.94 37.2001C69.5 39.1801 68.68 41.1601 67.64 42.4601C67.96 42.6401 68.46 43.0401 68.72 43.2601C68.88 43.0601 69.04 42.8401 69.18 42.6001V43.6201ZM63.5 43.4201C63.5 45.8201 63.28 49.1401 61.42 51.6401C61.72 51.8201 62.16 52.2001 62.38 52.4601C64.12 50.1801 64.6 47.2201 64.72 44.7401H66.66C66.5 49.2801 66.28 50.9401 65.96 51.3401C65.84 51.5601 65.68 51.6001 65.46 51.5801C65.22 51.5801 64.7 51.5801 64.12 51.5201C64.28 51.8601 64.4 52.3801 64.44 52.7801C65.06 52.8001 65.66 52.8001 66.04 52.7601C66.48 52.7001 66.8 52.5601 67.08 52.1801C67.56 51.5601 67.76 49.6801 67.98 44.1201V43.5001H64.74V43.4401V41.2401H68.36V39.9601H66.12L66.28 39.9201C66.08 39.2201 65.62 38.1201 65.22 37.2801L63.92 37.5401C64.22 38.3001 64.62 39.2601 64.84 39.9601H61.78V41.2401H63.5V43.4201ZM61.06 40.3801C60.6 39.5601 59.62 38.2801 58.78 37.3001L57.66 37.8801C58.44 38.8801 59.42 40.2601 59.88 41.1201L61.06 40.3801ZM61.12 46.7601L60.88 46.8001H58.9C59.98 45.4601 61.4 43.3601 62.18 42.2001L61.18 41.7601L60.9 41.8801H57V43.1001H60.08C59.26 44.3201 58.14 45.9001 57.72 46.3601C57.38 46.7201 57.08 46.8601 56.78 46.9401C56.94 47.2401 57.22 47.9401 57.32 48.3001C57.48 48.1401 58 48.0201 58.5 48.0201H60.3C59.7 51.0801 58.4 53.3001 56.66 54.5401C56.96 54.7401 57.44 55.2601 57.64 55.5601C58.6 54.8201 59.46 53.8001 60.14 52.5001C61.7 54.8001 64.2 55.2001 68.32 55.2001C70.5 55.2001 73 55.1601 74.88 55.0401C74.94 54.6401 75.14 53.9801 75.36 53.6601C73.34 53.8401 70.44 53.9201 68.34 53.9201C64.5 53.9201 61.98 53.6201 60.7 51.3001C61.18 50.0801 61.56 48.6601 61.8 47.0401L61.12 46.7601ZM94.98 40.9201C94.46 40.0801 93.46 38.7001 92.68 37.6601L91.58 38.2001C92.36 39.2601 93.32 40.7201 93.8 41.5601L94.98 40.9201ZM81.98 41.6601V42.9801L79.52 43.2201L79.64 44.1201L81.98 43.8801V44.2401C81.98 45.3201 82.2 45.8001 83.36 45.8001H85.64C86.08 45.8001 86.62 45.7801 86.86 45.7001C86.82 45.4001 86.78 45.1001 86.76 44.7801C86.48 44.8601 85.88 44.8801 85.58 44.8801H83.66C83.28 44.8801 83.22 44.7401 83.22 44.2601V43.7601L85.4 43.5401L85.28 42.6801L83.22 42.8801V41.6601H86.4C86.28 42.2801 86.12 42.9001 85.98 43.3401L87.06 43.6001C87.34 42.8801 87.64 41.7601 87.86 40.7601L86.98 40.5601L86.76 40.6001H83.08V39.5401H87.3V38.5001H83.08V37.2601H81.7V40.6001H77.84V46.1601C77.84 48.6401 77.74 52.0401 76.62 54.4801C76.92 54.6201 77.44 55.0001 77.66 55.2601C78.9 52.6801 79.1 48.8201 79.1 46.1601V41.6601H81.98ZM87.58 46.4801H79.74V47.5201H87.58V46.4801ZM81.42 49.2001H85.68V50.6001H81.42V49.2001ZM86.9 51.4601V48.3401H80.26V51.4601H86.9ZM93.78 44.7001C93.3 46.4201 92.5 48.1401 91.5 49.7001C91.26 48.1401 91.04 46.2601 90.88 44.1201L95.18 43.5801L95 42.2601L90.8 42.8001C90.68 41.0801 90.62 39.2601 90.6 37.3601H89.22C89.28 39.3201 89.34 41.2201 89.44 42.9601L87.66 43.2001L87.86 44.5201L89.54 44.3001C89.72 46.9801 90.02 49.3401 90.42 51.1801C89.5 52.3201 88.46 53.2801 87.36 53.9401V53.3601L85.32 53.5401C85.62 53.0001 85.94 52.3801 86.22 51.7801L84.98 51.5401C84.78 52.1401 84.4 53.0001 84.1 53.6601L82.78 53.7801C82.62 53.1601 82.3 52.3001 82.04 51.6201L80.98 51.8201C81.22 52.4401 81.46 53.2401 81.62 53.8801C80.7 53.9601 79.86 54.0201 79.16 54.0801L79.32 55.2401C81.46 55.0401 84.48 54.7401 87.36 54.4601V53.9801C87.74 54.2401 88.14 54.6401 88.4 54.9601C89.26 54.4001 90.1 53.6201 90.86 52.7401C91.44 54.4801 92.22 55.5001 93.28 55.5201C94 55.5401 94.72 54.7001 95.1 51.6001C94.84 51.4601 94.28 51.1201 94.04 50.8201C93.9 52.7401 93.64 53.8201 93.28 53.8201C92.74 53.7801 92.26 52.9201 91.9 51.4601C93.18 49.6201 94.24 47.4601 94.9 45.3201L93.78 44.7001ZM105.8 41.0201H101.38C101.4 39.8801 101.42 38.7201 101.42 37.5401H99.96C99.96 38.7201 99.96 39.8801 99.94 41.0201H97.14V42.4801H99.9C99.74 47.4801 99.14 51.9001 96.66 54.5201C97.02 54.7401 97.56 55.2201 97.78 55.5401C100.48 52.6201 101.16 47.8401 101.34 42.4801H104.36C104.22 50.1401 104.04 52.8601 103.58 53.4201C103.44 53.7001 103.24 53.7601 102.92 53.7401C102.56 53.7401 101.7 53.7401 100.78 53.6601C101.04 54.0801 101.18 54.7201 101.22 55.1601C102.1 55.2201 103.02 55.2201 103.56 55.1401C104.16 55.0801 104.52 54.9001 104.88 54.3801C105.5 53.5201 105.64 50.6201 105.8 41.7801V41.0201ZM108.84 52.3401V41.1801H112.72V52.3401H108.84ZM107.44 39.7401V55.2201H108.84V53.7601H112.72V55.0801H114.2V39.7401H107.44ZM122.28 51.6801H119.72V45.7001H122.28V51.6801ZM123.58 52.9801V44.4201H119.78C120.2 42.9001 120.52 41.2601 120.78 39.5801H124.34V38.2201H117.04V39.5801H119.36C118.86 43.0401 118.02 46.3001 116.56 48.4401C116.84 48.7401 117.3 49.4401 117.44 49.7401C117.8 49.2201 118.14 48.6401 118.44 48.0201V54.6201H119.72V52.9801H123.58ZM124.5 54.6201C125.46 53.5401 125.82 51.6801 126.02 49.9601L124.9 49.6801C124.72 51.3201 124.32 53.0401 123.46 54.0201L124.5 54.6201ZM126.82 50.3001C127.04 51.4601 127.16 52.9801 127.12 53.9801L128.22 53.8001C128.24 52.8201 128.08 51.3201 127.84 50.1401L126.82 50.3001ZM128.94 50.1401C129.34 51.1201 129.7 52.3801 129.82 53.2201L130.84 52.9201C130.7 52.1001 130.32 50.8201 129.9 49.8801L128.94 50.1401ZM126.54 45.5001H129.3V47.4001H126.54V45.5001ZM129.3 39.4201V41.2401H126.54V39.4201H129.3ZM129.3 44.3001H126.54V42.4401H129.3V44.3001ZM130.62 47.4001V45.5001H133.96V44.3001H130.62V42.4401H133.96V41.2401H130.62V39.4201H134.42V38.1201H125.18V48.7001H133.42C133.24 52.3201 133 53.7201 132.68 54.1001C132.5 54.2801 132.36 54.3201 132.04 54.3201C131.74 54.3201 130.94 54.3001 130.1 54.2201C130.3 54.5801 130.44 55.1201 130.46 55.5001C131.36 55.5601 132.2 55.5601 132.66 55.5201C133.2 55.4801 133.52 55.3401 133.84 54.9601C134.34 54.3801 134.58 52.6601 134.8 48.0201C134.82 47.8201 134.82 47.4001 134.82 47.4001H130.62ZM133.12 51.6801C132.86 51.0601 132.3 50.0801 131.74 49.3601L130.92 49.7001C131.44 50.4401 132.02 51.4401 132.26 52.1001L133.12 51.6801ZM147.34 40.3601C146.94 39.5601 146.16 38.2601 145.52 37.3201L144.28 37.7801C144.9 38.7801 145.66 40.1201 146.02 40.9201L147.34 40.3601ZM154.74 51.8201C153.44 50.6001 150.94 48.6201 148.98 47.1001C149.02 46.9601 149.06 46.7801 149.1 46.6201H154.74V45.2401H149.3C149.32 44.9401 149.32 44.6801 149.32 44.4001V42.3601H154.28V40.9801H151.18C151.78 40.0201 152.44 38.8001 153 37.7401L151.52 37.2601C151.08 38.3801 150.36 39.9001 149.7 40.9801H143.28V42.3601H147.86V44.3801C147.86 44.6601 147.86 44.9401 147.84 45.2401H142.66V46.6201H147.62C147.2 48.3801 145.96 50.3201 142.46 51.8001C142.8 52.0601 143.26 52.5601 143.46 52.8601C146.24 51.5601 147.72 49.9601 148.5 48.4001C150.38 49.8801 152.56 51.7001 153.7 52.8601L154.74 51.8201ZM141.24 40.3601C140.72 39.5201 139.72 38.2601 138.86 37.2801L137.72 37.9001C138.56 38.9001 139.58 40.3001 140.06 41.1401L141.24 40.3601ZM141.22 46.7601L140.96 46.8001H138.88C139.98 45.4601 141.46 43.4001 142.26 42.2201L141.28 41.7801L141.04 41.8801H137V43.1001H140.14C139.3 44.3201 138.14 45.9201 137.68 46.3801C137.36 46.7401 137.04 46.8601 136.74 46.9401C136.9 47.2601 137.2 47.9401 137.3 48.3001C137.44 48.1401 137.96 48.0201 138.46 48.0201H140.4C139.78 51.1001 138.48 53.3001 136.68 54.5401C136.98 54.7401 137.48 55.2601 137.66 55.5601C138.62 54.8401 139.5 53.8401 140.18 52.5401C141.74 54.8001 144.26 55.2001 148.32 55.2001C150.5 55.2001 153 55.1601 154.88 55.0401C154.94 54.6401 155.14 53.9801 155.36 53.6601C153.34 53.8401 150.44 53.9201 148.34 53.9201C144.54 53.9201 142.02 53.6001 140.74 51.3601C141.24 50.1401 141.62 48.6801 141.88 47.0401L141.22 46.7601Z" fill="white"/>
<path d="M23.416 26.336V27.728H20.56V26.336H23.416ZM24.16 28.388V25.664H19.78V28.94H20.56V28.388H24.16ZM26.584 22.748H23.86C24.172 22.328 24.496 21.8 24.784 21.32L23.884 21.116C23.692 21.596 23.32 22.268 23.008 22.748H17.464V29.9H18.316V23.492H20.38C20.212 24.416 19.744 24.896 18.34 25.148C18.508 25.292 18.7 25.58 18.772 25.772C20.428 25.4 20.992 24.74 21.172 23.492H22.528V24.26C22.528 24.968 22.672 25.28 23.404 25.28H24.664C24.928 25.28 25.216 25.28 25.36 25.22C25.336 25.028 25.312 24.788 25.3 24.584C25.132 24.62 24.82 24.632 24.64 24.632H23.56C23.368 24.632 23.332 24.536 23.332 24.272V23.492H25.756V28.916C25.756 29.108 25.684 29.156 25.492 29.168C25.3 29.18 24.604 29.192 23.86 29.168C23.98 29.36 24.088 29.636 24.136 29.852C25.156 29.852 25.756 29.84 26.116 29.732C26.464 29.6 26.584 29.396 26.584 28.928V22.748ZM19.324 21.308C19.576 21.752 19.9 22.352 20.068 22.7L20.836 22.388C20.68 22.04 20.344 21.476 20.08 21.056L19.324 21.308ZM22.66 20.252C22.528 19.856 22.312 19.328 22.144 18.908L21.316 19.124C21.46 19.46 21.616 19.892 21.736 20.252H16.78V21.02H27.244V20.252H22.66ZM31.936 26.204L30.772 26.636V22.7H31.912V21.872H30.772V19.1H29.944V21.872H28.684V22.7H29.944V26.936C29.416 27.128 28.936 27.296 28.54 27.428L28.828 28.304C29.764 27.932 30.964 27.476 32.104 26.996L31.936 26.204ZM38.356 22.952C38.092 24.056 37.744 25.052 37.264 25.94C37.084 24.764 36.94 23.276 36.88 21.62H39.388V20.792H38.512L39.112 20.384C38.824 19.976 38.212 19.424 37.684 19.04L37.084 19.424C37.588 19.82 38.176 20.408 38.464 20.792H36.856C36.844 20.204 36.844 19.58 36.844 18.956H35.992C35.992 19.58 36.004 20.192 36.028 20.792H32.416V24.5C32.416 26.048 32.296 28.016 31.096 29.396C31.288 29.504 31.624 29.792 31.756 29.96C33.04 28.472 33.244 26.192 33.244 24.512V23.984H34.756C34.72 26.132 34.672 26.9 34.54 27.08C34.492 27.188 34.396 27.2 34.252 27.2C34.096 27.2 33.724 27.2 33.316 27.164C33.436 27.368 33.496 27.68 33.52 27.92C33.952 27.944 34.372 27.944 34.6 27.92C34.888 27.884 35.068 27.8 35.212 27.584C35.44 27.284 35.488 26.324 35.524 23.588C35.536 23.48 35.536 23.228 35.536 23.228H33.244V21.62H36.052C36.136 23.696 36.316 25.568 36.628 26.996C35.98 27.92 35.2 28.688 34.264 29.264C34.444 29.384 34.768 29.708 34.888 29.876C35.656 29.36 36.316 28.724 36.892 27.992C37.264 29.12 37.768 29.792 38.44 29.792C39.22 29.792 39.472 29.24 39.604 27.44C39.388 27.356 39.112 27.176 38.944 26.984C38.896 28.364 38.776 28.952 38.548 28.952C38.14 28.952 37.792 28.28 37.504 27.128C38.236 25.988 38.788 24.644 39.184 23.084L38.356 22.952ZM44.608 20.156V21.128H41.98V20.156H44.608ZM41.98 22.796V21.764H44.608V22.796H41.98ZM45.448 23.48V19.472H41.104V29.924H41.98V23.48H45.448ZM45.112 26.264V24.968H46.792V26.264H45.112ZM49.216 27.02V26.264H47.584V24.968H48.952V24.236H43.036V24.968H44.332V26.264H42.808V27.02H44.308C44.236 27.716 43.9 28.712 42.892 29.324C43.084 29.444 43.348 29.696 43.48 29.852C44.632 29.072 45.016 27.824 45.088 27.02H46.792V29.696H47.584V27.02H49.216ZM47.356 22.808V21.764H50.08V22.808H47.356ZM50.08 20.156V21.128H47.356V20.156H50.08ZM50.956 19.472H46.504V23.492H50.08V28.748C50.08 28.94 50.02 29.012 49.828 29.012C49.648 29.024 49 29.024 48.34 29C48.472 29.24 48.604 29.66 48.628 29.888C49.528 29.9 50.128 29.876 50.488 29.732C50.836 29.576 50.956 29.288 50.956 28.76V19.472ZM59.512 21.08H60.388V20.516H63.256V19.796H60.388V18.968H59.512V19.796H58.228V20.516H59.512V21.08ZM55.564 21.08H56.428V20.516H57.844V19.796H56.428V18.968H55.564V19.796H52.78V20.516H55.564V21.08ZM58.396 26.828V26.096H57.52V26.828H55.24C55.636 26.54 55.996 26.228 56.32 25.904H59.692C59.98 26.228 60.34 26.552 60.748 26.828H58.396ZM54.952 23.168H61.132V23.96H54.952V23.168ZM54.952 21.824H61.132V22.604H54.952V21.824ZM63.328 25.904V25.184H56.944C57.112 24.968 57.244 24.764 57.376 24.536H62.008V21.248H54.1V24.536H56.404C56.26 24.752 56.092 24.968 55.912 25.184H52.672V25.904H55.168C54.472 26.468 53.584 26.984 52.492 27.38C52.648 27.524 52.9 27.824 52.996 28.04C53.572 27.8 54.088 27.548 54.556 27.272V29.636H55.408V27.536H57.52V29.9H58.396V27.536H60.7V28.76C60.7 28.892 60.652 28.916 60.52 28.928C60.4 28.94 59.968 28.94 59.464 28.916C59.56 29.12 59.668 29.384 59.704 29.6C60.424 29.6 60.904 29.6 61.192 29.492C61.492 29.36 61.564 29.168 61.564 28.772V27.356C62.032 27.632 62.536 27.848 63.028 28.004C63.136 27.788 63.376 27.488 63.556 27.332C62.524 27.068 61.42 26.528 60.652 25.904H63.328ZM68.308 20.48V21.212H66.28V20.48H68.308ZM71.104 21.212H69.1V20.48H71.104V21.212ZM73.96 21.8V22.64H71.92V21.8H73.96ZM69.1 21.8H71.104V22.64H69.1V21.8ZM66.28 21.8H68.308V22.64H66.28V21.8ZM69.784 24.392L69.544 24.68C70.012 24.92 70.66 25.328 71.02 25.568L71.44 25.04C71.164 24.86 70.72 24.62 70.312 24.392H74.452C74.32 24.728 74.14 25.04 73.984 25.28L74.692 25.448C74.968 25.052 75.268 24.452 75.532 23.912L74.944 23.756L74.812 23.78H66.28V23.408V23.228H74.788V21.212H71.92V20.48H75.28V19.772H71.044C70.948 19.484 70.828 19.148 70.696 18.872L69.844 19.028C69.916 19.256 70.012 19.52 70.084 19.772H65.452V23.408C65.452 25.196 65.368 27.668 64.408 29.432C64.588 29.504 64.948 29.756 65.092 29.924C65.956 28.364 66.208 26.18 66.268 24.392H69.784ZM72.316 24.92C72.796 25.364 73.42 25.988 73.732 26.36L74.296 25.952C73.972 25.58 73.336 24.992 72.856 24.572L72.316 24.92ZM67.048 26.348C67.42 25.952 67.804 25.352 68.092 24.932L67.492 24.572C67.216 24.992 66.808 25.58 66.436 25.928L67.048 26.348ZM68.812 27.392H72.448C71.956 27.764 71.32 28.088 70.6 28.34C69.892 28.112 69.232 27.824 68.668 27.5L68.812 27.392ZM73.24 26.792L73.084 26.828H69.556C69.748 26.66 69.928 26.504 70.072 26.336H71.572C72.244 26.336 72.46 26.132 72.532 25.352C72.328 25.328 72.064 25.244 71.908 25.148C71.872 25.688 71.8 25.76 71.464 25.76H69.7C69.208 25.76 69.124 25.724 69.124 25.484V24.74H68.392V25.484C68.392 26.048 68.548 26.252 69.124 26.312C68.836 26.576 68.488 26.84 68.08 27.104C67.804 26.9 67.564 26.684 67.372 26.456L66.688 26.756C66.904 27.02 67.144 27.248 67.42 27.464C67 27.68 66.544 27.872 66.052 28.052C66.232 28.172 66.448 28.412 66.556 28.58C67.072 28.364 67.552 28.148 67.996 27.896C68.452 28.196 68.956 28.46 69.496 28.7C68.38 28.988 67.156 29.192 65.98 29.3C66.112 29.468 66.28 29.756 66.34 29.948C67.744 29.78 69.22 29.516 70.516 29.072C71.8 29.492 73.252 29.756 74.752 29.9C74.848 29.684 75.04 29.36 75.196 29.18C73.948 29.084 72.736 28.904 71.644 28.64C72.496 28.244 73.24 27.752 73.756 27.14L73.24 26.792ZM79.7396 29H84.5636V28.088H82.7996V20.204H81.9596C81.4796 20.48 80.9156 20.684 80.1356 20.828V21.524H81.6956V28.088H79.7396V29ZM85.4718 31.148H86.2758L89.8638 19.484H89.0718L85.4718 31.148ZM91.0951 29H95.9191V28.088H94.1551V20.204H93.3151C92.8351 20.48 92.2711 20.684 91.4911 20.828V21.524H93.0511V28.088H91.0951V29ZM97.2473 26.06H100.319V25.22H97.2473V26.06ZM101.911 29H106.735V28.088H104.971V20.204H104.131C103.651 20.48 103.087 20.684 102.307 20.828V21.524H103.867V28.088H101.911V29ZM108.04 29H113.572V28.052H111.136C110.692 28.052 110.152 28.1 109.696 28.136C111.76 26.18 113.14 24.392 113.14 22.64C113.14 21.068 112.156 20.036 110.584 20.036C109.468 20.036 108.712 20.552 107.992 21.332L108.628 21.956C109.108 21.38 109.732 20.936 110.452 20.936C111.544 20.936 112.072 21.668 112.072 22.676C112.072 24.188 110.8 25.94 108.04 28.352V29ZM114.3 31.148H115.104L118.692 19.484H117.9L114.3 31.148ZM122.035 29.156C123.595 29.156 124.855 28.22 124.855 26.648C124.855 25.448 124.027 24.656 122.983 24.416V24.368C123.919 24.02 124.555 23.312 124.555 22.244C124.555 20.828 123.475 20.036 121.999 20.036C120.979 20.036 120.199 20.48 119.539 21.092L120.127 21.788C120.619 21.296 121.243 20.936 121.951 20.912C122.863 20.936 123.439 21.476 123.439 22.328C123.439 23.276 122.815 24.008 121.003 24.008V24.848C123.031 24.848 123.739 25.556 123.739 26.612C123.739 27.62 122.995 28.244 121.951 28.244C120.955 28.244 120.283 27.776 119.767 27.236L119.215 27.956C119.791 28.58 120.655 29.156 122.035 29.156ZM126.579 29H131.403V28.088H129.639V20.204H128.799C128.319 20.48 127.755 20.684 126.975 20.828V21.524H128.535V28.088H126.579V29Z" fill="white"/>
<path d="M249.668 37.7017C273.588 28.9645 270.551 21.0563 303.203 13.0096C335.856 4.96289 378 15.5995 378 15.5995V76.0001H165C198.032 35.733 225.749 46.4389 249.668 37.7017Z" fill="#CF9F7F"/>
<path d="M318.038 25.4283C334.961 4.47846 358.079 0.253078 369.79 6.10352e-05H510V76.0001H227C231.911 66.5119 236.444 58.9214 257.598 49.0537C278.752 39.1861 296.884 51.6155 318.038 25.4283Z" fill="#E4BEA5"/>
<path d="M309 76C315.053 59.6228 332.835 46.7482 351.752 43.3402C370.668 39.9322 387.693 7.84223 432.715 13.4252C477.737 19.0083 472.44 -2.1002 497.788 0.171836C497.788 0.171836 495.568 0.171913 510 0.171913V76.0001L309 76Z" fill="#DCAD8E"/>
<rect x="164" y="15" width="163" height="45" fill="white"/>
<path d="M192.499 34.4989V38.0443H186.947C187.159 36.8899 187.318 35.7356 187.425 34.4989H192.499ZM179.243 38.0443V34.4989H184.078C183.971 35.7356 183.865 36.8899 183.626 38.0443H179.243ZM186.628 29.2495C186.123 30.074 185.539 30.8985 184.954 31.6131H179.429C180.146 30.8435 180.757 30.074 181.368 29.2495H186.628ZM191.091 47.0314C190.081 47.0314 189.922 46.9215 189.922 45.9871V40.9575H195.846V31.6131H188.673C189.63 30.4038 190.559 29.0296 191.17 27.9028L188.965 26.4461L188.434 26.5835H183.148C183.413 26.1713 183.653 25.7315 183.865 25.3193L180.465 24.6597C179.083 27.408 176.56 30.6236 173 33.0422C173.744 33.5644 174.753 34.7187 175.231 35.5157C175.524 35.2959 175.816 35.076 176.082 34.8287V40.9575H182.723C181.448 43.7609 178.897 46.0695 173.452 47.4987C174.142 48.2132 174.886 49.4225 175.231 50.247C181.926 48.3232 184.821 44.9976 186.203 40.9575H186.628V46.042C186.628 48.9828 187.425 49.9447 190.613 49.9447H194.199C196.829 49.9447 197.652 48.8179 197.998 44.7778C197.147 44.5579 195.793 44.0357 195.129 43.5135C195.022 46.5367 194.836 47.0314 193.933 47.0314H191.091Z" fill="url(#paint1_angular)"/>
<path d="M220.923 28.0127V29.8266H217.098V28.7547H214.016V29.8266H209.925V28.0127H220.923ZM219.807 35.1035V36.2028H217.098V35.1035H219.807ZM219.807 39.1711H217.098V38.0717H219.807V39.1711ZM211.2 39.1711V38.0717H214.016V39.1711H211.2ZM211.2 35.1035H214.016V36.2028H211.2V35.1035ZM209.261 32.1078H214.016V33.0972H208.517V41.1499H214.016V42.1393H207.269V44.5029H214.016V46.3169H217.098V44.5029H223.925V42.1393H217.098V41.1499H222.623V33.0972H217.098V32.1078H221.189V31.0909H223.951V25.6216H207.03V31.0909H209.261V32.1078ZM205.701 29.3319C205.356 28.0951 204.665 26.2537 204.161 24.7696L201.371 25.6491C201.823 27.1332 202.54 29.1395 202.832 30.4038L205.701 29.3319ZM205.303 37.1373L204.851 37.2197H204.426C205.037 35.3234 205.728 33.1247 206.286 31.1733H199.99V34.0866H202.434C201.823 36.2303 201.106 38.429 200.468 40.0506H203.842C203.496 41.6721 202.992 43.4036 202.354 44.7778C201.451 45.3274 200.442 46.2619 199.485 47.4437L201.61 50.5494C202.248 48.9828 203.204 47.1139 203.815 47.1139C204.373 47.1139 205.303 48.0208 206.419 48.653C208.331 49.8073 210.563 50.1096 214.096 50.1096C217.204 50.1096 221.906 49.9172 224.084 49.7798C224.111 48.9003 224.642 47.3063 225.014 46.4268C222.065 46.8665 217.31 47.1414 214.255 47.1414C211.147 47.1414 208.65 46.9765 206.844 45.8496C206.18 45.4374 205.675 45.0801 205.276 44.8053C206.126 42.744 206.764 40.2979 207.162 38.0443L205.303 37.1373Z" fill="url(#paint2_angular)"/>
<path d="M241.192 36.6426C241.883 37.577 242.706 38.429 243.583 39.1986H233.621C234.577 38.4015 235.401 37.5495 236.145 36.6426H241.192ZM250.569 36.6426V33.7018H238.164C238.482 33.1247 238.775 32.575 239.067 31.9703H248.896V29.0846H245.522C246.133 28.2051 246.797 27.2157 247.435 26.1988L244.486 25.2643C244.008 26.3911 243.158 27.9302 242.441 29.0846H240.156C240.554 27.7379 240.873 26.3637 241.112 24.962L237.765 24.6322C237.606 26.1438 237.287 27.6554 236.782 29.0846H234.152L235.348 28.4524C234.976 27.4905 234.046 26.0888 233.223 25.0719L230.699 26.3362C231.31 27.1607 231.947 28.2051 232.399 29.0846H228.627V31.9703H235.481C235.135 32.575 234.79 33.1247 234.365 33.7018H227.006V36.6426H231.629C230.141 37.8793 228.388 38.9512 226.263 39.8307C226.953 40.4353 227.856 41.7271 228.202 42.5791C229.291 42.0844 230.247 41.5622 231.177 40.9575V42.1393H234.604C234.02 44.6678 232.612 46.4268 228.016 47.4987C228.68 48.1583 229.504 49.4775 229.796 50.302C235.481 48.7079 237.26 45.9321 237.925 42.1393H243.158C242.919 45.1625 242.653 46.4543 242.281 46.8665C241.989 47.1139 241.776 47.1963 241.325 47.1689C240.82 47.1963 239.704 47.1688 238.536 47.0589C239.04 47.8834 239.386 49.1752 239.439 50.1371C240.847 50.1921 242.122 50.1646 242.892 50.0546C243.769 49.9447 244.406 49.6974 244.991 49.0103C245.735 48.1583 246.107 45.9596 246.399 41.1224C247.408 41.6721 248.444 42.1118 249.56 42.4691C250.012 41.6446 250.888 40.4079 251.579 39.7757C249.082 39.1711 246.797 38.0443 245.071 36.6426H250.569Z" fill="url(#paint3_angular)"/>
<path d="M279.959 42.1482C279.959 42.8524 280.539 43.4209 281.257 43.4209C281.976 43.4209 282.556 42.8524 282.556 42.1482C282.556 41.444 281.976 40.8755 281.257 40.8755C280.539 40.8755 279.959 41.444 279.959 42.1482Z" fill="url(#paint4_angular)"/>
<path d="M294.643 37.9058L292.946 35.7846H290.781V37.9058H294.643Z" fill="url(#paint5_angular)"/>
<path d="M290.348 42.1482C290.348 42.8524 290.929 43.4209 291.647 43.4209C292.366 43.4209 292.946 42.8524 292.946 42.1482C292.946 41.444 292.366 40.8755 291.647 40.8755C290.929 40.8755 290.348 41.444 290.348 42.1482Z" fill="url(#paint6_angular)"/>
<path fill-rule="evenodd" clip-rule="evenodd" d="M265.977 24.0001H302.393V27.9508H304.344V24.0001H318V31.9124C317.893 31.9053 317.784 31.9016 317.675 31.9016C314.981 31.9016 312.798 34.1127 312.798 36.8401C312.798 39.5676 314.981 41.7786 317.675 41.7786C317.784 41.7786 317.893 41.775 318 41.7678V50.3386H265.977V41.7678C268.519 41.5984 270.529 39.4569 270.529 36.8401C270.529 34.2233 268.519 32.0819 265.977 31.9124V24.0001ZM304.344 29.9262H302.393V33.877H304.344V29.9262ZM302.393 35.8524H304.344V39.8032H302.393V35.8524ZM304.344 41.7786H302.393V45.7294H304.344V41.7786ZM302.393 47.7048H304.344V50.3386H302.393V47.7048ZM290.781 34.5119H293.379L295.976 37.9058V42.1482H294.245C294.245 43.5567 293.084 44.6936 291.647 44.6936C290.21 44.6936 289.05 43.5567 289.05 42.1482H283.855C283.855 43.5567 282.695 44.6936 281.257 44.6936C279.82 44.6936 278.66 43.5567 278.66 42.1482H276.928V32.8149C276.928 31.8816 277.708 31.118 278.66 31.118H290.781V34.5119Z" fill="url(#paint7_angular)"/>
<defs>
<linearGradient id="paint0_linear" x1="2.37487e-07" y1="38" x2="495.18" y2="38" gradientUnits="userSpaceOnUse">
<stop stop-color="#CF9F7F"/>
<stop offset="0.505208" stop-color="#E3BEA5"/>
<stop offset="1" stop-color="#CF9F7F"/>
</linearGradient>
<radialGradient id="paint1_angular" cx="0" cy="0" r="1" gradientUnits="userSpaceOnUse" gradientTransform="translate(332.943 33.1613) rotate(176.109) scale(160.312 936.884)">
<stop stop-color="#88654E"/>
<stop offset="1" stop-color="#A67E64"/>
</radialGradient>
<radialGradient id="paint2_angular" cx="0" cy="0" r="1" gradientUnits="userSpaceOnUse" gradientTransform="translate(332.943 33.1613) rotate(176.109) scale(160.312 936.884)">
<stop stop-color="#88654E"/>
<stop offset="1" stop-color="#A67E64"/>
</radialGradient>
<radialGradient id="paint3_angular" cx="0" cy="0" r="1" gradientUnits="userSpaceOnUse" gradientTransform="translate(332.943 33.1613) rotate(176.109) scale(160.312 936.884)">
<stop stop-color="#88654E"/>
<stop offset="1" stop-color="#A67E64"/>
</radialGradient>
<radialGradient id="paint4_angular" cx="0" cy="0" r="1" gradientUnits="userSpaceOnUse" gradientTransform="translate(332.943 33.1613) rotate(176.109) scale(160.312 936.884)">
<stop stop-color="#88654E"/>
<stop offset="1" stop-color="#A67E64"/>
</radialGradient>
<radialGradient id="paint5_angular" cx="0" cy="0" r="1" gradientUnits="userSpaceOnUse" gradientTransform="translate(332.943 33.1613) rotate(176.109) scale(160.312 936.884)">
<stop stop-color="#88654E"/>
<stop offset="1" stop-color="#A67E64"/>
</radialGradient>
<radialGradient id="paint6_angular" cx="0" cy="0" r="1" gradientUnits="userSpaceOnUse" gradientTransform="translate(332.943 33.1613) rotate(176.109) scale(160.312 936.884)">
<stop stop-color="#88654E"/>
<stop offset="1" stop-color="#A67E64"/>
</radialGradient>
<radialGradient id="paint7_angular" cx="0" cy="0" r="1" gradientUnits="userSpaceOnUse" gradientTransform="translate(332.943 33.1613) rotate(176.109) scale(160.312 936.884)">
<stop stop-color="#88654E"/>
<stop offset="1" stop-color="#A67E64"/>
</radialGradient>
</defs>
</svg>
