<svg width="690" height="76" viewBox="0 0 690 76" fill="none" xmlns="http://www.w3.org/2000/svg">
<rect width="690" height="76" fill="url(#paint0_linear)"/>
<path d="M403.668 37.7016C427.588 28.9644 424.551 21.0562 457.203 13.0095C489.856 4.96283 532 15.5994 532 15.5994V76H319C352.032 35.733 379.749 46.4388 403.668 37.7016Z" fill="#CF9F7F"/>
<path d="M472.038 25.4282C488.961 4.4784 512.079 0.253017 523.79 0H690V76H381C385.911 66.5119 390.444 58.9213 411.598 49.0537C432.752 39.186 450.884 51.6155 472.038 25.4282Z" fill="#E4BEA5"/>
<path d="M463 76C469.053 59.6228 486.835 46.7482 505.752 43.3402C524.668 39.9322 541.693 7.84223 586.715 13.4252C631.737 19.0083 626.44 -2.1002 651.788 0.171836L690 0.171852V76H463Z" fill="#DCAD8E"/>
<path d="M47.06 34.99H32.99V37.12H47.06V34.99ZM31.88 51.82C30.44 52.18 29 52.57 27.59 52.93V46H31.01V43.9H27.59V37.3H31.49V35.23H21.53V37.3H25.43V43.9H21.92V46H25.43V53.47C23.78 53.89 22.31 54.28 21.11 54.58L21.62 56.71C24.5 55.93 28.4 54.82 32.15 53.77L31.88 51.82ZM44.18 58C43.55 58 43.43 57.88 43.43 57.04V45.76H48.65V43.6H31.67V45.76H35.69C35.39 52.42 34.55 56.5 28.49 58.69C28.97 59.05 29.57 59.86 29.78 60.37C36.35 57.85 37.49 53.17 37.85 45.76H41.24V57.07C41.24 59.41 41.78 60.1 43.88 60.1H46.46C48.32 60.1 48.89 58.99 49.07 54.85C48.47 54.7 47.54 54.34 47.09 53.92C47 57.43 46.88 58 46.25 58H44.18ZM63.95 33.34V57.19C63.95 57.79 63.71 58 63.08 58C62.51 58.03 60.35 58.06 58.16 57.97C58.52 58.6 58.94 59.65 59.09 60.28C61.88 60.31 63.74 60.25 64.82 59.89C65.87 59.5 66.32 58.84 66.32 57.19V33.34H63.95ZM71.12 40.9C73.67 45.19 76.07 50.77 76.79 54.31L79.13 53.32C78.38 49.75 75.86 44.29 73.22 40.09L71.12 40.9ZM56.12 40.3C55.4 44.32 53.75 49.48 51.08 52.63C51.68 52.87 52.64 53.41 53.18 53.8C55.88 50.47 57.62 45.1 58.58 40.75L56.12 40.3ZM99.77 42.43H105.08C104.36 43.24 103.49 44.11 102.68 44.68V46.75H98.6V48.58H102.68V53.86C102.68 54.16 102.59 54.25 102.23 54.25C101.87 54.28 100.76 54.28 99.5 54.25C99.8 54.79 100.1 55.57 100.19 56.14C101.87 56.14 102.98 56.11 103.67 55.78C104.45 55.45 104.63 54.91 104.63 53.89V48.58H108.65V46.75H104.63V45.22C105.89 44.17 107.24 42.79 108.23 41.5L106.97 40.57L106.61 40.69H99.89C100.34 39.94 100.76 39.07 101.18 38.17H108.65V36.28H101.9C102.26 35.32 102.56 34.27 102.83 33.28L100.91 32.8C100.25 35.77 99.02 38.74 97.46 40.69C97.94 40.96 98.69 41.56 99.08 41.89C99.32 41.59 99.56 41.26 99.77 40.9V42.43ZM91.25 42.13C91.25 45.73 90.92 50.71 88.13 54.46C88.58 54.73 89.24 55.3 89.57 55.69C92.18 52.27 92.9 47.83 93.08 44.11H95.99C95.75 50.92 95.42 53.41 94.94 54.01C94.76 54.34 94.52 54.4 94.19 54.37C93.83 54.37 93.05 54.37 92.18 54.28C92.42 54.79 92.6 55.57 92.66 56.17C93.59 56.2 94.49 56.2 95.06 56.14C95.72 56.05 96.2 55.84 96.62 55.27C97.34 54.34 97.64 51.52 97.97 43.18V42.25H93.11V42.16V38.86H98.54V36.94H95.18L95.42 36.88C95.12 35.83 94.43 34.18 93.83 32.92L91.88 33.31C92.33 34.45 92.93 35.89 93.26 36.94H88.67V38.86H91.25V42.13ZM87.59 37.57C86.9 36.34 85.43 34.42 84.17 32.95L82.49 33.82C83.66 35.32 85.13 37.39 85.82 38.68L87.59 37.57ZM87.68 47.14L87.32 47.2H84.35C85.97 45.19 88.1 42.04 89.27 40.3L87.77 39.64L87.35 39.82H81.5V41.65H86.12C84.89 43.48 83.21 45.85 82.58 46.54C82.07 47.08 81.62 47.29 81.17 47.41C81.41 47.86 81.83 48.91 81.98 49.45C82.22 49.21 83 49.03 83.75 49.03H86.45C85.55 53.62 83.6 56.95 80.99 58.81C81.44 59.11 82.16 59.89 82.46 60.34C83.9 59.23 85.19 57.7 86.21 55.75C88.55 59.2 92.3 59.8 98.48 59.8C101.75 59.8 105.5 59.74 108.32 59.56C108.41 58.96 108.71 57.97 109.04 57.49C106.01 57.76 101.66 57.88 98.51 57.88C92.75 57.88 88.97 57.43 87.05 53.95C87.77 52.12 88.34 49.99 88.7 47.56L87.68 47.14ZM138.47 38.38C137.69 37.12 136.19 35.05 135.02 33.49L133.37 34.3C134.54 35.89 135.98 38.08 136.7 39.34L138.47 38.38ZM118.97 39.49V41.47L115.28 41.83L115.46 43.18L118.97 42.82V43.36C118.97 44.98 119.3 45.7 121.04 45.7H124.46C125.12 45.7 125.93 45.67 126.29 45.55C126.23 45.1 126.17 44.65 126.14 44.17C125.72 44.29 124.82 44.32 124.37 44.32H121.49C120.92 44.32 120.83 44.11 120.83 43.39V42.64L124.1 42.31L123.92 41.02L120.83 41.32V39.49H125.6C125.42 40.42 125.18 41.35 124.97 42.01L126.59 42.4C127.01 41.32 127.46 39.64 127.79 38.14L126.47 37.84L126.14 37.9H120.62V36.31H126.95V34.75H120.62V32.89H118.55V37.9H112.76V46.24C112.76 49.96 112.61 55.06 110.93 58.72C111.38 58.93 112.16 59.5 112.49 59.89C114.35 56.02 114.65 50.23 114.65 46.24V39.49H118.97ZM127.37 46.72H115.61V48.28H127.37V46.72ZM118.13 50.8H124.52V52.9H118.13V50.8ZM126.35 54.19V49.51H116.39V54.19H126.35ZM136.67 44.05C135.95 46.63 134.75 49.21 133.25 51.55C132.89 49.21 132.56 46.39 132.32 43.18L138.77 42.37L138.5 40.39L132.2 41.2C132.02 38.62 131.93 35.89 131.9 33.04H129.83C129.92 35.98 130.01 38.83 130.16 41.44L127.49 41.8L127.79 43.78L130.31 43.45C130.58 47.47 131.03 51.01 131.63 53.77C130.25 55.48 128.69 56.92 127.04 57.91V57.04L123.98 57.31C124.43 56.5 124.91 55.57 125.33 54.67L123.47 54.31C123.17 55.21 122.6 56.5 122.15 57.49L120.17 57.67C119.93 56.74 119.45 55.45 119.06 54.43L117.47 54.73C117.83 55.66 118.19 56.86 118.43 57.82C117.05 57.94 115.79 58.03 114.74 58.12L114.98 59.86C118.19 59.56 122.72 59.11 127.04 58.69V57.97C127.61 58.36 128.21 58.96 128.6 59.44C129.89 58.6 131.15 57.43 132.29 56.11C133.16 58.72 134.33 60.25 135.92 60.28C137 60.31 138.08 59.05 138.65 54.4C138.26 54.19 137.42 53.68 137.06 53.23C136.85 56.11 136.46 57.73 135.92 57.73C135.11 57.67 134.39 56.38 133.85 54.19C135.77 51.43 137.36 48.19 138.35 44.98L136.67 44.05ZM154.7 38.53H148.07C148.1 36.82 148.13 35.08 148.13 33.31H145.94C145.94 35.08 145.94 36.82 145.91 38.53H141.71V40.72H145.85C145.61 48.22 144.71 54.85 140.99 58.78C141.53 59.11 142.34 59.83 142.67 60.31C146.72 55.93 147.74 48.76 148.01 40.72H152.54C152.33 52.21 152.06 56.29 151.37 57.13C151.16 57.55 150.86 57.64 150.38 57.61C149.84 57.61 148.55 57.61 147.17 57.49C147.56 58.12 147.77 59.08 147.83 59.74C149.15 59.83 150.53 59.83 151.34 59.71C152.24 59.62 152.78 59.35 153.32 58.57C154.25 57.28 154.46 52.93 154.7 39.67V38.53ZM159.26 55.51V38.77H165.08V55.51H159.26ZM157.16 36.61V59.83H159.26V57.64H165.08V59.62H167.3V36.61H157.16ZM179.42 54.52H175.58V45.55H179.42V54.52ZM181.37 56.47V43.63H175.67C176.3 41.35 176.78 38.89 177.17 36.37H182.51V34.33H171.56V36.37H175.04C174.29 41.56 173.03 46.45 170.84 49.66C171.26 50.11 171.95 51.16 172.16 51.61C172.7 50.83 173.21 49.96 173.66 49.03V58.93H175.58V56.47H181.37ZM182.75 58.93C184.19 57.31 184.73 54.52 185.03 51.94L183.35 51.52C183.08 53.98 182.48 56.56 181.19 58.03L182.75 58.93ZM186.23 52.45C186.56 54.19 186.74 56.47 186.68 57.97L188.33 57.7C188.36 56.23 188.12 53.98 187.76 52.21L186.23 52.45ZM189.41 52.21C190.01 53.68 190.55 55.57 190.73 56.83L192.26 56.38C192.05 55.15 191.48 53.23 190.85 51.82L189.41 52.21ZM185.81 45.25H189.95V48.1H185.81V45.25ZM189.95 36.13V38.86H185.81V36.13H189.95ZM189.95 43.45H185.81V40.66H189.95V43.45ZM191.93 48.1V45.25H196.94V43.45H191.93V40.66H196.94V38.86H191.93V36.13H197.63V34.18H183.77V50.05H196.13C195.86 55.48 195.5 57.58 195.02 58.15C194.75 58.42 194.54 58.48 194.06 58.48C193.61 58.48 192.41 58.45 191.15 58.33C191.45 58.87 191.66 59.68 191.69 60.25C193.04 60.34 194.3 60.34 194.99 60.28C195.8 60.22 196.28 60.01 196.76 59.44C197.51 58.57 197.87 55.99 198.2 49.03C198.23 48.73 198.23 48.1 198.23 48.1H191.93ZM195.68 54.52C195.29 53.59 194.45 52.12 193.61 51.04L192.38 51.55C193.16 52.66 194.03 54.16 194.39 55.15L195.68 54.52ZM217.01 37.54C216.41 36.34 215.24 34.39 214.28 32.98L212.42 33.67C213.35 35.17 214.49 37.18 215.03 38.38L217.01 37.54ZM228.11 54.73C226.16 52.9 222.41 49.93 219.47 47.65C219.53 47.44 219.59 47.17 219.65 46.93H228.11V44.86H219.95C219.98 44.41 219.98 44.02 219.98 43.6V40.54H227.42V38.47H222.77C223.67 37.03 224.66 35.2 225.5 33.61L223.28 32.89C222.62 34.57 221.54 36.85 220.55 38.47H210.92V40.54H217.79V43.57C217.79 43.99 217.79 44.41 217.76 44.86H209.99V46.93H217.43C216.8 49.57 214.94 52.48 209.69 54.7C210.2 55.09 210.89 55.84 211.19 56.29C215.36 54.34 217.58 51.94 218.75 49.6C221.57 51.82 224.84 54.55 226.55 56.29L228.11 54.73ZM207.86 37.54C207.08 36.28 205.58 34.39 204.29 32.92L202.58 33.85C203.84 35.35 205.37 37.45 206.09 38.71L207.86 37.54ZM207.83 47.14L207.44 47.2H204.32C205.97 45.19 208.19 42.1 209.39 40.33L207.92 39.67L207.56 39.82H201.5V41.65H206.21C204.95 43.48 203.21 45.88 202.52 46.57C202.04 47.11 201.56 47.29 201.11 47.41C201.35 47.89 201.8 48.91 201.95 49.45C202.16 49.21 202.94 49.03 203.69 49.03H206.6C205.67 53.65 203.72 56.95 201.02 58.81C201.47 59.11 202.22 59.89 202.49 60.34C203.93 59.26 205.25 57.76 206.27 55.81C208.61 59.2 212.39 59.8 218.48 59.8C221.75 59.8 225.5 59.74 228.32 59.56C228.41 58.96 228.71 57.97 229.04 57.49C226.01 57.76 221.66 57.88 218.51 57.88C212.81 57.88 209.03 57.4 207.11 54.04C207.86 52.21 208.43 50.02 208.82 47.56L207.83 47.14Z" fill="white"/>
<path d="M28.652 24.892V26.516H25.32V24.892H28.652ZM29.52 27.286V24.108H24.41V27.93H25.32V27.286H29.52ZM32.348 20.706H29.17C29.534 20.216 29.912 19.6 30.248 19.04L29.198 18.802C28.974 19.362 28.54 20.146 28.176 20.706H21.708V29.05H22.702V21.574H25.11C24.914 22.652 24.368 23.212 22.73 23.506C22.926 23.674 23.15 24.01 23.234 24.234C25.166 23.8 25.824 23.03 26.034 21.574H27.616V22.47C27.616 23.296 27.784 23.66 28.638 23.66H30.108C30.416 23.66 30.752 23.66 30.92 23.59C30.892 23.366 30.864 23.086 30.85 22.848C30.654 22.89 30.29 22.904 30.08 22.904H28.82C28.596 22.904 28.554 22.792 28.554 22.484V21.574H31.382V27.902C31.382 28.126 31.298 28.182 31.074 28.196C30.85 28.21 30.038 28.224 29.17 28.196C29.31 28.42 29.436 28.742 29.492 28.994C30.682 28.994 31.382 28.98 31.802 28.854C32.208 28.7 32.348 28.462 32.348 27.916V20.706ZM23.878 19.026C24.172 19.544 24.55 20.244 24.746 20.65L25.642 20.286C25.46 19.88 25.068 19.222 24.76 18.732L23.878 19.026ZM27.77 17.794C27.616 17.332 27.364 16.716 27.168 16.226L26.202 16.478C26.37 16.87 26.552 17.374 26.692 17.794H20.91V18.69H33.118V17.794H27.77ZM38.592 24.738L37.234 25.242V20.65H38.564V19.684H37.234V16.45H36.268V19.684H34.812V20.65H36.268V25.592C35.652 25.816 35.092 26.012 34.63 26.166L34.966 27.188C36.058 26.754 37.458 26.222 38.788 25.662L38.592 24.738ZM46.082 20.944C45.774 22.232 45.368 23.394 44.808 24.43C44.598 23.058 44.43 21.322 44.36 19.39H47.286V18.424H46.264L46.964 17.948C46.628 17.472 45.914 16.828 45.298 16.38L44.598 16.828C45.186 17.29 45.872 17.976 46.208 18.424H44.332C44.318 17.738 44.318 17.01 44.318 16.282H43.324C43.324 17.01 43.338 17.724 43.366 18.424H39.152V22.75C39.152 24.556 39.012 26.852 37.612 28.462C37.836 28.588 38.228 28.924 38.382 29.12C39.88 27.384 40.118 24.724 40.118 22.764V22.148H41.882C41.84 24.654 41.784 25.55 41.63 25.76C41.574 25.886 41.462 25.9 41.294 25.9C41.112 25.9 40.678 25.9 40.202 25.858C40.342 26.096 40.412 26.46 40.44 26.74C40.944 26.768 41.434 26.768 41.7 26.74C42.036 26.698 42.246 26.6 42.414 26.348C42.68 25.998 42.736 24.878 42.778 21.686C42.792 21.56 42.792 21.266 42.792 21.266H40.118V19.39H43.394C43.492 21.812 43.702 23.996 44.066 25.662C43.31 26.74 42.4 27.636 41.308 28.308C41.518 28.448 41.896 28.826 42.036 29.022C42.932 28.42 43.702 27.678 44.374 26.824C44.808 28.14 45.396 28.924 46.18 28.924C47.09 28.924 47.384 28.28 47.538 26.18C47.286 26.082 46.964 25.872 46.768 25.648C46.712 27.258 46.572 27.944 46.306 27.944C45.83 27.944 45.424 27.16 45.088 25.816C45.942 24.486 46.586 22.918 47.048 21.098L46.082 20.944ZM53.376 17.682V18.816H50.31V17.682H53.376ZM50.31 20.762V19.558H53.376V20.762H50.31ZM54.356 21.56V16.884H49.288V29.078H50.31V21.56H54.356ZM53.964 24.808V23.296H55.924V24.808H53.964ZM58.752 25.69V24.808H56.848V23.296H58.444V22.442H51.542V23.296H53.054V24.808H51.276V25.69H53.026C52.942 26.502 52.55 27.664 51.374 28.378C51.598 28.518 51.906 28.812 52.06 28.994C53.404 28.084 53.852 26.628 53.936 25.69H55.924V28.812H56.848V25.69H58.752ZM56.582 20.776V19.558H59.76V20.776H56.582ZM59.76 17.682V18.816H56.582V17.682H59.76ZM60.782 16.884H55.588V21.574H59.76V27.706C59.76 27.93 59.69 28.014 59.466 28.014C59.256 28.028 58.5 28.028 57.73 28C57.884 28.28 58.038 28.77 58.066 29.036C59.116 29.05 59.816 29.022 60.236 28.854C60.642 28.672 60.782 28.336 60.782 27.72V16.884ZM70.764 18.76H71.786V18.102H75.132V17.262H71.786V16.296H70.764V17.262H69.266V18.102H70.764V18.76ZM66.158 18.76H67.166V18.102H68.818V17.262H67.166V16.296H66.158V17.262H62.91V18.102H66.158V18.76ZM69.462 25.466V24.612H68.44V25.466H65.78C66.242 25.13 66.662 24.766 67.04 24.388H70.974C71.31 24.766 71.73 25.144 72.206 25.466H69.462ZM65.444 21.196H72.654V22.12H65.444V21.196ZM65.444 19.628H72.654V20.538H65.444V19.628ZM75.216 24.388V23.548H67.768C67.964 23.296 68.118 23.058 68.272 22.792H73.676V18.956H64.45V22.792H67.138C66.97 23.044 66.774 23.296 66.564 23.548H62.784V24.388H65.696C64.884 25.046 63.848 25.648 62.574 26.11C62.756 26.278 63.05 26.628 63.162 26.88C63.834 26.6 64.436 26.306 64.982 25.984V28.742H65.976V26.292H68.44V29.05H69.462V26.292H72.15V27.72C72.15 27.874 72.094 27.902 71.94 27.916C71.8 27.93 71.296 27.93 70.708 27.902C70.82 28.14 70.946 28.448 70.988 28.7C71.828 28.7 72.388 28.7 72.724 28.574C73.074 28.42 73.158 28.196 73.158 27.734V26.082C73.704 26.404 74.292 26.656 74.866 26.838C74.992 26.586 75.272 26.236 75.482 26.054C74.278 25.746 72.99 25.116 72.094 24.388H75.216ZM81.026 18.06V18.914H78.66V18.06H81.026ZM84.288 18.914H81.95V18.06H84.288V18.914ZM87.62 19.6V20.58H85.24V19.6H87.62ZM81.95 19.6H84.288V20.58H81.95V19.6ZM78.66 19.6H81.026V20.58H78.66V19.6ZM82.748 22.624L82.468 22.96C83.014 23.24 83.77 23.716 84.19 23.996L84.68 23.38C84.358 23.17 83.84 22.89 83.364 22.624H88.194C88.04 23.016 87.83 23.38 87.648 23.66L88.474 23.856C88.796 23.394 89.146 22.694 89.454 22.064L88.768 21.882L88.614 21.91H78.66V21.476V21.266H88.586V18.914H85.24V18.06H89.16V17.234H84.218C84.106 16.898 83.966 16.506 83.812 16.184L82.818 16.366C82.902 16.632 83.014 16.94 83.098 17.234H77.694V21.476C77.694 23.562 77.596 26.446 76.476 28.504C76.686 28.588 77.106 28.882 77.274 29.078C78.282 27.258 78.576 24.71 78.646 22.624H82.748ZM85.716 23.24C86.276 23.744 87.004 24.472 87.368 24.92L88.012 24.43C87.648 24.01 86.906 23.324 86.346 22.834L85.716 23.24ZM79.57 24.906C79.99 24.444 80.438 23.744 80.774 23.254L80.074 22.834C79.752 23.324 79.276 24.01 78.842 24.416L79.57 24.906ZM81.614 26.124H85.856C85.282 26.558 84.54 26.936 83.7 27.23C82.874 26.964 82.104 26.628 81.446 26.25L81.614 26.124ZM86.78 25.424L86.598 25.466H82.482C82.706 25.27 82.916 25.088 83.084 24.892H84.834C85.618 24.892 85.87 24.654 85.954 23.744C85.716 23.716 85.408 23.618 85.226 23.506C85.184 24.136 85.1 24.22 84.708 24.22H82.65C82.076 24.22 81.978 24.178 81.978 23.898V23.03H81.124V23.898C81.124 24.542 81.306 24.794 81.978 24.864C81.642 25.172 81.236 25.48 80.76 25.788C80.438 25.55 80.158 25.298 79.934 25.032L79.136 25.382C79.388 25.69 79.668 25.956 79.99 26.208C79.5 26.46 78.968 26.684 78.394 26.894C78.604 27.034 78.856 27.314 78.982 27.51C79.584 27.258 80.144 27.006 80.662 26.712C81.194 27.062 81.782 27.37 82.412 27.65C81.11 27.986 79.682 28.224 78.31 28.35C78.464 28.546 78.66 28.882 78.73 29.106C80.368 28.91 82.09 28.602 83.616 28.084C85.1 28.574 86.794 28.882 88.544 29.05C88.656 28.798 88.88 28.42 89.076 28.21C87.606 28.098 86.192 27.888 84.918 27.58C85.912 27.118 86.78 26.544 87.382 25.83L86.78 25.424ZM94.3629 28H99.9909V26.936H97.9329V17.724H96.9529C96.3929 18.06 95.7349 18.298 94.8249 18.466V19.278H96.6449V26.936H94.3629V28ZM101.05 30.506H101.988L106.174 16.884H105.25L101.05 30.506ZM107.611 28H113.239V26.936H111.181V17.724H110.201C109.641 18.06 108.983 18.298 108.073 18.466V19.278H109.893V26.936H107.611V28ZM114.789 24.57H118.373V23.59H114.789V24.57ZM120.23 28H125.858V26.936H123.8V17.724H122.82C122.26 18.06 121.602 18.298 120.692 18.466V19.278H122.512V26.936H120.23V28ZM127.38 28H133.834V26.894H130.992C130.474 26.894 129.844 26.95 129.312 26.992C131.72 24.71 133.33 22.624 133.33 20.58C133.33 18.746 132.182 17.542 130.348 17.542C129.046 17.542 128.164 18.144 127.324 19.054L128.066 19.782C128.626 19.11 129.354 18.592 130.194 18.592C131.468 18.592 132.084 19.446 132.084 20.622C132.084 22.386 130.6 24.43 127.38 27.244V28ZM134.683 30.506H135.621L139.807 16.884H138.883L134.683 30.506ZM143.708 28.182C145.528 28.182 146.998 27.09 146.998 25.256C146.998 23.856 146.032 22.932 144.828 22.652V22.596C145.906 22.19 146.648 21.364 146.648 20.118C146.648 18.494 145.388 17.542 143.666 17.542C142.476 17.542 141.566 18.06 140.796 18.774L141.482 19.586C142.056 18.998 142.784 18.592 143.61 18.592C144.674 18.592 145.346 19.236 145.346 20.216C145.346 21.322 144.618 22.176 142.504 22.176V23.156C144.87 23.156 145.696 23.982 145.696 25.2C145.696 26.39 144.828 27.118 143.61 27.118C142.448 27.118 141.664 26.572 141.062 25.942L140.418 26.782C141.09 27.51 142.098 28.182 143.708 28.182ZM149.009 28H154.637V26.936H152.579V17.724H151.599C151.039 18.06 150.381 18.298 149.471 18.466V19.278H151.291V26.936H149.009V28Z" fill="white"/>
<rect x="279" y="16" width="215" height="44" fill="white"/>
<path d="M322.533 34.6542V38.9275H315.832C316.089 37.5362 316.281 36.1449 316.409 34.6542H322.533ZM306.534 38.9275V34.6542H312.369C312.241 36.1449 312.113 37.5362 311.824 38.9275H306.534ZM315.447 28.3271C314.838 29.3209 314.133 30.3147 313.427 31.176H306.759C307.624 30.2484 308.362 29.3209 309.099 28.3271H315.447ZM320.834 49.7598C319.615 49.7598 319.423 49.6273 319.423 48.501V42.4389H326.573V31.176H317.916C319.07 29.7184 320.192 28.0621 320.93 26.7039L318.269 24.9482L317.627 25.1139H311.247C311.568 24.617 311.856 24.087 312.113 23.5901L308.009 22.795C306.342 26.1077 303.296 29.9834 299 32.8986C299.898 33.528 301.116 34.9193 301.693 35.8799C302.046 35.6149 302.398 35.3499 302.719 35.0518V42.4389H310.734C309.195 45.8178 306.118 48.6004 299.545 50.323C300.379 51.1843 301.276 52.6418 301.693 53.6356C309.773 51.3168 313.267 47.3085 314.934 42.4389H315.447V48.5673C315.447 52.1118 316.409 53.2712 320.256 53.2712H324.585C327.759 53.2712 328.753 51.913 329.169 47.0435C328.144 46.7785 326.508 46.1491 325.707 45.5197C325.579 49.1636 325.354 49.7598 324.264 49.7598H320.834Z" fill="url(#paint1_angular)"/>
<path d="M356.838 26.8364V29.0228H352.221V27.7309H348.502V29.0228H343.565V26.8364H356.838ZM355.492 35.383V36.7081H352.221V35.383H355.492ZM355.492 40.2857H352.221V38.9607H355.492V40.2857ZM345.104 40.2857V38.9607H348.502V40.2857H345.104ZM345.104 35.383H348.502V36.7081H345.104V35.383ZM342.763 31.7723H348.502V32.9648H341.866V42.6708H348.502V43.8634H340.359V46.7122H348.502V48.8986H352.221V46.7122H360.461V43.8634H352.221V42.6708H358.89V32.9648H352.221V31.7723H357.159V30.5466H360.493V23.9545H340.07V30.5466H342.763V31.7723ZM338.467 28.4265C338.05 26.9358 337.217 24.7164 336.608 22.9275L333.241 23.9876C333.786 25.7764 334.652 28.1946 335.005 29.7184L338.467 28.4265ZM337.986 37.8344L337.441 37.9337H336.928C337.666 35.648 338.499 32.9979 339.173 30.646H331.574V34.1574H334.524C333.786 36.7412 332.921 39.3913 332.151 41.3458H336.223C335.806 43.3002 335.197 45.3872 334.427 47.0435C333.337 47.706 332.119 48.8323 330.965 50.2567L333.53 54C334.299 52.1118 335.453 49.8592 336.191 49.8592C336.864 49.8592 337.986 50.9524 339.333 51.7143C341.641 53.1056 344.334 53.47 348.598 53.47C352.35 53.47 358.024 53.2381 360.653 53.0725C360.685 52.0124 361.327 50.0911 361.776 49.0311C358.217 49.5611 352.478 49.8923 348.791 49.8923C345.04 49.8923 342.026 49.6936 339.846 48.3354C339.044 47.8385 338.435 47.4079 337.954 47.0766C338.98 44.5921 339.75 41.6439 340.231 38.9275L337.986 37.8344Z" fill="url(#paint2_angular)"/>
<path d="M381.301 37.2381C382.134 38.3644 383.128 39.3913 384.186 40.3188H372.163C373.318 39.3582 374.311 38.3313 375.209 37.2381H381.301ZM392.618 37.2381V33.6936H377.646C378.031 32.9979 378.383 32.3354 378.736 31.6066H390.598V28.1284H386.527C387.264 27.0683 388.066 25.8758 388.835 24.6501L385.276 23.5238C384.699 24.882 383.673 26.7371 382.808 28.1284H380.05C380.531 26.5052 380.916 24.8489 381.205 23.1594L377.165 22.7619C376.973 24.5839 376.588 26.4058 375.979 28.1284H372.805L374.247 27.3665C373.798 26.207 372.676 24.5176 371.682 23.2919L368.637 24.8157C369.374 25.8095 370.144 27.0683 370.689 28.1284H366.136V31.6066H374.408C373.991 32.3354 373.574 32.9979 373.061 33.6936H364.18V37.2381H369.759C367.963 38.7288 365.847 40.0207 363.282 41.0807C364.116 41.8095 365.206 43.3665 365.623 44.3934C366.937 43.7971 368.092 43.1677 369.214 42.4389V43.8634H373.35C372.644 46.911 370.945 49.0311 365.398 50.323C366.2 51.118 367.194 52.7081 367.547 53.7019C374.408 51.7805 376.556 48.4348 377.357 43.8634H383.673C383.385 47.5072 383.064 49.0642 382.615 49.5611C382.263 49.8592 382.006 49.9586 381.461 49.9255C380.852 49.9586 379.505 49.9255 378.095 49.793C378.704 50.7867 379.121 52.3437 379.185 53.5031C380.884 53.5694 382.423 53.5362 383.353 53.4037C384.411 53.2712 385.18 52.9731 385.885 52.1449C386.783 51.118 387.232 48.4679 387.585 42.6377C388.803 43.3002 390.053 43.8302 391.4 44.2609C391.945 43.2671 393.003 41.7764 393.837 41.0145C390.823 40.2857 388.066 38.9275 385.982 37.2381H392.618Z" fill="url(#paint3_angular)"/>
<path d="M428.088 43.874C428.088 44.7229 428.788 45.4081 429.656 45.4081C430.523 45.4081 431.223 44.7229 431.223 43.874C431.223 43.0252 430.523 42.34 429.656 42.34C428.788 42.34 428.088 43.0252 428.088 43.874Z" fill="url(#paint4_angular)"/>
<path d="M445.81 38.7607L443.762 36.204H441.15V38.7607H445.81Z" fill="url(#paint5_angular)"/>
<path d="M440.627 43.874C440.627 44.7229 441.328 45.4081 442.195 45.4081C443.062 45.4081 443.762 44.7229 443.762 43.874C443.762 43.0252 443.062 42.34 442.195 42.34C441.328 42.34 440.627 43.0252 440.627 43.874Z" fill="url(#paint6_angular)"/>
<path fill-rule="evenodd" clip-rule="evenodd" d="M411.214 22H455.164V26.7619H457.519V22H474V31.5368C473.87 31.5282 473.739 31.5238 473.608 31.5238C470.357 31.5238 467.721 34.1888 467.721 37.4762C467.721 40.7636 470.357 43.4286 473.608 43.4286C473.739 43.4286 473.87 43.4242 474 43.4155V53.746H411.214V43.4155C414.282 43.2113 416.707 40.6302 416.707 37.4762C416.707 34.3221 414.282 31.741 411.214 31.5368V22ZM457.519 29.1429H455.164V33.9048H457.519V29.1429ZM455.164 36.2857H457.519V41.0476H455.164V36.2857ZM457.519 43.4286H455.164V48.1905H457.519V43.4286ZM455.164 50.5714H457.519V53.746H455.164V50.5714ZM441.15 34.67H444.285L447.419 38.7607V43.874H445.33C445.33 45.5717 443.929 46.9421 442.195 46.9421C440.46 46.9421 439.06 45.5717 439.06 43.874H432.79C432.79 45.5717 431.39 46.9421 429.656 46.9421C427.921 46.9421 426.521 45.5717 426.521 43.874H424.431V32.6246C424.431 31.4997 425.371 30.5793 426.521 30.5793H441.15V34.67Z" fill="url(#paint7_angular)"/>
<defs>
<linearGradient id="paint0_linear" x1="3.21306e-07" y1="38" x2="669.949" y2="38" gradientUnits="userSpaceOnUse">
<stop stop-color="#CF9F7F"/>
<stop offset="0.505208" stop-color="#E3BEA5"/>
<stop offset="1" stop-color="#CF9F7F"/>
</linearGradient>
<radialGradient id="paint1_angular" cx="0" cy="0" r="1" gradientUnits="userSpaceOnUse" gradientTransform="translate(492.034 33.042) rotate(176.114) scale(193.479 1129.24)">
<stop stop-color="#88654E"/>
<stop offset="1" stop-color="#A67E64"/>
</radialGradient>
<radialGradient id="paint2_angular" cx="0" cy="0" r="1" gradientUnits="userSpaceOnUse" gradientTransform="translate(492.034 33.042) rotate(176.114) scale(193.479 1129.24)">
<stop stop-color="#88654E"/>
<stop offset="1" stop-color="#A67E64"/>
</radialGradient>
<radialGradient id="paint3_angular" cx="0" cy="0" r="1" gradientUnits="userSpaceOnUse" gradientTransform="translate(492.034 33.042) rotate(176.114) scale(193.479 1129.24)">
<stop stop-color="#88654E"/>
<stop offset="1" stop-color="#A67E64"/>
</radialGradient>
<radialGradient id="paint4_angular" cx="0" cy="0" r="1" gradientUnits="userSpaceOnUse" gradientTransform="translate(492.034 33.042) rotate(176.114) scale(193.479 1129.24)">
<stop stop-color="#88654E"/>
<stop offset="1" stop-color="#A67E64"/>
</radialGradient>
<radialGradient id="paint5_angular" cx="0" cy="0" r="1" gradientUnits="userSpaceOnUse" gradientTransform="translate(492.034 33.042) rotate(176.114) scale(193.479 1129.24)">
<stop stop-color="#88654E"/>
<stop offset="1" stop-color="#A67E64"/>
</radialGradient>
<radialGradient id="paint6_angular" cx="0" cy="0" r="1" gradientUnits="userSpaceOnUse" gradientTransform="translate(492.034 33.042) rotate(176.114) scale(193.479 1129.24)">
<stop stop-color="#88654E"/>
<stop offset="1" stop-color="#A67E64"/>
</radialGradient>
<radialGradient id="paint7_angular" cx="0" cy="0" r="1" gradientUnits="userSpaceOnUse" gradientTransform="translate(492.034 33.042) rotate(176.114) scale(193.479 1129.24)">
<stop stop-color="#88654E"/>
<stop offset="1" stop-color="#A67E64"/>
</radialGradient>
</defs>
</svg>
