<svg width="1110" height="100" viewBox="0 0 1110 100" fill="none" xmlns="http://www.w3.org/2000/svg">
<rect width="1110" height="100" fill="url(#paint0_linear)"/>
<path d="M731.5 49.5C763 38 759 27.5912 802 17C845 6.40883 900.5 20.4088 900.5 20.4088V99.9088H620C663.5 46.9088 700 61 731.5 49.5Z" fill="#CF9F7F"/>
<path d="M822.205 33.4582C844.551 5.89263 875.076 0.332917 890.538 0H1110V100H702C708.484 87.5156 714.469 77.5281 742.401 64.5443C770.333 51.5606 794.274 67.9151 822.205 33.4582Z" fill="#E4BEA5"/>
<path d="M810 100C818 78.451 841.5 61.5107 866.5 57.0265C891.5 52.5423 914 10.3187 973.5 17.6648C1033 25.0109 1026 -2.76342 1059.5 0.2261L1110 0.226121V100H810Z" fill="#DCAD8E"/>
<path d="M60.472 45.388H43.588V47.944H60.472V45.388ZM42.256 65.584C40.528 66.016 38.8 66.484 37.108 66.916V58.6H41.212V56.08H37.108V48.16H41.788V45.676H29.836V48.16H34.516V56.08H30.304V58.6H34.516V67.564C32.536 68.068 30.772 68.536 29.332 68.896L29.944 71.452C33.4 70.516 38.08 69.184 42.58 67.924L42.256 65.584ZM57.016 73C56.26 73 56.116 72.856 56.116 71.848V58.312H62.38V55.72H42.004V58.312H46.828C46.468 66.304 45.46 71.2 38.188 73.828C38.764 74.26 39.484 75.232 39.736 75.844C47.62 72.82 48.988 67.204 49.42 58.312H53.488V71.884C53.488 74.692 54.136 75.52 56.656 75.52H59.752C61.984 75.52 62.668 74.188 62.884 69.22C62.164 69.04 61.048 68.608 60.508 68.104C60.4 72.316 60.256 73 59.5 73H57.016ZM80.74 43.408V72.028C80.74 72.748 80.452 73 79.696 73C79.012 73.036 76.42 73.072 73.792 72.964C74.224 73.72 74.728 74.98 74.908 75.736C78.256 75.772 80.488 75.7 81.784 75.268C83.044 74.8 83.584 74.008 83.584 72.028V43.408H80.74ZM89.344 52.48C92.404 57.628 95.284 64.324 96.148 68.572L98.956 67.384C98.056 63.1 95.032 56.548 91.864 51.508L89.344 52.48ZM71.344 51.76C70.48 56.584 68.5 62.776 65.296 66.556C66.016 66.844 67.168 67.492 67.816 67.96C71.056 63.964 73.144 57.52 74.296 52.3L71.344 51.76ZM123.724 54.316H130.096C129.232 55.288 128.188 56.332 127.216 57.016V59.5H122.32V61.696H127.216V68.032C127.216 68.392 127.108 68.5 126.676 68.5C126.244 68.536 124.912 68.536 123.4 68.5C123.76 69.148 124.12 70.084 124.228 70.768C126.244 70.768 127.576 70.732 128.404 70.336C129.34 69.94 129.556 69.292 129.556 68.068V61.696H134.38V59.5H129.556V57.664C131.068 56.404 132.688 54.748 133.876 53.2L132.364 52.084L131.932 52.228H123.868C124.408 51.328 124.912 50.284 125.416 49.204H134.38V46.936H126.28C126.712 45.784 127.072 44.524 127.396 43.336L125.092 42.76C124.3 46.324 122.824 49.888 120.952 52.228C121.528 52.552 122.428 53.272 122.896 53.668C123.184 53.308 123.472 52.912 123.724 52.48V54.316ZM113.5 53.956C113.5 58.276 113.104 64.252 109.756 68.752C110.296 69.076 111.088 69.76 111.484 70.228C114.616 66.124 115.48 60.796 115.696 56.332H119.188C118.9 64.504 118.504 67.492 117.928 68.212C117.712 68.608 117.424 68.68 117.028 68.644C116.596 68.644 115.66 68.644 114.616 68.536C114.904 69.148 115.12 70.084 115.192 70.804C116.308 70.84 117.388 70.84 118.072 70.768C118.864 70.66 119.44 70.408 119.944 69.724C120.808 68.608 121.168 65.224 121.564 55.216V54.1H115.732V53.992V50.032H122.248V47.728H118.216L118.504 47.656C118.144 46.396 117.316 44.416 116.596 42.904L114.256 43.372C114.796 44.74 115.516 46.468 115.912 47.728H110.404V50.032H113.5V53.956ZM109.108 48.484C108.28 47.008 106.516 44.704 105.004 42.94L102.988 43.984C104.392 45.784 106.156 48.268 106.984 49.816L109.108 48.484ZM109.216 59.968L108.784 60.04H105.22C107.164 57.628 109.72 53.848 111.124 51.76L109.324 50.968L108.82 51.184H101.8V53.38H107.344C105.868 55.576 103.852 58.42 103.096 59.248C102.484 59.896 101.944 60.148 101.404 60.292C101.692 60.832 102.196 62.092 102.376 62.74C102.664 62.452 103.6 62.236 104.5 62.236H107.74C106.66 67.744 104.32 71.74 101.188 73.972C101.728 74.332 102.592 75.268 102.952 75.808C104.68 74.476 106.228 72.64 107.452 70.3C110.26 74.44 114.76 75.16 122.176 75.16C126.1 75.16 130.6 75.088 133.984 74.872C134.092 74.152 134.452 72.964 134.848 72.388C131.212 72.712 125.992 72.856 122.212 72.856C115.3 72.856 110.764 72.316 108.46 68.14C109.324 65.944 110.008 63.388 110.44 60.472L109.216 59.968ZM170.164 49.456C169.228 47.944 167.428 45.46 166.024 43.588L164.044 44.56C165.448 46.468 167.176 49.096 168.04 50.608L170.164 49.456ZM146.764 50.788V53.164L142.336 53.596L142.552 55.216L146.764 54.784V55.432C146.764 57.376 147.16 58.24 149.248 58.24H153.352C154.144 58.24 155.116 58.204 155.548 58.06C155.476 57.52 155.404 56.98 155.368 56.404C154.864 56.548 153.784 56.584 153.244 56.584H149.788C149.104 56.584 148.996 56.332 148.996 55.468V54.568L152.92 54.172L152.704 52.624L148.996 52.984V50.788H154.72C154.504 51.904 154.216 53.02 153.964 53.812L155.908 54.28C156.412 52.984 156.952 50.968 157.348 49.168L155.764 48.808L155.368 48.88H148.744V46.972H156.34V45.1H148.744V42.868H146.26V48.88H139.312V58.888C139.312 63.352 139.132 69.472 137.116 73.864C137.656 74.116 138.592 74.8 138.988 75.268C141.22 70.624 141.58 63.676 141.58 58.888V50.788H146.764ZM156.844 59.464H142.732V61.336H156.844V59.464ZM145.756 64.36H153.424V66.88H145.756V64.36ZM155.62 68.428V62.812H143.668V68.428H155.62ZM168.004 56.26C167.14 59.356 165.7 62.452 163.9 65.26C163.468 62.452 163.072 59.068 162.784 55.216L170.524 54.244L170.2 51.868L162.64 52.84C162.424 49.744 162.316 46.468 162.28 43.048H159.796C159.904 46.576 160.012 49.996 160.192 53.128L156.988 53.56L157.348 55.936L160.372 55.54C160.696 60.364 161.236 64.612 161.956 67.924C160.3 69.976 158.428 71.704 156.448 72.892V71.848L152.776 72.172C153.316 71.2 153.892 70.084 154.396 69.004L152.164 68.572C151.804 69.652 151.12 71.2 150.58 72.388L148.204 72.604C147.916 71.488 147.34 69.94 146.872 68.716L144.964 69.076C145.396 70.192 145.828 71.632 146.116 72.784C144.46 72.928 142.948 73.036 141.688 73.144L141.976 75.232C145.828 74.872 151.264 74.332 156.448 73.828V72.964C157.132 73.432 157.852 74.152 158.32 74.728C159.868 73.72 161.38 72.316 162.748 70.732C163.792 73.864 165.196 75.7 167.104 75.736C168.4 75.772 169.696 74.26 170.38 68.68C169.912 68.428 168.904 67.816 168.472 67.276C168.22 70.732 167.752 72.676 167.104 72.676C166.132 72.604 165.268 71.056 164.62 68.428C166.924 65.116 168.832 61.228 170.02 57.376L168.004 56.26ZM189.64 49.636H181.684C181.72 47.584 181.756 45.496 181.756 43.372H179.128C179.128 45.496 179.128 47.584 179.092 49.636H174.052V52.264H179.02C178.732 61.264 177.652 69.22 173.188 73.936C173.836 74.332 174.808 75.196 175.204 75.772C180.064 70.516 181.288 61.912 181.612 52.264H187.048C186.796 66.052 186.472 70.948 185.644 71.956C185.392 72.46 185.032 72.568 184.456 72.532C183.808 72.532 182.26 72.532 180.604 72.388C181.072 73.144 181.324 74.296 181.396 75.088C182.98 75.196 184.636 75.196 185.608 75.052C186.688 74.944 187.336 74.62 187.984 73.684C189.1 72.136 189.352 66.916 189.64 51.004V49.636ZM195.112 70.012V49.924H202.096V70.012H195.112ZM192.592 47.332V75.196H195.112V72.568H202.096V74.944H204.76V47.332H192.592ZM219.304 68.824H214.696V58.06H219.304V68.824ZM221.644 71.164V55.756H214.804C215.56 53.02 216.136 50.068 216.604 47.044H223.012V44.596H209.872V47.044H214.048C213.148 53.272 211.636 59.14 209.008 62.992C209.512 63.532 210.34 64.792 210.592 65.332C211.24 64.396 211.852 63.352 212.392 62.236V74.116H214.696V71.164H221.644ZM223.3 74.116C225.028 72.172 225.676 68.824 226.036 65.728L224.02 65.224C223.696 68.176 222.976 71.272 221.428 73.036L223.3 74.116ZM227.476 66.34C227.872 68.428 228.088 71.164 228.016 72.964L229.996 72.64C230.032 70.876 229.744 68.176 229.312 66.052L227.476 66.34ZM231.292 66.052C232.012 67.816 232.66 70.084 232.876 71.596L234.712 71.056C234.46 69.58 233.776 67.276 233.02 65.584L231.292 66.052ZM226.972 57.7H231.94V61.12H226.972V57.7ZM231.94 46.756V50.032H226.972V46.756H231.94ZM231.94 55.54H226.972V52.192H231.94V55.54ZM234.316 61.12V57.7H240.328V55.54H234.316V52.192H240.328V50.032H234.316V46.756H241.156V44.416H224.524V63.46H239.356C239.032 69.976 238.6 72.496 238.024 73.18C237.7 73.504 237.448 73.576 236.872 73.576C236.332 73.576 234.892 73.54 233.38 73.396C233.74 74.044 233.992 75.016 234.028 75.7C235.648 75.808 237.16 75.808 237.988 75.736C238.96 75.664 239.536 75.412 240.112 74.728C241.012 73.684 241.444 70.588 241.84 62.236C241.876 61.876 241.876 61.12 241.876 61.12H234.316ZM238.816 68.824C238.348 67.708 237.34 65.944 236.332 64.648L234.856 65.26C235.792 66.592 236.836 68.392 237.268 69.58L238.816 68.824ZM264.412 48.448C263.692 47.008 262.288 44.668 261.136 42.976L258.904 43.804C260.02 45.604 261.388 48.016 262.036 49.456L264.412 48.448ZM277.732 69.076C275.392 66.88 270.892 63.316 267.364 60.58C267.436 60.328 267.508 60.004 267.58 59.716H277.732V57.232H267.94C267.976 56.692 267.976 56.224 267.976 55.72V52.048H276.904V49.564H271.324C272.404 47.836 273.592 45.64 274.6 43.732L271.936 42.868C271.144 44.884 269.848 47.62 268.66 49.564H257.104V52.048H265.348V55.684C265.348 56.188 265.348 56.692 265.312 57.232H255.988V59.716H264.916C264.16 62.884 261.928 66.376 255.628 69.04C256.24 69.508 257.068 70.408 257.428 70.948C262.432 68.608 265.096 65.728 266.5 62.92C269.884 65.584 273.808 68.86 275.86 70.948L277.732 69.076ZM253.432 48.448C252.496 46.936 250.696 44.668 249.148 42.904L247.096 44.02C248.608 45.82 250.444 48.34 251.308 49.852L253.432 48.448ZM253.396 59.968L252.928 60.04H249.184C251.164 57.628 253.828 53.92 255.268 51.796L253.504 51.004L253.072 51.184H245.8V53.38H251.452C249.94 55.576 247.852 58.456 247.024 59.284C246.448 59.932 245.872 60.148 245.332 60.292C245.62 60.868 246.16 62.092 246.34 62.74C246.592 62.452 247.528 62.236 248.428 62.236H251.92C250.804 67.78 248.464 71.74 245.224 73.972C245.764 74.332 246.664 75.268 246.988 75.808C248.716 74.512 250.3 72.712 251.524 70.372C254.332 74.44 258.868 75.16 266.176 75.16C270.1 75.16 274.6 75.088 277.984 74.872C278.092 74.152 278.452 72.964 278.848 72.388C275.212 72.712 269.992 72.856 266.212 72.856C259.372 72.856 254.836 72.28 252.532 68.248C253.432 66.052 254.116 63.424 254.584 60.472L253.396 59.968Z" fill="white"/>
<path d="M37.888 32.448V34.304H34.08V32.448H37.888ZM38.88 35.184V31.552H33.04V35.92H34.08V35.184H38.88ZM42.112 27.664H38.48C38.896 27.104 39.328 26.4 39.712 25.76L38.512 25.488C38.256 26.128 37.76 27.024 37.344 27.664H29.952V37.2H31.088V28.656H33.84C33.616 29.888 32.992 30.528 31.12 30.864C31.344 31.056 31.6 31.44 31.696 31.696C33.904 31.2 34.656 30.32 34.896 28.656H36.704V29.68C36.704 30.624 36.896 31.04 37.872 31.04H39.552C39.904 31.04 40.288 31.04 40.48 30.96C40.448 30.704 40.416 30.384 40.4 30.112C40.176 30.16 39.76 30.176 39.52 30.176H38.08C37.824 30.176 37.776 30.048 37.776 29.696V28.656H41.008V35.888C41.008 36.144 40.912 36.208 40.656 36.224C40.4 36.24 39.472 36.256 38.48 36.224C38.64 36.48 38.784 36.848 38.848 37.136C40.208 37.136 41.008 37.12 41.488 36.976C41.952 36.8 42.112 36.528 42.112 35.904V27.664ZM32.432 25.744C32.768 26.336 33.2 27.136 33.424 27.6L34.448 27.184C34.24 26.72 33.792 25.968 33.44 25.408L32.432 25.744ZM36.88 24.336C36.704 23.808 36.416 23.104 36.192 22.544L35.088 22.832C35.28 23.28 35.488 23.856 35.648 24.336H29.04V25.36H42.992V24.336H36.88ZM49.248 32.272L47.696 32.848V27.6H49.216V26.496H47.696V22.8H46.592V26.496H44.928V27.6H46.592V33.248C45.888 33.504 45.248 33.728 44.72 33.904L45.104 35.072C46.352 34.576 47.952 33.968 49.472 33.328L49.248 32.272ZM57.808 27.936C57.456 29.408 56.992 30.736 56.352 31.92C56.112 30.352 55.92 28.368 55.84 26.16H59.184V25.056H58.016L58.816 24.512C58.432 23.968 57.616 23.232 56.912 22.72L56.112 23.232C56.784 23.76 57.568 24.544 57.952 25.056H55.808C55.792 24.272 55.792 23.44 55.792 22.608H54.656C54.656 23.44 54.672 24.256 54.704 25.056H49.888V30C49.888 32.064 49.728 34.688 48.128 36.528C48.384 36.672 48.832 37.056 49.008 37.28C50.72 35.296 50.992 32.256 50.992 30.016V29.312H53.008C52.96 32.176 52.896 33.2 52.72 33.44C52.656 33.584 52.528 33.6 52.336 33.6C52.128 33.6 51.632 33.6 51.088 33.552C51.248 33.824 51.328 34.24 51.36 34.56C51.936 34.592 52.496 34.592 52.8 34.56C53.184 34.512 53.424 34.4 53.616 34.112C53.92 33.712 53.984 32.432 54.032 28.784C54.048 28.64 54.048 28.304 54.048 28.304H50.992V26.16H54.736C54.848 28.928 55.088 31.424 55.504 33.328C54.64 34.56 53.6 35.584 52.352 36.352C52.592 36.512 53.024 36.944 53.184 37.168C54.208 36.48 55.088 35.632 55.856 34.656C56.352 36.16 57.024 37.056 57.92 37.056C58.96 37.056 59.296 36.32 59.472 33.92C59.184 33.808 58.816 33.568 58.592 33.312C58.528 35.152 58.368 35.936 58.064 35.936C57.52 35.936 57.056 35.04 56.672 33.504C57.648 31.984 58.384 30.192 58.912 28.112L57.808 27.936ZM66.144 24.208V25.504H62.64V24.208H66.144ZM62.64 27.728V26.352H66.144V27.728H62.64ZM67.264 28.64V23.296H61.472V37.232H62.64V28.64H67.264ZM66.816 32.352V30.624H69.056V32.352H66.816ZM72.288 33.36V32.352H70.112V30.624H71.936V29.648H64.048V30.624H65.776V32.352H63.744V33.36H65.744C65.648 34.288 65.2 35.616 63.856 36.432C64.112 36.592 64.464 36.928 64.64 37.136C66.176 36.096 66.688 34.432 66.784 33.36H69.056V36.928H70.112V33.36H72.288ZM69.808 27.744V26.352H73.44V27.744H69.808ZM73.44 24.208V25.504H69.808V24.208H73.44ZM74.608 23.296H68.672V28.656H73.44V35.664C73.44 35.92 73.36 36.016 73.104 36.016C72.864 36.032 72 36.032 71.12 36C71.296 36.32 71.472 36.88 71.504 37.184C72.704 37.2 73.504 37.168 73.984 36.976C74.448 36.768 74.608 36.384 74.608 35.68V23.296ZM86.016 25.44H87.184V24.688H91.008V23.728H87.184V22.624H86.016V23.728H84.304V24.688H86.016V25.44ZM80.752 25.44H81.904V24.688H83.792V23.728H81.904V22.624H80.752V23.728H77.04V24.688H80.752V25.44ZM84.528 33.104V32.128H83.36V33.104H80.32C80.848 32.72 81.328 32.304 81.76 31.872H86.256C86.64 32.304 87.12 32.736 87.664 33.104H84.528ZM79.936 28.224H88.176V29.28H79.936V28.224ZM79.936 26.432H88.176V27.472H79.936V26.432ZM91.104 31.872V30.912H82.592C82.816 30.624 82.992 30.352 83.168 30.048H89.344V25.664H78.8V30.048H81.872C81.68 30.336 81.456 30.624 81.216 30.912H76.896V31.872H80.224C79.296 32.624 78.112 33.312 76.656 33.84C76.864 34.032 77.2 34.432 77.328 34.72C78.096 34.4 78.784 34.064 79.408 33.696V36.848H80.544V34.048H83.36V37.2H84.528V34.048H87.6V35.68C87.6 35.856 87.536 35.888 87.36 35.904C87.2 35.92 86.624 35.92 85.952 35.888C86.08 36.16 86.224 36.512 86.272 36.8C87.232 36.8 87.872 36.8 88.256 36.656C88.656 36.48 88.752 36.224 88.752 35.696V33.808C89.376 34.176 90.048 34.464 90.704 34.672C90.848 34.384 91.168 33.984 91.408 33.776C90.032 33.424 88.56 32.704 87.536 31.872H91.104ZM97.744 24.64V25.616H95.04V24.64H97.744ZM101.472 25.616H98.8V24.64H101.472V25.616ZM105.28 26.4V27.52H102.56V26.4H105.28ZM98.8 26.4H101.472V27.52H98.8V26.4ZM95.04 26.4H97.744V27.52H95.04V26.4ZM99.712 29.856L99.392 30.24C100.016 30.56 100.88 31.104 101.36 31.424L101.92 30.72C101.552 30.48 100.96 30.16 100.416 29.856H105.936C105.76 30.304 105.52 30.72 105.312 31.04L106.256 31.264C106.624 30.736 107.024 29.936 107.376 29.216L106.592 29.008L106.416 29.04H95.04V28.544V28.304H106.384V25.616H102.56V24.64H107.04V23.696H101.392C101.264 23.312 101.104 22.864 100.928 22.496L99.792 22.704C99.888 23.008 100.016 23.36 100.112 23.696H93.936V28.544C93.936 30.928 93.824 34.224 92.544 36.576C92.784 36.672 93.264 37.008 93.456 37.232C94.608 35.152 94.944 32.24 95.024 29.856H99.712ZM103.104 30.56C103.744 31.136 104.576 31.968 104.992 32.48L105.728 31.92C105.312 31.44 104.464 30.656 103.824 30.096L103.104 30.56ZM96.08 32.464C96.56 31.936 97.072 31.136 97.456 30.576L96.656 30.096C96.288 30.656 95.744 31.44 95.248 31.904L96.08 32.464ZM98.416 33.856H103.264C102.608 34.352 101.76 34.784 100.8 35.12C99.856 34.816 98.976 34.432 98.224 34L98.416 33.856ZM104.32 33.056L104.112 33.104H99.408C99.664 32.88 99.904 32.672 100.096 32.448H102.096C102.992 32.448 103.28 32.176 103.376 31.136C103.104 31.104 102.752 30.992 102.544 30.864C102.496 31.584 102.4 31.68 101.952 31.68H99.6C98.944 31.68 98.832 31.632 98.832 31.312V30.32H97.856V31.312C97.856 32.048 98.064 32.336 98.832 32.416C98.448 32.768 97.984 33.12 97.44 33.472C97.072 33.2 96.752 32.912 96.496 32.608L95.584 33.008C95.872 33.36 96.192 33.664 96.56 33.952C96 34.24 95.392 34.496 94.736 34.736C94.976 34.896 95.264 35.216 95.408 35.44C96.096 35.152 96.736 34.864 97.328 34.528C97.936 34.928 98.608 35.28 99.328 35.6C97.84 35.984 96.208 36.256 94.64 36.4C94.816 36.624 95.04 37.008 95.12 37.264C96.992 37.04 98.96 36.688 100.704 36.096C102.4 36.656 104.336 37.008 106.336 37.2C106.464 36.912 106.72 36.48 106.944 36.24C105.264 36.112 103.648 35.872 102.192 35.52C103.328 34.992 104.32 34.336 105.008 33.52L104.32 33.056ZM112.986 36H119.418V34.784H117.066V24.256H115.946C115.306 24.64 114.554 24.912 113.514 25.104V26.032H115.594V34.784H112.986V36ZM120.629 38.864H121.701L126.485 23.296H125.429L120.629 38.864ZM128.127 36H134.559V34.784H132.207V24.256H131.087C130.447 24.64 129.695 24.912 128.655 25.104V26.032H130.735V34.784H128.127V36ZM136.33 32.08H140.426V30.96H136.33V32.08ZM142.549 36H148.981V34.784H146.629V24.256H145.509C144.869 24.64 144.117 24.912 143.077 25.104V26.032H145.157V34.784H142.549V36ZM150.72 36H158.096V34.736H154.848C154.256 34.736 153.536 34.8 152.928 34.848C155.68 32.24 157.52 29.856 157.52 27.52C157.52 25.424 156.208 24.048 154.112 24.048C152.624 24.048 151.616 24.736 150.656 25.776L151.504 26.608C152.144 25.84 152.976 25.248 153.936 25.248C155.392 25.248 156.096 26.224 156.096 27.568C156.096 29.584 154.4 31.92 150.72 35.136V36ZM159.067 38.864H160.139L164.923 23.296H163.867L159.067 38.864ZM169.38 36.208C171.46 36.208 173.14 34.96 173.14 32.864C173.14 31.264 172.036 30.208 170.66 29.888V29.824C171.892 29.36 172.74 28.416 172.74 26.992C172.74 25.136 171.3 24.048 169.332 24.048C167.972 24.048 166.932 24.64 166.052 25.456L166.836 26.384C167.492 25.712 168.324 25.248 169.268 25.248C170.484 25.248 171.252 25.984 171.252 27.104C171.252 28.368 170.42 29.344 168.004 29.344V30.464C170.708 30.464 171.652 31.408 171.652 32.8C171.652 34.16 170.66 34.992 169.268 34.992C167.94 34.992 167.044 34.368 166.356 33.648L165.62 34.608C166.388 35.44 167.54 36.208 169.38 36.208ZM175.439 36H181.871V34.784H179.519V24.256H178.399C177.759 24.64 177.007 24.912 175.967 25.104V26.032H178.047V34.784H175.439V36Z" fill="white"/>
<rect x="323" y="24" width="259" height="52" fill="white"/>
<path d="M372.45 45.8178V51.1594H364.064C364.385 49.4203 364.626 47.6812 364.786 45.8178H372.45ZM352.429 51.1594V45.8178H359.731C359.57 47.6812 359.41 49.4203 359.049 51.1594H352.429ZM363.583 37.9089C362.82 39.1511 361.938 40.3934 361.055 41.47H352.71C353.793 40.3106 354.716 39.1511 355.638 37.9089H363.583ZM370.323 64.6998C368.799 64.6998 368.558 64.5342 368.558 63.1263V55.5487H377.505V41.47H366.672C368.116 39.648 369.521 37.5776 370.444 35.8799L367.113 33.6853L366.311 33.8923H358.327C358.728 33.2712 359.089 32.6087 359.41 31.9876L354.274 30.9938C352.188 35.1346 348.376 39.9793 343 43.6232C344.123 44.4099 345.648 46.1491 346.37 47.3499C346.812 47.0186 347.253 46.6874 347.654 46.3147V55.5487H357.685C355.759 59.7723 351.907 63.2505 343.682 65.4037C344.725 66.4803 345.849 68.3023 346.37 69.5445C356.481 66.646 360.854 61.6356 362.941 55.5487H363.583V63.2091C363.583 67.6398 364.786 69.089 369.601 69.089H375.017C378.99 69.089 380.233 67.3913 380.755 61.3043C379.471 60.9731 377.425 60.1863 376.422 59.3996C376.261 63.9545 375.98 64.6998 374.616 64.6998H370.323Z" fill="url(#paint1_angular)"/>
<path d="M415.38 36.0456V38.7785H409.603V37.1636H404.949V38.7785H398.77V36.0456H415.38ZM413.695 46.7288V48.3851H409.603V46.7288H413.695ZM413.695 52.8571H409.603V51.2008H413.695V52.8571ZM400.696 52.8571V51.2008H404.949V52.8571H400.696ZM400.696 46.7288H404.949V48.3851H400.696V46.7288ZM397.767 42.2153H404.949V43.706H396.643V55.8385H404.949V57.3292H394.758V60.8903H404.949V63.6232H409.603V60.8903H419.914V57.3292H409.603V55.8385H417.948V43.706H409.603V42.2153H415.782V40.6832H419.954V32.4431H394.396V40.6832H397.767V42.2153ZM392.39 38.0331C391.869 36.1698 390.826 33.3954 390.063 31.1594L385.85 32.4845C386.533 34.7205 387.616 37.7433 388.057 39.648L392.39 38.0331ZM391.789 49.793L391.106 49.9172H390.464C391.387 47.06 392.43 43.7474 393.273 40.8075H383.764V45.1967H387.455C386.533 48.4265 385.449 51.7391 384.486 54.1822H389.582C389.06 56.6253 388.298 59.234 387.335 61.3043C385.971 62.1325 384.446 63.5404 383.002 65.3209L386.212 70C387.174 67.6398 388.619 64.824 389.542 64.824C390.384 64.824 391.789 66.1905 393.474 67.1429C396.362 68.882 399.733 69.3375 405.069 69.3375C409.763 69.3375 416.865 69.0476 420.155 68.8406C420.195 67.5155 420.997 65.1139 421.559 63.7888C417.106 64.4513 409.924 64.8654 405.31 64.8654C400.615 64.8654 396.844 64.617 394.116 62.9193C393.113 62.2981 392.35 61.7598 391.748 61.3458C393.032 58.2402 393.995 54.5549 394.597 51.1594L391.789 49.793Z" fill="url(#paint2_angular)"/>
<path d="M445.994 49.0476C447.037 50.4555 448.28 51.7391 449.605 52.8986H434.559C436.003 51.6977 437.247 50.4141 438.37 49.0476H445.994ZM460.157 49.0476V44.617H441.42C441.901 43.7474 442.342 42.9193 442.784 42.0083H457.629V37.6605H452.533C453.456 36.3354 454.459 34.8447 455.422 33.3126L450.969 31.9048C450.246 33.6025 448.963 35.9213 447.879 37.6605H444.429C445.031 35.6315 445.512 33.5611 445.873 31.4493L440.818 30.9524C440.577 33.2298 440.096 35.5072 439.333 37.6605H435.361L437.167 36.7081C436.605 35.2588 435.201 33.147 433.957 31.6149L430.145 33.5197C431.068 34.7619 432.031 36.3354 432.713 37.6605H427.016V42.0083H437.367C436.846 42.9193 436.324 43.7474 435.682 44.617H424.568V49.0476H431.55C429.303 50.911 426.655 52.5259 423.445 53.8509C424.488 54.7619 425.852 56.7081 426.374 57.9917C428.019 57.2464 429.463 56.4596 430.867 55.5487V57.3292H436.043C435.161 61.1387 433.034 63.7888 426.093 65.4037C427.096 66.3975 428.34 68.3851 428.781 69.6273C437.367 67.2257 440.055 63.0435 441.059 57.3292H448.963C448.601 61.8841 448.2 63.8302 447.639 64.4513C447.197 64.824 446.876 64.9482 446.194 64.9068C445.432 64.9482 443.747 64.9068 441.981 64.7412C442.744 65.9834 443.265 67.9296 443.345 69.3789C445.472 69.4617 447.398 69.4203 448.561 69.2547C449.885 69.089 450.848 68.7164 451.731 67.6812C452.854 66.3975 453.416 63.0849 453.857 55.7971C455.382 56.6253 456.947 57.2878 458.632 57.8261C459.314 56.5839 460.638 54.7205 461.681 53.7681C457.91 52.8571 454.459 51.1594 451.851 49.0476H460.157Z" fill="url(#paint3_angular)"/>
<path d="M504.545 57.3426C504.545 58.4036 505.421 59.2601 506.506 59.2601C507.592 59.2601 508.468 58.4036 508.468 57.3426C508.468 56.2815 507.592 55.425 506.506 55.425C505.421 55.425 504.545 56.2815 504.545 57.3426Z" fill="url(#paint4_angular)"/>
<path d="M526.723 50.9508L524.16 47.755H520.89V50.9508H526.723Z" fill="url(#paint5_angular)"/>
<path d="M520.237 57.3426C520.237 58.4036 521.113 59.2601 522.198 59.2601C523.283 59.2601 524.16 58.4036 524.16 57.3426C524.16 56.2815 523.283 55.425 522.198 55.425C521.113 55.425 520.237 56.2815 520.237 57.3426Z" fill="url(#paint6_angular)"/>
<path fill-rule="evenodd" clip-rule="evenodd" d="M483.427 30H538.428V35.9524H541.375V30H562V41.921C561.838 41.9102 561.674 41.9048 561.509 41.9048C557.441 41.9048 554.143 45.236 554.143 49.3452C554.143 53.4545 557.441 56.7857 561.509 56.7857C561.674 56.7857 561.838 56.7802 562 56.7694V69.6825H483.427V56.7694C487.267 56.5142 490.303 53.2878 490.303 49.3452C490.303 45.4027 487.267 42.1763 483.427 41.921V30ZM541.375 38.9286H538.428V44.881H541.375V38.9286ZM538.428 47.8571H541.375V53.8095H538.428V47.8571ZM541.375 56.7857H538.428V62.7381H541.375V56.7857ZM538.428 65.7143H541.375V69.6825H538.428V65.7143ZM520.89 45.8375H524.813L528.736 50.9508V57.3426H526.121C526.121 59.4646 524.369 61.1776 522.198 61.1776C520.027 61.1776 518.275 59.4646 518.275 57.3426H510.429C510.429 59.4646 508.677 61.1776 506.506 61.1776C504.335 61.1776 502.583 59.4646 502.583 57.3426H499.968V43.2808C499.968 41.8746 501.145 40.7241 502.583 40.7241H520.89V45.8375Z" fill="url(#paint7_angular)"/>
<defs>
<linearGradient id="paint0_linear" x1="5.16884e-07" y1="50" x2="1077.74" y2="50" gradientUnits="userSpaceOnUse">
<stop stop-color="#CF9F7F"/>
<stop offset="0.505208" stop-color="#E3BEA5"/>
<stop offset="1" stop-color="#CF9F7F"/>
</linearGradient>
<radialGradient id="paint1_angular" cx="0" cy="0" r="1" gradientUnits="userSpaceOnUse" gradientTransform="translate(584.569 43.8026) rotate(176.118) scale(242.124 1411.56)">
<stop stop-color="#88654E"/>
<stop offset="1" stop-color="#A67E64"/>
</radialGradient>
<radialGradient id="paint2_angular" cx="0" cy="0" r="1" gradientUnits="userSpaceOnUse" gradientTransform="translate(584.569 43.8026) rotate(176.118) scale(242.124 1411.56)">
<stop stop-color="#88654E"/>
<stop offset="1" stop-color="#A67E64"/>
</radialGradient>
<radialGradient id="paint3_angular" cx="0" cy="0" r="1" gradientUnits="userSpaceOnUse" gradientTransform="translate(584.569 43.8026) rotate(176.118) scale(242.124 1411.56)">
<stop stop-color="#88654E"/>
<stop offset="1" stop-color="#A67E64"/>
</radialGradient>
<radialGradient id="paint4_angular" cx="0" cy="0" r="1" gradientUnits="userSpaceOnUse" gradientTransform="translate(584.569 43.8026) rotate(176.118) scale(242.124 1411.56)">
<stop stop-color="#88654E"/>
<stop offset="1" stop-color="#A67E64"/>
</radialGradient>
<radialGradient id="paint5_angular" cx="0" cy="0" r="1" gradientUnits="userSpaceOnUse" gradientTransform="translate(584.569 43.8026) rotate(176.118) scale(242.124 1411.56)">
<stop stop-color="#88654E"/>
<stop offset="1" stop-color="#A67E64"/>
</radialGradient>
<radialGradient id="paint6_angular" cx="0" cy="0" r="1" gradientUnits="userSpaceOnUse" gradientTransform="translate(584.569 43.8026) rotate(176.118) scale(242.124 1411.56)">
<stop stop-color="#88654E"/>
<stop offset="1" stop-color="#A67E64"/>
</radialGradient>
<radialGradient id="paint7_angular" cx="0" cy="0" r="1" gradientUnits="userSpaceOnUse" gradientTransform="translate(584.569 43.8026) rotate(176.118) scale(242.124 1411.56)">
<stop stop-color="#88654E"/>
<stop offset="1" stop-color="#A67E64"/>
</radialGradient>
</defs>
</svg>
