<svg width="26" height="19" viewBox="0 0 26 19" fill="none" xmlns="http://www.w3.org/2000/svg">
<g clip-path="url(#clip0)">
<path fill-rule="evenodd" clip-rule="evenodd" d="M25.9766 9.19632C25.9766 9.19632 25.9766 13.4505 25.4332 15.4895C25.135 16.6145 24.2544 17.5 23.1372 17.8011C21.111 18.3473 12.988 18.3473 12.988 18.3473C12.988 18.3473 4.8649 18.3473 2.83945 17.8011C1.72153 17.5 0.841635 16.6145 0.54267 15.4895C0 13.4505 0 9.19632 0 9.19632C0 9.19632 0 4.94281 0.54267 2.9039C0.841635 1.77888 1.72153 0.892615 2.83945 0.592233C4.8649 0.0460205 12.988 0.0460205 12.988 0.0460205C12.988 0.0460205 21.111 0.0460205 23.1372 0.592233C24.2544 0.892615 25.135 1.77888 25.4332 2.9039C25.9766 4.94281 25.9766 9.19632 25.9766 9.19632ZM17.121 9.19703L10.3313 5.33387V13.0588L17.121 9.19703Z" fill="white"/>
</g>
<defs>
<clipPath id="clip0">
<rect width="26" height="18.4167" fill="white"/>
</clipPath>
</defs>
</svg>
