<svg xmlns="http://www.w3.org/2000/svg" viewBox="0 0 367 258" width="24" height="17">
	<defs>
		<clipPath clipPathUnits="userSpaceOnUse" id="cp1">
			<path d="M0 0L367 0L367 258L0 258L0 0Z" />
		</clipPath>
	</defs>
	<style>
		tspan { white-space:pre }
		.shp0 { fill: #ffffff } 
	</style>
	<g id="Clip-Path: Page 1" clip-path="url(#cp1)">
		<g id="Page 1">
			<path id="Path 1" fill-rule="evenodd" class="shp0" d="M366.67 128.83C366.67 128.83 366.67 188.88 359 217.66C354.79 233.54 342.36 246.04 326.59 250.29C297.99 258 183.33 258 183.33 258C183.33 258 68.67 258 40.08 250.29C24.3 246.04 11.88 233.54 7.66 217.66C0 188.88 0 128.83 0 128.83C0 128.83 0 68.79 7.66 40.01C11.88 24.13 24.3 11.62 40.08 7.38C68.67 -0.33 183.33 -0.33 183.33 -0.33C183.33 -0.33 297.99 -0.33 326.59 7.38C342.36 11.62 354.79 24.13 359 40.01C366.67 68.79 366.67 128.83 366.67 128.83ZM241.67 128.84L145.83 74.31L145.83 183.35L241.67 128.84Z" />
		</g>
	</g>
</svg>