<svg width="100" height="44" viewBox="0 0 100 44" fill="none" xmlns="http://www.w3.org/2000/svg">
<path d="M64.4803 16.5186C64.4803 15.9264 65.0411 15.4874 65.623 15.61C67.1266 15.9267 69.8791 16.42 72.4385 16.42C74.9979 16.42 77.7504 15.9267 79.254 15.61C79.8359 15.4874 80.3968 15.9264 80.3968 16.5186C80.3968 16.9879 80.0392 17.3789 79.5692 17.4157C78.115 17.5299 75.0113 17.7469 72.4385 17.7469C69.8658 17.7469 66.762 17.5299 65.3078 17.4157C64.8379 17.3789 64.4803 16.9879 64.4803 16.5186Z" fill="white"/>
<path d="M64.0438 29.2389C63.852 29.0967 63.8081 28.831 63.942 28.6316C64.5319 27.7529 66.0736 25.3639 67.0902 22.9431C68.0019 20.7723 68.7369 18.4926 69.084 17.3618C69.2125 16.943 69.6226 16.6656 70.0635 16.7051C70.6422 16.757 71.0138 17.3204 70.8128 17.8599C70.3389 19.1317 69.441 21.3809 68.2518 23.6319C66.8413 26.3016 65.2741 28.3792 64.6572 29.1589C64.508 29.3475 64.2356 29.3811 64.0438 29.2389Z" fill="white"/>
<path d="M74.563 17.1473C74.8509 17.0161 75.1953 17.1616 75.3024 17.4555C75.7043 18.5578 76.7021 21.0925 78.0707 23.1647C79.1866 24.8544 80.8081 26.5337 81.8825 27.5687C82.4254 28.0918 82.3395 28.9852 81.6907 29.3642C81.1986 29.6517 80.5622 29.5284 80.2283 29.0676C79.452 27.9961 78.0497 25.9669 76.824 23.6933C75.4157 21.0809 74.588 18.6775 74.2907 17.742C74.2149 17.5035 74.3325 17.2524 74.563 17.1473Z" fill="white"/>
<path d="M71.2353 13.4519C71.152 12.6808 71.7566 12 72.5358 12C73.2936 12 73.8903 12.6453 73.8352 13.3977C73.7038 15.1897 73.5034 18.4498 73.5034 21.6546C73.5034 24.8594 73.7038 28.1195 73.8352 29.9115C73.8903 30.6639 73.2936 31.3093 72.5358 31.3093C71.7566 31.3093 71.152 30.6285 71.2353 29.8573C71.4323 28.0323 71.73 24.7614 71.73 21.6546C71.73 18.5478 71.4323 15.2769 71.2353 13.4519Z" fill="white"/>
<path d="M46.8772 14.9732C46.8772 14.44 47.3848 14.046 47.908 14.1598C49.2176 14.4448 51.5714 14.8788 53.7618 14.8788C55.9522 14.8788 58.306 14.4448 59.6156 14.1598C60.1389 14.046 60.6464 14.44 60.6464 14.9732C60.6464 15.3922 60.3278 15.7417 59.9084 15.7758C58.6412 15.8788 55.9745 16.0717 53.7618 16.0717C51.5491 16.0717 48.8824 15.8788 47.6153 15.7758C47.1958 15.7417 46.8772 15.3922 46.8772 14.9732Z" fill="white"/>
<path d="M46 19.9642C46 19.4019 46.5296 18.9832 47.0832 19.0944C48.5809 19.3951 51.3961 19.8789 54.0112 19.8789C56.6262 19.8789 59.4415 19.3951 60.9392 19.0944C61.4928 18.9832 62.0223 19.4019 62.0223 19.9642C62.0223 20.4151 61.677 20.7903 61.2253 20.824C59.7772 20.9319 56.6225 21.1419 54.0112 21.1419C51.3999 21.1419 48.2452 20.9319 46.7971 20.824C46.3454 20.7903 46 20.4151 46 19.9642Z" fill="white"/>
<path d="M49.5053 26.2436C49.5053 25.7655 49.9982 25.4307 50.4567 25.5731C51.2213 25.8105 52.337 26.087 53.3862 26.087C54.4354 26.087 55.5512 25.8105 56.3157 25.5731C56.7743 25.4307 57.2671 25.7655 57.2671 26.2436C57.2671 26.5761 57.0225 26.8577 56.691 26.8985C55.929 26.9922 54.5468 27.1395 53.3862 27.1395C52.2256 27.1395 50.8435 26.9922 50.0814 26.8985C49.7499 26.8577 49.5053 26.5761 49.5053 26.2436Z" fill="white"/>
<path d="M49.2549 22.4541C49.2549 21.9754 49.7553 21.6436 50.2124 21.7925C50.9248 22.0246 51.9343 22.2842 52.8854 22.2842C53.8365 22.2842 54.846 22.0246 55.5585 21.7925C56.0155 21.6436 56.5159 21.9754 56.5159 22.4541C56.5159 22.7798 56.2784 23.0563 55.954 23.0987C55.2367 23.1926 53.9596 23.3368 52.8854 23.3368C51.8113 23.3368 50.5342 23.1926 49.8168 23.0987C49.4924 23.0563 49.2549 22.7798 49.2549 22.4541Z" fill="white"/>
<path d="M47.7202 18.6852C47.5314 18.4364 47.6216 18.0713 47.8996 17.9322C48.721 17.5212 50.2849 16.6634 51.3624 15.6096C52.1857 14.8044 52.8282 13.7703 53.2446 12.9906C53.5244 12.4668 54.2491 12.3336 54.6575 12.7616C54.9022 13.0182 54.9548 13.4043 54.765 13.705C54.3116 14.4231 53.3734 15.7372 52.1113 16.6026C50.722 17.5552 49.0213 18.4543 48.303 18.8221C48.1013 18.9255 47.8579 18.8667 47.7202 18.6852Z" fill="white"/>
<path d="M58.1811 19.8951C58.1811 19.8951 58.5718 22.8734 58.4365 25.1089C58.3011 27.3445 57.9308 28.921 56.371 29.3335C54.8112 29.7459 54.7787 28.5711 54.1364 28.0906C53.4941 27.61 52.509 27.9885 52.3212 28.6609C52.1335 29.3333 52.509 29.8652 53.0098 30.2455C53.5106 30.6258 55.1716 31.14 57.0772 30.3262C58.9827 29.5123 59.3407 27.7226 59.5931 25.513C59.8455 23.3033 59.9966 19.8951 59.9966 19.8951L58.1811 19.8951Z" fill="white"/>
<path d="M55.2241 15.4827C55.4265 15.3165 55.7292 15.3594 55.8928 15.5668C56.23 15.9942 56.8181 16.6681 57.4426 17.0536C57.949 17.3662 58.8138 17.4383 59.5214 17.4363C60.0392 17.4348 60.4363 17.9675 60.2431 18.4508C60.1386 18.7122 59.8852 18.8804 59.6062 18.8543C58.8863 18.7869 57.4917 18.5723 56.6159 17.8966C55.7499 17.2283 55.294 16.3917 55.102 15.9612C55.0264 15.7917 55.0821 15.5994 55.2241 15.4827Z" fill="white"/>
<path d="M49.1852 22.7029C49.1056 22.2489 49.4513 21.8159 49.9142 21.8159C50.3554 21.8159 50.6942 22.2104 50.6419 22.6466C50.5687 23.2574 50.4876 24.1271 50.4876 24.9849C50.4876 25.8426 50.5687 26.7124 50.6419 27.3231C50.6942 27.7593 50.3554 28.1538 49.9142 28.1538C49.4513 28.1538 49.1056 27.7208 49.1852 27.2668C49.293 26.6525 49.4091 25.8014 49.4091 24.9849C49.4091 24.1683 49.293 23.3172 49.1852 22.7029Z" fill="white"/>
<path d="M55.2041 22.6394C55.1233 22.2232 55.4371 21.8159 55.863 21.8159C56.2664 21.8159 56.5734 22.1825 56.5204 22.5806C56.4564 23.0616 56.3908 23.7105 56.3908 24.3511C56.3908 24.9916 56.4564 25.6406 56.5204 26.1215C56.5734 26.5196 56.2664 26.8862 55.863 26.8862C55.4371 26.8862 55.1233 26.479 55.2041 26.0627C55.2971 25.583 55.3893 24.9552 55.3893 24.3511C55.3893 23.7469 55.2971 23.1191 55.2041 22.6394Z" fill="white"/>
<path d="M84.8549 14.9732C84.8549 14.44 85.3625 14.046 85.8857 14.1598C87.1953 14.4448 89.5491 14.8788 91.7395 14.8788C93.9299 14.8788 96.2837 14.4448 97.5933 14.1598C98.1165 14.046 98.6241 14.44 98.6241 14.9732C98.6241 15.3922 98.3055 15.7417 97.886 15.7758C96.6189 15.8788 93.9522 16.0717 91.7395 16.0717C89.5268 16.0717 86.8601 15.8788 85.5929 15.7758C85.1735 15.7417 84.8549 15.3922 84.8549 14.9732Z" fill="white"/>
<path d="M83.9776 19.9642C83.9776 19.4019 84.5072 18.9832 85.0608 19.0944C86.5585 19.3951 89.3737 19.8789 91.9888 19.8789C94.6038 19.8789 97.4191 19.3951 98.9168 19.0944C99.4704 18.9832 99.9999 19.4019 99.9999 19.9642C99.9999 20.4151 99.6546 20.7903 99.2029 20.824C97.7548 20.9319 94.6001 21.1419 91.9888 21.1419C89.3775 21.1419 86.2228 20.9319 84.7747 20.824C84.323 20.7903 83.9776 20.4151 83.9776 19.9642Z" fill="white"/>
<path d="M87.4831 26.2436C87.4831 25.7655 87.9759 25.4307 88.4345 25.5731C89.199 25.8105 90.3148 26.087 91.364 26.087C92.4132 26.087 93.5289 25.8105 94.2934 25.5731C94.752 25.4307 95.2448 25.7655 95.2448 26.2436C95.2448 26.5761 95.0003 26.8577 94.6687 26.8985C93.9067 26.9922 92.5246 27.1395 91.364 27.1395C90.2034 27.1395 88.8212 26.9922 88.0592 26.8985C87.7276 26.8577 87.4831 26.5761 87.4831 26.2436Z" fill="white"/>
<path d="M87.2326 22.4541C87.2326 21.9754 87.733 21.6436 88.1901 21.7925C88.9025 22.0246 89.9121 22.2842 90.8631 22.2842C91.8142 22.2842 92.8238 22.0246 93.5362 21.7925C93.9933 21.6436 94.4937 21.9754 94.4937 22.4541C94.4937 22.7798 94.2561 23.0563 93.9318 23.0987C93.2144 23.1926 91.9373 23.3368 90.8631 23.3368C89.789 23.3368 88.5119 23.1926 87.7945 23.0987C87.4702 23.0563 87.2326 22.7798 87.2326 22.4541Z" fill="white"/>
<path d="M85.6978 18.6852C85.509 18.4364 85.5992 18.0713 85.8773 17.9322C86.6987 17.5212 88.2625 16.6634 89.34 15.6096C90.1633 14.8044 90.8058 13.7703 91.2223 12.9906C91.502 12.4668 92.2267 12.3336 92.6351 12.7616C92.8799 13.0182 92.9324 13.4043 92.7426 13.705C92.2892 14.4231 91.351 15.7372 90.0889 16.6026C88.6997 17.5552 86.9989 18.4543 86.2807 18.8221C86.0789 18.9255 85.8355 18.8667 85.6978 18.6852Z" fill="white"/>
<path d="M96.1601 19.8949C96.1601 19.8949 96.5508 22.8732 96.4153 25.1087C96.2799 27.3442 95.9095 28.9207 94.3496 29.3332C92.7898 29.7457 92.7574 28.5709 92.1151 28.0904C91.4728 27.6098 90.4876 27.9884 90.2998 28.6608C90.112 29.3332 90.4876 29.865 90.9884 30.2453C91.4891 30.6255 93.1502 31.1398 95.0558 30.3258C96.9615 29.5119 97.3195 27.7223 97.572 25.5127C97.8244 23.3031 97.9756 19.8949 97.9756 19.8949L96.1601 19.8949Z" fill="white"/>
<path d="M93.2018 15.4827C93.4042 15.3165 93.7069 15.3594 93.8705 15.5668C94.2077 15.9942 94.7958 16.6681 95.4203 17.0536C95.9267 17.3662 96.7915 17.4383 97.4991 17.4363C98.0169 17.4348 98.414 17.9675 98.2208 18.4508C98.1163 18.7122 97.8629 18.8804 97.5839 18.8543C96.864 18.7869 95.4694 18.5723 94.5936 17.8966C93.7276 17.2283 93.2717 16.3917 93.0797 15.9612C93.0041 15.7917 93.0598 15.5994 93.2018 15.4827Z" fill="white"/>
<path d="M87.1628 22.7029C87.0832 22.2489 87.4289 21.8159 87.8918 21.8159C88.3331 21.8159 88.6718 22.2104 88.6195 22.6466C88.5463 23.2574 88.4653 24.1271 88.4653 24.9849C88.4653 25.8426 88.5463 26.7124 88.6195 27.3231C88.6718 27.7593 88.3331 28.1538 87.8918 28.1538C87.4289 28.1538 87.0832 27.7208 87.1628 27.2668C87.2706 26.6525 87.3867 25.8014 87.3867 24.9849C87.3867 24.1683 87.2706 23.3172 87.1628 22.7029Z" fill="white"/>
<path d="M93.1818 22.6394C93.101 22.2232 93.4148 21.8159 93.8407 21.8159C94.2441 21.8159 94.5511 22.1825 94.4981 22.5806C94.4341 23.0616 94.3685 23.7105 94.3685 24.3511C94.3685 24.9916 94.4341 25.6406 94.4981 26.1215C94.5511 26.5196 94.2441 26.8862 93.8407 26.8862C93.4148 26.8862 93.101 26.479 93.1818 26.0627C93.2748 25.583 93.367 24.9552 93.367 24.3511C93.367 23.7469 93.2748 23.1191 93.1818 22.6394Z" fill="white"/>
<path d="M41.1135 15.0433C41.9749 14.7297 42.4248 13.7739 42.0472 12.9386C40.1301 8.69699 36.9093 5.15828 32.8333 2.85218C28.2742 0.272729 22.9442 -0.595307 17.8022 0.404201C12.6602 1.40371 8.04352 4.20516 4.78262 8.30467C1.52172 12.4042 -0.16941 17.5327 0.0134016 22.7678C0.196213 28.0029 2.24097 33.0009 5.77989 36.863C9.31882 40.725 14.1196 43.1976 19.3189 43.836C24.5181 44.4744 29.7745 43.2367 34.1426 40.3455C38.0478 37.7607 41.0139 34.0059 42.6305 29.641C42.9489 28.7813 42.4334 27.8592 41.5522 27.6065V27.6065C40.671 27.3538 39.7587 27.8669 39.4289 28.7222C38.038 32.3285 35.5562 35.4288 32.3103 37.5772C28.6013 40.0321 24.1381 41.0831 19.7234 40.541C15.3088 39.999 11.2324 37.8995 8.22747 34.6202C5.22256 31.3409 3.48635 27.097 3.33112 22.6519C3.1759 18.2068 4.61184 13.8522 7.38068 10.3713C10.1495 6.89036 14.0695 4.51164 18.4356 3.66295C22.8018 2.81427 27.3274 3.55132 31.1986 5.74154C34.5864 7.65828 37.2785 10.5779 38.9175 14.0784C39.3062 14.9086 40.252 15.3568 41.1135 15.0433V15.0433Z" fill="white"/>
<mask id="path-24-inside-1" fill="white">
<path d="M33.5991 17.7785C35.4063 17.1208 36.3678 15.0921 35.3313 13.4721C33.95 11.3128 32.0547 9.50617 29.7935 8.22686C26.5141 6.37147 22.6803 5.74709 18.9817 6.46603C15.283 7.18498 11.9623 9.20006 9.61671 12.1488C7.27115 15.0976 6.05472 18.7865 6.18621 22.5521C6.31771 26.3177 7.7885 29.9128 10.334 32.6908C12.8796 35.4687 16.3328 37.2473 20.0726 37.7065C23.8124 38.1657 27.5933 37.2754 30.7353 35.1957C32.9017 33.7618 34.6663 31.8273 35.8937 29.577C36.8146 27.8886 35.714 25.932 33.8653 25.4019V25.4019C32.0166 24.8718 30.1309 26.013 28.9332 27.5177C28.3592 28.2389 27.6718 28.8715 26.8913 29.3881C25.1321 30.5525 23.0152 31.051 20.9214 30.7939C18.8275 30.5368 16.8941 29.541 15.4688 27.9856C14.0436 26.4302 13.2201 24.4174 13.1465 22.3091C13.0729 20.2007 13.7539 18.1353 15.0672 16.4843C16.3805 14.8334 18.2397 13.7051 20.3106 13.3026C22.3814 12.9001 24.5279 13.2496 26.364 14.2885C27.1787 14.7494 27.9085 15.3325 28.5314 16.0119C29.8312 17.4294 31.7919 18.4363 33.5991 17.7785V17.7785Z"/>
</mask>
<path d="M33.5991 17.7785C35.4063 17.1208 36.3678 15.0921 35.3313 13.4721C33.95 11.3128 32.0547 9.50617 29.7935 8.22686C26.5141 6.37147 22.6803 5.74709 18.9817 6.46603C15.283 7.18498 11.9623 9.20006 9.61671 12.1488C7.27115 15.0976 6.05472 18.7865 6.18621 22.5521C6.31771 26.3177 7.7885 29.9128 10.334 32.6908C12.8796 35.4687 16.3328 37.2473 20.0726 37.7065C23.8124 38.1657 27.5933 37.2754 30.7353 35.1957C32.9017 33.7618 34.6663 31.8273 35.8937 29.577C36.8146 27.8886 35.714 25.932 33.8653 25.4019V25.4019C32.0166 24.8718 30.1309 26.013 28.9332 27.5177C28.3592 28.2389 27.6718 28.8715 26.8913 29.3881C25.1321 30.5525 23.0152 31.051 20.9214 30.7939C18.8275 30.5368 16.8941 29.541 15.4688 27.9856C14.0436 26.4302 13.2201 24.4174 13.1465 22.3091C13.0729 20.2007 13.7539 18.1353 15.0672 16.4843C16.3805 14.8334 18.2397 13.7051 20.3106 13.3026C22.3814 12.9001 24.5279 13.2496 26.364 14.2885C27.1787 14.7494 27.9085 15.3325 28.5314 16.0119C29.8312 17.4294 31.7919 18.4363 33.5991 17.7785V17.7785Z" stroke="white" stroke-width="2" mask="url(#path-24-inside-1)"/>
<path d="M25.2212 39.2582C26.6003 39.2582 27.7616 38.1305 27.7616 36.7393C27.7616 34.9401 26.7092 34.1484 26.1285 32.3851C25.5479 30.6219 25.2212 28.5708 26.7817 28.031C28.3422 27.4912 28.8866 29.3984 28.8866 31.3056C28.8866 33.2128 30.1328 34.2204 31.5358 34.2204C32.9388 34.2204 34.0398 33.3207 34.0761 31.7014C34.1124 30.0821 32.6245 29.0386 31.7172 27.2753C30.81 25.5121 29.5398 21.8776 29.9027 19.1428C30.2656 16.4079 31.5358 15.0045 31.5358 11.3701C31.5358 7.73562 28.6924 5.07275 25.185 5.07275C21.6775 5.07275 18.8341 7.89216 18.8341 11.3701C18.8341 14.848 20.939 21.05 13.4632 21.05C12.0602 21.05 10.9228 22.1777 10.9228 23.5689C10.9228 24.9003 10.5236 25.9439 9.90671 27.2753C9.28977 28.6067 8.38251 29.3984 8.38251 30.8378C8.38251 32.2772 9.51985 33.3207 10.9228 33.3207C11.6226 33.3207 12.4833 33.0329 12.9188 32.3851C13.3543 31.7374 13.2583 30.5139 13.4632 29.2545C13.668 27.995 14.8785 27.1791 16.5478 27.2393C18.2172 27.2995 19.7414 27.8511 21.0841 29.9742C22.4269 32.0973 22.1729 34.9401 22.4995 36.7393C22.8261 38.5385 23.8422 39.2582 25.2212 39.2582Z" fill="white"/>
</svg>
